<svg width="106" height="24" viewBox="0 0 106 24" fill="none" xmlns="http://www.w3.org/2000/svg">
<path d="M17.4729 18.6337L24.7411 0H27.9892L35.2027 18.6337H31.6093L27.6158 8.03883C27.5274 7.82547 27.4067 7.48859 27.2565 7.02678C27.1049 6.56497 26.9407 6.06386 26.7638 5.52205C26.5855 4.98023 26.4269 4.47491 26.2852 4.00468C26.1434 3.53445 26.0367 3.19335 25.9651 2.98L26.6305 2.95333C26.5238 3.30845 26.4003 3.7085 26.2585 4.15066C26.1167 4.59422 25.9651 5.05603 25.8065 5.53468C25.6465 6.01333 25.4907 6.47514 25.3405 6.9187C25.1889 7.36226 25.0513 7.76231 24.9278 8.11603L20.9344 18.6309H17.4743L17.4729 18.6337ZM20.7743 14.375L21.9717 11.3669H30.4639L31.7412 14.375H20.7743Z" fill="#1B5FFF"/>
<path d="M36.7268 18.6337V0H44.819C45.9363 0 46.9568 0.262487 47.8804 0.784653C48.8026 1.30822 49.5353 2.01848 50.0771 2.91402C50.6189 3.81097 50.8885 4.8174 50.8885 5.93472C50.8885 7.05205 50.6175 7.97988 50.0771 8.87682C49.5353 9.77377 48.8082 10.4826 47.8944 11.0062C46.9806 11.5298 45.9559 11.7908 44.8204 11.7908H40.1083V18.6323H36.7282L36.7268 18.6337ZM40.1069 8.78418H44.8456C45.3608 8.78418 45.8086 8.66487 46.1904 8.42484C46.5722 8.18481 46.8697 7.85214 47.0817 7.42683C47.2951 7.00152 47.4017 6.53129 47.4017 6.01614C47.4017 5.43081 47.2684 4.92408 47.0031 4.49877C46.7364 4.07346 46.3644 3.73657 45.8858 3.48672C45.4071 3.23827 44.8569 3.11334 44.2351 3.11334H40.1097V8.78418H40.1069ZM47.5337 18.6337L42.7949 10.2215L46.3616 9.5562L51.6324 18.6604L47.5337 18.6337Z" fill="#1B5FFF"/>
<path d="M53.1753 18.6337V0H56.4501L63.2382 11.0469L61.3222 11.0202L68.189 0H71.3037V18.6337H67.8703V11.6322C67.8703 10.0349 67.9096 8.59749 67.9896 7.32015C68.0697 6.04281 68.2072 4.77389 68.4023 3.51339L68.8276 4.65738L63.0515 13.5749H61.2941L55.7047 4.73739L56.0767 3.51339C56.2718 4.7023 56.4094 5.92209 56.4894 7.17417C56.5694 8.42484 56.6087 9.91133 56.6087 11.6322V18.6337H53.1753Z" fill="#1B5FFF"/>
<path d="M74.1901 18.6337V0H86.3824V3.14142H77.5982V15.4923H86.489V18.6337H74.1901ZM75.7874 10.6483V7.56018H85.025V10.6483H75.7874Z" fill="#1B5FFF"/>
<path d="M88.9921 18.6337V0H92.1068L102.915 14.5603L102.33 14.667C102.258 14.1701 102.196 13.6605 102.143 13.137C102.09 12.6134 102.041 12.0674 101.997 11.5003C101.952 10.9332 101.917 10.338 101.89 9.71622C101.864 9.09579 101.841 8.44309 101.824 7.7595C101.806 7.07591 101.798 6.35302 101.798 5.58942V0H105.231V18.6337H102.063L91.2028 4.28541L91.8949 4.09872C91.9833 5.09252 92.0591 5.94034 92.1208 6.64077C92.1826 7.34261 92.2317 7.94478 92.2668 8.45151C92.3019 8.95683 92.3328 9.37934 92.3595 9.71622C92.3861 10.0531 92.403 10.3591 92.4128 10.6342C92.4212 10.9093 92.4268 11.1718 92.4268 11.4189V18.6323H88.9935L88.9921 18.6337Z" fill="#1B5FFF"/>
<path d="M0 18.6337V0H3.46005V18.6337H0ZM2.74137 13.0696L2.20938 9.63621L11.7922 0H16.131L2.74137 13.0696ZM12.2176 18.6337L5.16411 9.23757L7.61352 7.13486L16.4244 18.6351H12.219L12.2176 18.6337Z" fill="#1B5FFF"/>
<path d="M16.4244 20.8193H0V24.0001H16.4244V20.8193Z" fill="#1B5FFF"/>
</svg>
