<svg width="624" height="624" viewBox="0 0 624 624" fill="none" xmlns="http://www.w3.org/2000/svg">
<g clip-path="url(#clip0_643_969)">
<rect width="624" height="625" transform="matrix(-1 0 0 1 624 0)" fill="#1B5FFF"/>
<rect width="312" height="625" rx="40" transform="matrix(-1 0 0 1 202 0)" fill="#E3B9FF"/>
<circle cx="191" cy="114.5" r="62.5" fill="white"/>
<circle cx="191" cy="513.5" r="62.5" fill="white"/>
<path d="M190.817 511.684C200.118 511.684 207.659 504.144 207.659 494.842C207.659 485.54 200.118 478 190.817 478C181.515 478 173.975 485.54 173.975 494.842C173.975 504.144 181.515 511.684 190.817 511.684Z" fill="#1B5FFF"/>
<path d="M190.816 511.684C172.692 511.684 158 526.376 158 544.5H223.632C223.632 526.376 208.94 511.684 190.816 511.684Z" fill="#1B5FFF"/>
<rect x="163.258" y="103.445" width="11.4065" height="33.7806" fill="#1B5FFF"/>
<rect x="155.361" y="146" width="10.9677" height="71.071" transform="rotate(-90 155.361 146)" fill="#1B5FFF"/>
<rect x="185.193" y="103.445" width="11.4065" height="33.7806" fill="#1B5FFF"/>
<rect x="207.129" y="103.445" width="11.4065" height="33.7806" fill="#1B5FFF"/>
<path d="M190.902 78L227.748 103.445H154.045L190.902 78Z" fill="#1B5FFF"/>
<circle cx="167.472" cy="597.528" r="8.47234" fill="#DDFC35"/>
<circle cx="190.627" cy="597.5" r="8.47234" fill="#DDFC35"/>
<circle cx="213.781" cy="597.472" r="8.47234" fill="#DDFC35"/>
<circle cx="167.472" cy="197.528" r="8.47234" fill="#DDFC35"/>
<circle cx="190.627" cy="197.5" r="8.47234" fill="#DDFC35"/>
<circle cx="213.781" cy="197.472" r="8.47234" fill="#DDFC35"/>
<circle cx="197.5" cy="314.5" r="62.5" fill="white"/>
<circle cx="190.825" cy="307.848" r="28.8484" fill="#1B5FFF"/>
<circle cx="191" cy="308" r="18" fill="white"/>
<rect x="210.271" y="316.981" width="34.7544" height="12.1247" transform="rotate(45 210.271 316.981)" fill="#1B5FFF"/>
<circle cx="174.472" cy="398.528" r="8.47234" fill="#DDFC35"/>
<circle cx="197.627" cy="398.5" r="8.47234" fill="#DDFC35"/>
<circle cx="220.781" cy="398.472" r="8.47234" fill="#DDFC35"/>
<path d="M192.609 319.31C191.059 319.31 189.623 319.041 188.3 318.504C186.977 317.967 185.83 317.202 184.859 316.21C183.908 315.218 183.164 314.04 182.627 312.676C182.11 311.312 181.852 309.793 181.852 308.119C181.852 306.507 182.11 305.04 182.627 303.717C183.164 302.374 183.919 301.196 184.89 300.183C185.882 299.17 187.029 298.395 188.331 297.858C189.654 297.3 191.08 297.021 192.609 297.021C193.25 297.021 193.87 297.083 194.469 297.207C195.089 297.31 195.678 297.476 196.236 297.703C196.815 297.93 197.362 298.209 197.879 298.54L196.019 301.671C195.461 301.278 194.882 300.999 194.283 300.834C193.704 300.669 193.105 300.586 192.485 300.586C191.493 300.586 190.573 300.772 189.726 301.144C188.899 301.516 188.176 302.043 187.556 302.725C186.936 303.386 186.461 304.182 186.13 305.112C185.799 306.021 185.634 307.024 185.634 308.119C185.634 309.276 185.799 310.32 186.13 311.25C186.461 312.18 186.926 312.986 187.525 313.668C188.124 314.329 188.837 314.846 189.664 315.218C190.511 315.569 191.452 315.745 192.485 315.745C192.919 315.745 193.332 315.704 193.725 315.621C194.138 315.538 194.531 315.414 194.903 315.249C195.275 315.084 195.647 314.877 196.019 314.629L197.879 317.822C197.321 318.153 196.753 318.432 196.174 318.659C195.595 318.866 195.006 319.021 194.407 319.124C193.808 319.248 193.208 319.31 192.609 319.31ZM179.496 311.808V309.111L192.547 309.173V311.839L179.496 311.808ZM179.496 307.499V304.833L192.547 304.864V307.53L179.496 307.499Z" fill="#1B5FFF"/>
<rect x="380.5" y="232.5" width="172" height="172" rx="14.5" fill="#1B5FFF" stroke="white" stroke-width="11"/>
<path d="M439.051 339.082V277.74H450.441V339.082H439.051ZM448.075 320.765L446.324 309.462L477.87 277.74H492.153L448.075 320.765ZM479.271 339.082L456.051 308.15L464.114 301.228L493.119 339.086H479.275L479.271 339.082Z" fill="white"/>
<path d="M493.119 346.277H439.051V356.748H493.119V346.277Z" fill="white"/>
<path d="M292 509.544L320.781 509.544L320.781 350.432L342.987 350.432" stroke="#DDFC35" stroke-width="11" stroke-linecap="round"/>
<path d="M292 319.432L343.038 319.432" stroke="#DDFC35" stroke-width="11" stroke-linecap="round"/>
<path d="M292 113L320.781 113L320.781 288.431L342.987 288.431" stroke="#DDFC35" stroke-width="11" stroke-linecap="round"/>
</g>
<defs>
<clipPath id="clip0_643_969">
<rect width="624" height="624" fill="white"/>
</clipPath>
</defs>
</svg>
