<svg width="223" height="82" viewBox="0 0 223 82" fill="none" xmlns="http://www.w3.org/2000/svg">
<path d="M22.542 15.874C29.2939 15.874 35.7692 18.5562 40.5435 23.3305C45.3178 28.1048 48 34.5801 48 41.332V47.582C48 51.954 47.1389 56.2831 45.4658 60.3223C43.7927 64.3615 41.3405 68.0316 38.249 71.123C32.0055 77.3665 23.5376 80.874 14.708 80.874H1V37.416C1 31.7027 3.2696 26.2234 7.30951 22.1835C11.3494 18.1436 16.8287 15.874 22.542 15.874Z" fill="#F6F3EC"/>
<path d="M30.9 1.87402C31.9637 1.87402 33.017 2.08354 33.9997 2.4906C34.9825 2.89766 35.8754 3.4943 36.6276 4.24646C37.3797 4.99861 37.9764 5.89155 38.3834 6.87429C38.7905 7.85702 39 8.91032 39 9.97402V21.974C39 22.2127 38.9052 22.4416 38.7364 22.6104C38.5676 22.7792 38.3387 22.874 38.1 22.874H30.9C30.6613 22.874 30.4324 22.7792 30.2636 22.6104C30.0948 22.4416 30 22.2127 30 21.974V2.77402C30 2.53533 30.0948 2.30641 30.2636 2.13763C30.4324 1.96884 30.6613 1.87402 30.9 1.87402Z" fill="#F6F3EC"/>
<path d="M17.1 1.87402C17.3387 1.87402 17.5676 1.96884 17.7364 2.13763C17.9052 2.30641 18 2.53533 18 2.77402V21.974C18 22.2127 17.9052 22.4416 17.7364 22.6104C17.5676 22.7792 17.3387 22.874 17.1 22.874H9.9C9.66131 22.874 9.43239 22.7792 9.2636 22.6104C9.09482 22.4416 9 22.2127 9 21.974V9.97402C9 7.82577 9.85339 5.7655 11.3724 4.24646C12.8915 2.72741 14.9517 1.87402 17.1 1.87402Z" fill="#F6F3EC"/>
<path d="M100.864 64.7141C100.535 64.7135 100.21 64.6466 99.9083 64.5174C99.6062 64.3882 99.3333 64.1993 99.106 63.9621C98.8801 63.7247 98.7043 63.4441 98.5892 63.1373C98.4741 62.8304 98.422 62.5035 98.436 62.1761V44.7841C98.432 42.7899 98.9524 40.8297 99.945 39.1001C100.898 37.4382 102.272 36.0568 103.929 35.0951C105.638 34.1183 107.576 33.614 109.544 33.6341C111.542 33.6093 113.51 34.12 115.244 35.1131C116.909 36.0823 118.29 37.4712 119.251 39.1411C120.244 40.8825 120.752 42.8586 120.721 44.8631C120.753 46.8471 120.274 48.806 119.33 50.5511C118.443 52.1983 117.137 53.5822 115.544 54.5631C113.923 55.561 112.052 56.078 110.149 56.0541C108.541 56.0638 106.952 55.6938 105.514 54.9741C104.739 54.5838 104.015 54.0983 103.36 53.5291V62.1801C103.371 62.5049 103.317 62.8286 103.202 63.1323C103.086 63.4359 102.911 63.7133 102.686 63.9481C102.462 64.1898 102.191 64.3825 101.889 64.5145C101.587 64.6465 101.261 64.7148 100.932 64.7151L100.864 64.7141ZM106.371 39.0681C105.436 39.6434 104.667 40.4518 104.139 41.4141C103.605 42.4724 103.327 43.6412 103.327 44.8266C103.327 46.012 103.605 47.1808 104.139 48.2391C104.658 49.2176 105.436 50.0342 106.389 50.5988C107.342 51.1633 108.432 51.4541 109.539 51.4391L110.182 51.4321C111.195 51.3517 112.171 51.0182 113.021 50.462C113.871 49.9058 114.567 49.1448 115.046 48.2491C115.593 47.1927 115.878 46.0206 115.878 44.8311C115.878 43.6416 115.593 42.4695 115.046 41.4131C114.517 40.4497 113.743 39.6427 112.803 39.0731C111.827 38.5041 110.718 38.2042 109.588 38.2041C108.458 38.2023 107.348 38.5005 106.371 39.0681ZM186.031 64.3051H185.891C184.075 64.3077 182.279 63.9196 180.626 63.1671C179 62.4238 177.579 61.2956 176.486 59.8801C176.278 59.6405 176.124 59.3586 176.036 59.0538C175.948 58.7491 175.926 58.4288 175.974 58.1151C176.017 57.8058 176.128 57.5097 176.298 57.2479C176.468 56.9861 176.694 56.7649 176.959 56.6001C177.359 56.3146 177.838 56.1608 178.329 56.1601C178.485 56.1601 178.641 56.1755 178.794 56.2061C179.409 56.3103 179.961 56.645 180.338 57.1421C180.976 57.9338 181.79 58.5665 182.714 58.9901C183.725 59.4439 184.82 59.6777 185.928 59.6761C185.986 59.6761 186.043 59.6761 186.101 59.6761H186.124C187.217 59.6868 188.292 59.4043 189.239 58.8581C190.193 58.2918 190.969 57.4693 191.479 56.4841C191.997 55.4544 192.288 54.3258 192.334 53.1741C191.795 53.7413 191.189 54.2404 190.529 54.6601H190.523C189.01 55.5996 187.259 56.0833 185.479 56.0531C183.55 56.0887 181.648 55.5884 179.986 54.6081H179.981C178.387 53.6478 177.085 52.2711 176.215 50.6261V50.6211C175.297 48.8438 174.835 46.8662 174.871 44.8661C174.833 42.8407 175.327 40.8407 176.304 39.0661C177.238 37.3945 178.614 36.0131 180.283 35.0741L180.299 35.0651C182.065 34.1294 184.033 33.6395 186.031 33.6381C188.029 33.6395 189.996 34.1294 191.762 35.0651L191.781 35.0751C193.439 36.0168 194.808 37.396 195.736 39.0621C196.625 40.6656 197.127 42.4544 197.202 44.2861L197.231 44.2931V52.8121C197.256 54.8395 196.764 56.84 195.801 58.6241C194.874 60.3439 193.499 61.7805 191.821 62.7815C190.143 63.7825 188.226 64.3103 186.272 64.3091L186.031 64.3051ZM182.776 39.0761C181.828 39.6197 181.054 40.4211 180.543 41.3871C180.009 42.4663 179.732 43.6541 179.732 44.8581C179.732 46.0621 180.009 47.2499 180.543 48.3291C181.058 49.2843 181.826 50.0798 182.762 50.6291C183.755 51.1898 184.881 51.4731 186.021 51.4491L186.787 51.4321V51.4381C187.678 51.3498 188.541 51.0748 189.319 50.6311C190.244 50.0757 191.001 49.2811 191.512 48.3311C192.053 47.2543 192.335 46.0658 192.335 44.8606C192.335 43.6554 192.053 42.4669 191.512 41.3901C191.011 40.431 190.254 39.6301 189.324 39.0771C188.324 38.5202 187.199 38.2276 186.054 38.2271C184.907 38.2265 183.779 38.5187 182.776 39.0761ZM160.607 64.3041H160.569C158.7 64.3263 156.85 63.9385 155.147 63.1681H155.142C153.522 62.4214 152.106 61.2941 151.015 59.8821C150.809 59.6431 150.657 59.3635 150.566 59.0614C150.476 58.7593 150.451 58.4416 150.492 58.1291V58.1071C150.541 57.8027 150.653 57.5119 150.821 57.2535C150.99 56.9951 151.21 56.7749 151.469 56.6071C151.87 56.317 152.352 56.1612 152.847 56.1621C153.001 56.1621 153.156 56.1775 153.307 56.2081C153.927 56.3083 154.485 56.6436 154.864 57.1441C155.501 57.9338 156.311 58.5664 157.232 58.9931C158.296 59.4678 159.453 59.701 160.618 59.6761H160.641C161.736 59.6864 162.815 59.4043 163.765 58.8591C164.717 58.2922 165.491 57.4688 165.997 56.4831V56.4771C166.539 55.4466 166.849 54.3094 166.903 53.1461C166.359 53.7258 165.744 54.2344 165.072 54.6601H165.065C163.542 55.6025 161.78 56.0858 159.99 56.0521C158.064 56.0872 156.167 55.587 154.509 54.6071H154.503C152.914 53.646 151.618 52.2682 150.756 50.6231C149.837 48.8453 149.375 46.867 149.41 44.8661C149.372 42.8407 149.866 40.8407 150.843 39.0661C151.777 37.3944 153.154 36.013 154.823 35.0741L154.838 35.0651C156.604 34.1295 158.572 33.6396 160.57 33.6381C162.568 33.6396 164.536 34.1295 166.302 35.0651L166.322 35.0761C167.977 36.0203 169.344 37.398 170.275 39.0611C171.155 40.6628 171.655 42.4454 171.737 44.2711L171.798 44.2881V52.8071C171.823 54.8345 171.331 56.8348 170.368 58.6191C169.441 60.3388 168.066 61.7754 166.388 62.7764C164.71 63.7773 162.793 64.3052 160.839 64.3041H160.607ZM157.298 39.0751C156.364 39.6258 155.602 40.4266 155.098 41.3871C154.557 42.4638 154.275 43.6521 154.275 44.8571C154.275 46.0621 154.557 47.2504 155.098 48.3271C155.612 49.28 156.376 50.075 157.308 50.6271C158.299 51.1851 159.422 51.4682 160.559 51.4471L161.323 51.4321V51.4371C162.211 51.3489 163.071 51.0735 163.845 50.6291C164.774 50.0765 165.534 49.2813 166.045 48.3291C166.586 47.2523 166.868 46.0638 166.868 44.8586C166.868 43.6534 166.586 42.4649 166.045 41.3881C165.543 40.4265 164.78 39.6254 163.845 39.0761C162.845 38.5195 161.719 38.2269 160.574 38.2261C159.427 38.2258 158.299 38.518 157.297 39.0751H157.298ZM71.319 56.0551C69.459 56.0552 67.6355 55.5387 66.0519 54.5631C64.4458 53.5849 63.124 52.203 62.218 50.5551C61.273 48.8084 60.7937 46.8477 60.826 44.8621C60.7984 42.8571 61.3091 40.8815 62.305 39.1411V39.1361C63.2896 37.4507 64.6978 36.052 66.39 35.0791C68.0829 34.1081 70.0004 33.5968 71.952 33.5961C73.9039 33.5967 75.8217 34.108 77.515 35.0791C79.2071 36.052 80.6154 37.4507 81.6 39.1361V39.1421C82.5073 40.7315 83.0238 42.5138 83.1069 44.3421L83.199 44.3761V53.4761C83.2058 53.8045 83.1467 54.131 83.0253 54.4362C82.9038 54.7414 82.7225 55.0191 82.492 55.2531L82.472 55.2721C82.2319 55.4986 81.9491 55.6749 81.64 55.7906C81.3309 55.9064 81.0017 55.9592 80.6719 55.9461C80.3442 55.9529 80.0185 55.893 79.7145 55.7701C79.4106 55.6472 79.1349 55.4638 78.904 55.2311C78.4704 54.7968 78.2159 54.2153 78.191 53.6021C77.7589 53.9728 77.297 54.3073 76.8099 54.6021C75.2414 55.551 73.4432 56.0528 71.61 56.0531L71.319 56.0551ZM72.032 51.4441C73.1469 51.4706 74.2469 51.185 75.2081 50.6196C76.1694 50.0541 76.9535 49.2314 77.472 48.2441C78.025 47.1896 78.3139 46.0168 78.3139 44.8261C78.3139 43.6354 78.025 42.4625 77.472 41.4081C76.9471 40.445 76.1784 39.6367 75.243 39.0641C74.3024 38.4821 73.2181 38.1739 72.1119 38.1741H72.012C70.8934 38.1741 69.7954 38.4743 68.8323 39.0433C67.8693 39.6123 67.0767 40.4294 66.537 41.4091C65.9841 42.467 65.6953 43.643 65.6953 44.8366C65.6953 46.0303 65.9841 47.2062 66.537 48.2641C67.0562 49.2339 67.8295 50.0442 68.774 50.6081C69.751 51.1789 70.8667 51.4685 71.998 51.4451H72.014L72.032 51.4441ZM205.552 54.5621C203.957 53.5792 202.645 52.1975 201.747 50.5531C200.808 48.8052 200.329 46.8471 200.356 44.8631C200.328 42.8577 200.839 40.8816 201.836 39.1411V39.1351C202.822 37.4526 204.231 36.0569 205.923 35.0861C207.616 34.1163 209.532 33.6058 211.483 33.6051C213.433 33.6057 215.35 34.1163 217.042 35.0861C218.734 36.0568 220.143 37.4524 221.13 39.1351V39.1411C222.044 40.7389 222.558 42.5338 222.63 44.3731L222.689 44.3951V53.4951C222.699 53.8255 222.641 54.1544 222.518 54.4615C222.396 54.7685 222.212 55.0471 221.977 55.2801L221.958 55.2981C221.664 55.5705 221.307 55.7666 220.919 55.8691V55.9491L220.186 55.9671C219.855 55.9738 219.526 55.9135 219.218 55.79C218.911 55.6664 218.631 55.4822 218.397 55.2481C217.947 54.7934 217.692 54.1808 217.688 53.5411C217.245 53.9351 216.769 54.2908 216.265 54.6041L216.256 54.6091C214.653 55.5768 212.811 56.0783 210.939 56.0571H210.812C208.954 56.0554 207.133 55.5382 205.552 54.5631V54.5621ZM206.046 41.3381C205.5 42.3994 205.216 43.5758 205.217 44.7692C205.218 45.9626 205.504 47.1386 206.051 48.1991C206.558 49.188 207.322 50.0217 208.264 50.6121C209.24 51.1835 210.355 51.4717 211.486 51.4441L212.255 51.4241C213.133 51.324 213.979 51.0336 214.734 50.5731C215.676 50.0018 216.448 49.1899 216.972 48.2211C217.519 47.1646 217.804 45.9926 217.804 44.8031C217.804 43.6136 217.519 42.4415 216.972 41.3851C216.445 40.4219 215.673 39.6145 214.735 39.0441H214.73C213.776 38.4532 212.675 38.1456 211.553 38.1571H211.493C210.384 38.1575 209.296 38.4524 208.339 39.0117C207.382 39.571 206.59 40.3745 206.046 41.3401V41.3381ZM129.132 54.5631C127.534 53.5837 126.223 52.1993 125.332 50.5501C124.388 48.8051 123.91 46.8466 123.942 44.8631C123.911 42.8593 124.418 40.884 125.411 39.1431C126.393 37.4474 127.804 36.0398 129.502 35.0611C131.2 34.0832 133.125 33.5681 135.085 33.5671C137.045 33.5679 138.97 34.0831 140.669 35.0611C142.366 36.0405 143.777 37.4479 144.76 39.1431C145.677 40.748 146.191 42.551 146.26 44.3981H146.267V53.4981C146.277 53.8285 146.219 54.1575 146.096 54.4645C145.974 54.7716 145.79 55.0502 145.555 55.2831L145.536 55.3011C145.242 55.5735 144.885 55.7696 144.497 55.8721V55.9501L143.766 55.9691C143.434 55.977 143.105 55.9174 142.797 55.7938C142.489 55.6702 142.21 55.4851 141.976 55.2501C141.75 55.0251 141.571 54.7576 141.449 54.4631C141.327 54.1686 141.264 53.8529 141.265 53.5341C140.811 53.9339 140.324 54.2939 139.809 54.6101C138.214 55.5753 136.382 56.0777 134.518 56.0611H134.39C132.532 56.0579 130.712 55.5393 129.132 54.5631ZM135.845 51.4251C136.72 51.3242 137.562 51.0342 138.314 50.5751C139.256 50.0039 140.029 49.1921 140.553 48.2231C141.1 47.1666 141.385 45.9946 141.385 44.8051C141.385 43.6157 141.1 42.4435 140.553 41.3871C140.025 40.4236 139.254 39.6159 138.315 39.0451H138.309C137.357 38.4527 136.255 38.1449 135.133 38.1581H135.079C133.96 38.158 132.862 38.4659 131.906 39.0481L131.895 39.0541C130.946 39.6116 130.164 40.4117 129.627 41.3721C129.081 42.4325 128.796 43.608 128.796 44.8006C128.796 45.9932 129.081 47.1686 129.627 48.2291C130.155 49.2118 130.943 50.0302 131.905 50.5946C132.868 51.159 133.967 51.4477 135.082 51.4291L135.843 51.4171L135.845 51.4251ZM93.105 55.9541L92.866 55.9451C91.7036 55.9595 90.5661 55.6075 89.615 54.9391H89.609C88.6505 54.2513 87.8942 53.3188 87.419 52.2391C86.8914 51.0292 86.6311 49.7197 86.656 48.4001V27.4171C86.6481 27.0958 86.7044 26.7762 86.8215 26.4769C86.9386 26.1777 87.1142 25.9047 87.338 25.6741L87.378 25.6351C87.8585 25.2097 88.4781 24.9749 89.1199 24.9751C89.7614 24.9752 90.3807 25.2099 90.861 25.6351L90.8959 25.6671C91.1257 25.8985 91.3053 26.1747 91.4237 26.4785C91.542 26.7823 91.5966 27.1073 91.584 27.4331V48.4461C91.5557 49.1533 91.721 49.8549 92.062 50.4751L92.076 50.5041C92.1512 50.6563 92.2662 50.7853 92.4088 50.8774C92.5514 50.9695 92.7163 51.0212 92.886 51.0271H93.8C94.1183 51.0157 94.4352 51.0737 94.7288 51.1972C95.0223 51.3207 95.2855 51.5066 95.4999 51.7421L95.523 51.7691C95.9285 52.2601 96.1358 52.8851 96.104 53.5211C96.1067 53.8786 96.0229 54.2315 95.8597 54.5496C95.6966 54.8678 95.4589 55.1417 95.167 55.3481C94.6029 55.746 93.9293 55.9591 93.239 55.9581L93.105 55.9541Z" fill="black"/>
<path d="M0.875028 81.3291C0.760037 81.3291 0.64617 81.3064 0.539945 81.2624C0.43372 81.2183 0.337213 81.1538 0.255949 81.0724C0.174684 80.9911 0.110226 80.8945 0.0663123 80.7882C0.0223983 80.682 -0.000103281 80.5681 2.8137e-05 80.4531V39.3441C-0.0049142 36.1191 0.641294 32.9263 1.89999 29.9571C3.11015 27.0916 4.86534 24.4884 7.06802 22.2921C7.52802 21.8321 8.004 21.3924 8.496 20.9731C7.99644 19.1714 7.74714 17.3096 7.75503 15.4401C7.70363 11.7794 8.71852 8.18289 10.676 5.0891C11.4506 3.80247 12.4888 2.69437 13.7224 1.83776C14.9559 0.981153 16.3569 0.395419 17.833 0.119071C17.9403 0.0695957 18.0564 0.042308 18.1745 0.038871C18.2925 0.035434 18.4101 0.0559602 18.52 0.0991127C18.6838 0.163439 18.8242 0.275568 18.9232 0.420951C19.0222 0.566334 19.0752 0.738163 19.075 0.914054V15.7561C20.7333 15.4041 22.4239 15.2275 24.119 15.2291C25.9018 15.2269 27.6793 15.4222 29.419 15.8111V1.04107C29.4081 0.961779 29.4081 0.881344 29.419 0.802055C29.4272 0.733739 29.4432 0.666662 29.467 0.602103C29.5079 0.477392 29.5763 0.363477 29.6672 0.26879C29.7581 0.174104 29.8691 0.101073 29.992 0.0551064C30.2012 -0.0229192 30.4324 -0.0179328 30.638 0.0690834C32.1181 0.345701 33.5229 0.932449 34.76 1.79076C35.9972 2.64908 37.0387 3.7595 37.816 5.04906C39.7767 8.1435 40.7935 11.7421 40.742 15.4051C40.7455 17.3427 40.4738 19.2709 39.935 21.1321C40.361 21.5027 40.7757 21.8894 41.179 22.2921C43.3811 24.4889 45.1362 27.0919 46.347 29.9571C47.6053 32.9264 48.2516 36.1192 48.247 39.3441V46.7931C48.257 51.4105 47.3349 55.9825 45.536 60.2351C43.8029 64.3385 41.2897 68.0664 38.136 71.2121C34.9909 74.3656 31.2637 76.8788 27.161 78.6121C22.9086 80.4119 18.3366 81.335 13.719 81.3261L0.875028 81.3291ZM1.75003 39.3441V79.5781H13.706C18.0125 79.5903 22.2786 78.7482 26.2573 77.1003C30.236 75.4524 33.8483 73.0316 36.885 69.9781C39.939 66.9412 42.36 63.3287 44.0078 59.3495C45.6557 55.3704 46.4977 51.1039 46.485 46.7971V39.3471C46.4792 33.416 44.1203 27.7295 39.9261 23.5359C35.7319 19.3422 30.0451 16.9841 24.114 16.9791C18.1845 16.9857 12.4997 19.3442 8.30691 23.537C4.1141 27.7298 1.75561 33.4146 1.74899 39.3441H1.75003ZM38.433 19.9351C38.799 18.453 38.9827 16.9317 38.98 15.4051C39.0325 12.0865 38.1176 8.82439 36.347 6.01708C35.4559 4.61837 34.2396 3.45599 32.802 2.62908C33.6037 3.74917 34.3127 4.93276 34.922 6.16808C36.3792 9.0544 37.1292 12.2458 37.11 15.4791C37.1088 16.6047 37.0084 17.7281 36.81 18.8361C37.366 19.1808 37.9077 19.5471 38.433 19.9351ZM12.133 6.0581C10.3649 8.86517 9.45139 12.126 9.504 15.4431C9.49801 16.9065 9.66415 18.3655 9.99899 19.7901C10.543 19.3968 11.1024 19.0268 11.677 18.6801C11.4884 17.6332 11.384 16.5727 11.365 15.5091C11.3444 12.2707 12.0951 9.07386 13.555 6.1831C14.1577 4.96359 14.858 3.79479 15.649 2.6881C14.2215 3.51244 13.0137 4.66874 12.128 6.05907L12.133 6.0581ZM13.114 15.4821C13.1275 16.2099 13.1846 16.9362 13.285 17.6571C14.5593 16.9122 15.9144 16.315 17.324 15.8771V3.35607C14.6249 6.82557 13.1436 11.0875 13.109 15.4831L13.114 15.4821ZM31.164 15.8591C32.1247 16.1589 33.0622 16.5286 33.969 16.9651H33.974C34.3987 17.1731 34.8167 17.3971 35.228 17.6371C35.3182 16.9186 35.3637 16.1952 35.364 15.4711V15.4591C35.3271 11.0691 33.8517 6.81232 31.164 3.34106V15.8591ZM24.204 50.0191C22.5938 50.0042 21.0112 49.5984 19.5924 48.8367C18.1737 48.0749 16.9611 46.98 16.059 45.6461C15.9142 45.4303 15.7216 45.2508 15.4961 45.1216C15.2707 44.9924 15.0184 44.9169 14.759 44.9011H14.513C12.6286 44.9022 10.8178 44.1699 9.46402 42.8591C8.10456 41.5538 7.30685 39.7705 7.24002 37.8871C7.24002 37.8641 7.24002 37.8421 7.24002 37.8191C7.31138 35.9299 8.11593 34.1429 9.483 32.8371C10.8401 31.53 12.6518 30.801 14.536 30.8041C14.63 30.8041 14.724 30.8041 14.819 30.8091H14.832C15.5523 30.8472 16.268 30.9476 16.971 31.1091C18.27 31.3764 19.5292 31.8093 20.718 32.3971C21.9285 32.8985 23.2259 33.156 24.536 33.1551C25.1502 33.1546 25.7631 33.0981 26.367 32.9861C27.0646 32.8407 27.7419 32.611 28.384 32.3021C29.395 31.7779 30.4672 31.3816 31.576 31.1221C32.2851 30.955 33.0082 30.8545 33.736 30.8221H33.75C33.821 30.8221 33.893 30.8221 33.964 30.8221C35.8474 30.8195 37.6584 31.5468 39.017 32.8511C40.3813 34.1535 41.1868 35.9345 41.264 37.8191C41.2653 37.8427 41.2653 37.8664 41.264 37.8901C41.1966 39.7734 40.399 41.5566 39.04 42.8621C37.6857 44.1724 35.8745 44.904 33.99 44.9021H33.75C33.4857 44.9298 33.2317 45.0196 33.0087 45.1642C32.7857 45.3088 32.6001 45.504 32.467 45.7341C32.454 45.7571 32.439 45.7791 32.425 45.8001C31.5064 47.1034 30.2881 48.1671 28.8728 48.9016C27.4575 49.6361 25.8866 50.0201 24.292 50.0211L24.204 50.0191ZM8.99002 37.8561C9.04767 39.2816 9.65522 40.6294 10.6851 41.6166C11.7151 42.6039 13.0873 43.1538 14.514 43.1511H14.826C15.3604 43.1781 15.8811 43.3292 16.347 43.5923C16.8128 43.8555 17.211 44.2234 17.51 44.6671C18.2536 45.7654 19.2526 46.6668 20.4214 47.2939C21.5902 47.9209 22.8937 48.2549 24.22 48.2671C25.5408 48.2789 26.8449 47.9715 28.0213 47.371C29.1978 46.7705 30.2118 45.8947 30.977 44.8181C31.2563 44.3487 31.6435 43.9526 32.1065 43.6627C32.5694 43.3728 33.0948 43.1974 33.639 43.1511H33.713H33.993C35.4193 43.1538 36.7914 42.6041 37.8213 41.6173C38.8511 40.6305 39.4588 39.2832 39.517 37.8581C39.4479 36.4039 38.8106 35.035 37.7423 34.046C36.674 33.057 35.2602 32.527 33.805 32.5701C33.1884 32.5989 32.5757 32.6849 31.975 32.8271C31.0022 33.054 30.0616 33.4017 29.175 33.8621L29.153 33.8731C28.3757 34.2495 27.5548 34.5282 26.709 34.7031H26.693C25.9804 34.8361 25.257 34.9031 24.532 34.9031C22.9819 34.9058 21.4467 34.5999 20.016 34.0031C19.998 33.996 19.9803 33.988 19.963 33.9791C18.8986 33.4504 17.7703 33.0619 16.606 32.8231H16.586C15.9803 32.6842 15.3636 32.5978 14.743 32.5651C14.673 32.5651 14.603 32.5651 14.533 32.5651C13.1054 32.5623 11.732 33.1111 10.6994 34.0968C9.66673 35.0825 9.05468 36.429 8.991 37.8551L8.99002 37.8561Z" fill="black"/>
<path d="M35.595 37.9141C35.3909 38.3984 35.0499 38.8127 34.6137 39.106C34.1776 39.3993 33.6653 39.5589 33.1397 39.5653C32.6141 39.5717 32.0981 39.4245 31.655 39.1418C31.2118 38.8592 30.8608 38.4533 30.645 37.9741M24.165 42.1141L21.685 40.1941C21.685 39.9241 22.185 39.6941 22.805 39.6941H25.515C26.145 39.6941 26.645 39.9241 26.645 40.1941L24.165 42.1141ZM24.165 42.1141V45.6241M17.735 37.9141C17.5329 38.3991 17.1931 38.8142 16.7577 39.1083C16.3222 39.4024 15.8102 39.5625 15.2848 39.5689C14.7594 39.5753 14.2436 39.4277 13.8011 39.1442C13.3587 38.8608 13.0089 38.454 12.795 37.9741M26.625 44.0441C26.4137 44.5229 26.0676 44.9299 25.6291 45.2157C25.1906 45.5015 24.6785 45.6536 24.155 45.6536C23.6316 45.6536 23.1195 45.5015 22.681 45.2157C22.2424 44.9299 21.8964 44.5229 21.685 44.0441" stroke="black" stroke-width="1.75" stroke-linecap="round" stroke-linejoin="round"/>
</svg>
