<svg width="386" height="41" viewBox="0 0 386 41" fill="none" xmlns="http://www.w3.org/2000/svg">
<path d="M7.2473 33.4914V0.378052H0V39.9736H23.5808V33.4914H7.2473Z" fill="#D51317"/>
<path d="M47.3781 0.378054V25.5507C47.3781 32.9512 45.9719 33.9235 40.4553 33.9235C34.7764 33.9235 33.4784 32.357 33.4784 25.4426V0.378054H26.2852V25.7667C26.2852 37.1106 29.6925 40.7298 40.4012 40.7298C50.8395 40.7298 54.3549 36.9485 54.3549 25.6587V0.324036L47.3781 0.378054Z" fill="#D51317"/>
<path d="M70.7965 16.6916L70.6343 16.6376C65.0095 14.3688 64.685 14.2068 64.685 10.5876C64.685 7.83261 65.3881 6.69822 69.7689 6.69822C72.8517 6.69822 76.6917 7.23841 78.3683 7.56252L79.3959 7.77859L80.5317 1.29638L79.6123 1.08031C78.0438 0.648158 73.8253 0.0539551 69.9312 0.0539551C61.3859 0.0539551 57.5459 3.34908 57.5459 10.6416C57.5459 18.3662 59.7092 20.0408 68.3087 23.2279C74.2038 25.6587 74.5824 25.7667 74.5824 29.332C74.5824 33.0052 73.7712 34.0856 68.5791 34.0856C65.1177 34.0856 60.5205 33.2213 59.2225 32.8972L58.1949 32.6271L56.8428 39.1093L57.8163 39.3254C59.4929 39.7575 63.9278 40.5678 68.525 40.5678C78.2602 40.5678 81.8838 37.4887 81.8838 29.1699C81.8297 21.1752 78.4224 19.5546 70.7965 16.6916Z" fill="#D51317"/>
<path d="M92.2675 0.432129H85.0742V40.2437H92.2675V0.432129Z" fill="#D51317"/>
<path d="M116.985 0.432129V25.1186L103.085 0.432129H96.5947V40.2437H103.409V14.8551L117.85 40.2437H123.853V0.432129H116.985Z" fill="#D51317"/>
<path d="M150.138 7.0764V0.432129H127.639V40.2437H150.138V33.7075H134.778V22.7958H146.731V16.1515H134.778V7.0764H150.138Z" fill="#D51317"/>
<path d="M15.4145 0.378052H23.8517L16.3339 15.0711L13.0889 13.4505L15.4145 0.378052Z" fill="#D51317"/>
<path d="M174.476 0.540161V21.9315L162.415 0.540161H154.897V40.3518H163.064V18.3122L175.612 40.3518H182.643V0.540161H174.476Z" fill="black"/>
<path d="M201.356 0C190.053 0 186.104 5.34783 186.104 20.473C186.104 35.5441 190.107 40.892 201.356 40.892C212.66 40.892 216.662 35.5441 216.662 20.365C216.716 5.34783 212.714 0 201.356 0ZM201.356 33.0053C197.138 33.0053 194.704 32.4651 194.704 21.7694V19.1225C194.704 8.42688 197.084 7.94071 201.356 7.94071C205.629 7.94071 208.009 8.48089 208.009 19.2306V21.8775C208.063 32.5191 205.791 33.0053 201.356 33.0053Z" fill="black"/>
<path d="M239.756 0.540161V25.4967C239.756 32.0869 238.729 32.7352 233.969 32.7352C229.318 32.7352 228.128 31.8709 228.128 25.4427V0.59418H219.637V25.8208C219.637 37.1647 223.26 41 233.915 41C244.353 41 248.031 37.0026 248.031 25.7668V0.648198H239.756V0.540161Z" fill="black"/>
<path d="M273.342 0.540161L265.77 24.5784L258.253 0.540161H249.383L261.984 40.5678H269.178L282.05 0.540161H273.342Z" fill="black"/>
<path d="M306.875 8.53489V0.540161H283.727V40.3518H306.875V32.4651H292.164V23.606H303.63V15.6113H292.164V8.53489H306.875Z" fill="black"/>
<path d="M318.448 32.4651V0.540161H309.957V40.3518H333.971V32.4651H318.448Z" fill="black"/>
<path d="M344.788 32.4651V0.540161H336.242V40.3518H360.31V32.4651H344.788Z" fill="black"/>
<path d="M386 8.53489V0.540161H362.798V40.3518H386V32.4651H371.235V23.606H382.701V15.6113H371.235V8.53489H386Z" fill="black"/>
</svg>
