<svg width="62" height="28" viewBox="0 0 62 28" fill="none" xmlns="http://www.w3.org/2000/svg">
<path d="M41.9263 5.01881C39.8735 4.90829 37.8787 5.70792 36.4521 7.19666C36.3294 7.33968 36.2455 7.51521 36.2132 7.70374L33.9215 19.0221C33.8828 19.2236 33.8957 19.4251 33.9667 19.6202C34.3089 20.4718 34.9221 21.1869 35.7162 21.642C37.1686 22.4741 39.0214 22.5586 40.6481 22.3896C41.9457 22.2596 43.2432 21.876 44.3019 21.0894C45.5027 20.1988 46.2063 18.8725 46.5033 17.4228L47.7233 11.3963C48.4915 7.46321 46.7098 5.01881 41.9263 5.01881ZM42.5848 10.7332L41.397 16.7077C41.171 17.9234 40.674 18.3525 39.9122 18.3525C39.144 18.3525 38.7631 17.9494 39.002 16.7077L40.1769 10.5577C40.4028 9.40052 40.9322 8.99745 41.6294 8.99745C42.3201 8.99745 42.8495 9.40052 42.5848 10.7332ZM55.4634 5.01881C52.5908 5.01881 50.4346 6.189 49.2985 8.15882C49.1887 8.36035 49.1435 8.60089 49.1823 8.82843C49.3953 10.0636 49.0854 11.4158 48.853 12.6185C48.64 13.7237 48.4205 14.8354 48.2075 15.9406C48.0138 16.9287 47.8589 17.8649 47.4845 18.8075C47.3941 19.0286 47.3941 19.2821 47.4845 19.5031C47.8202 20.3548 48.4786 21.1804 49.2727 21.6355C50.7187 22.4611 52.5456 22.5456 54.1659 22.3896C55.4635 22.2661 56.7545 21.889 57.8197 21.1154C59.0398 20.2248 59.7628 18.8921 60.0597 17.4163L61.2798 11.3898C62.0351 7.4632 60.2082 5.01881 55.4634 5.01881ZM56.1219 10.7332L54.9341 16.7077C54.7082 17.9234 54.2111 18.3525 53.4493 18.3525C52.6811 18.3525 52.3003 17.9494 52.5391 16.7077L53.7592 10.5577C53.9851 9.40052 54.5145 8.99745 55.2117 8.99745C55.9024 8.99745 56.3866 9.40052 56.1219 10.7332ZM12.2376 14.3153C12.1795 14.2893 12.1214 14.2763 12.0568 14.2763H8.51279C8.29976 14.2698 8.11256 14.4258 8.07382 14.6339L7.67358 16.6492C7.44764 17.8909 7.14423 18.346 6.25338 18.346C5.36252 18.346 5.13013 17.9169 5.3948 16.5062L6.51805 10.8828C6.82146 9.3225 7.15069 8.94544 8.06737 8.94544C8.98404 8.94544 9.12606 9.34851 8.82266 10.9088L8.55798 12.235C8.48697 12.4755 8.62254 12.7226 8.86139 12.7941C8.90012 12.8136 13.49 12.8201 13.49 12.8201C13.703 12.8201 13.8837 12.6705 13.9289 12.4625C14.071 11.7084 14.2646 10.9478 14.3034 10.1741C14.3421 9.38101 14.2388 8.58138 13.9935 7.82076C13.3092 5.98097 11.4823 5.01881 8.32559 5.01881C4.5685 5.01881 2.0315 6.94962 1.39886 10.0376L0.178779 16.1811C-0.311837 18.697 0.178779 20.6278 2.00568 21.694C3.04501 22.2986 4.278 22.4351 5.45936 22.4741C6.63425 22.5131 7.77041 22.4611 8.88721 22.0581C9.72642 21.759 10.5656 21.2779 11.237 20.6798C11.3597 20.5693 11.4242 20.4003 11.3984 20.2313C11.2499 19.3211 11.3532 18.424 11.534 17.5268C11.7147 16.6167 11.9988 15.7585 12.4635 14.9069C12.5733 14.6989 12.4571 14.4128 12.2376 14.3153ZM24.4901 22.3961C24.7354 22.3961 24.9484 22.2206 24.9936 21.9735C25.2325 20.7969 25.5294 19.3341 25.7683 18.1574C26.1814 16.1096 26.5946 14.0618 27.0013 12.0074C27.2208 10.9023 27.5435 9.80358 27.4661 8.6659C27.2918 6.2085 25.5488 5.01881 21.9014 5.01881C18.777 5.01881 16.6596 6.08498 15.5622 7.89227C15.517 7.97029 15.517 8.0548 15.5299 8.14581V8.15882C15.7171 9.09497 15.7881 9.99861 15.659 10.9478C15.6267 11.1883 15.7881 11.4158 16.027 11.4483C16.0528 11.4548 19.5194 11.4548 19.5194 11.4548C19.6937 11.4353 19.8421 11.3118 19.8938 11.1428L20.0745 10.0766C20.3134 8.97145 20.7653 8.6594 21.4625 8.6594C22.5857 8.6594 22.5728 10.1221 22.1532 10.8763C21.6884 11.7084 20.2553 12.0464 19.4096 12.209C17.912 12.508 16.4724 13.0216 15.1232 13.7367C13.9612 14.3543 13.3609 15.7 13.0639 16.9222C12.7605 18.1704 12.4571 19.6397 12.9993 20.8684C13.49 21.98 14.6842 22.3506 15.801 22.4351C16.5886 22.5001 17.3955 22.5066 18.1637 22.2791C18.8545 22.0711 19.5 21.707 20.0229 21.2129C20.2101 21.0374 20.3973 20.8294 20.5523 20.6213C20.5716 20.5888 20.6168 20.5758 20.6491 20.5953C20.662 20.6018 20.6685 20.6148 20.6749 20.6213C20.875 21.759 21.7723 22.3961 23.7735 22.3961C23.78 22.3961 24.4901 22.3961 24.4901 22.3961ZM21.5722 14.1138L20.946 17.3383C20.7072 18.346 20.2166 18.8725 19.3967 18.8725C18.5769 18.8725 18.338 18.3785 18.4865 17.4553L18.6479 16.6752C18.8867 15.6935 19.0481 15.3685 19.4806 15.0304C19.9002 14.7314 20.3715 14.5168 20.8686 14.3933C21.0945 14.3283 21.3075 14.2178 21.4883 14.0618C21.5335 14.0098 21.5787 14.0423 21.5722 14.1138ZM32.8112 4.67425C34.9221 4.67425 35.7872 4.11516 36.1422 2.33388C36.4973 0.552589 35.7097 0 33.5342 0C31.3587 0 30.5647 0.487579 30.2096 2.33388C29.8352 4.04365 30.5001 4.67425 32.8112 4.67425Z" fill="#FF3537"/>
<path d="M35.1805 5.81222C35.1159 5.57819 34.8706 5.44166 34.6382 5.50667C33.9539 5.6822 33.2503 5.77322 32.5466 5.76672C31.7849 5.79272 31.0296 5.70171 30.2937 5.50667C30.2808 5.50017 30.2678 5.50017 30.2549 5.49367C30.0161 5.42866 29.7643 5.56518 29.6933 5.81222L26.2977 22.4874C26.0589 23.3781 25.7942 23.5796 24.9744 23.5796L23.8059 23.5536C23.5929 23.5536 23.4121 23.7031 23.3669 23.9111L22.6568 27.4607C22.6504 27.4867 22.6504 27.5192 22.6504 27.5517C22.6504 27.7988 22.8505 28.0003 23.0958 28.0003H25.2519C29.2027 28.0003 30.9457 26.8691 31.6364 23.3521L35.1869 6.02026C35.1998 5.95525 35.1998 5.87723 35.1805 5.81222Z" fill="#FF3537"/>
</svg>
