<svg width="140" height="47" viewBox="0 0 140 47" fill="none" xmlns="http://www.w3.org/2000/svg">
<path opacity="0.985" fill-rule="evenodd" clip-rule="evenodd" d="M0 0C15.6489 0 31.2979 0 46.9468 0C46.9468 15.6489 46.9468 31.2979 46.9468 46.9468C31.2979 46.9468 15.6489 46.9468 0 46.9468C0 31.2979 0 15.6489 0 0ZM13.7711 13.1451C15.3881 13.1451 17.0052 13.1451 18.6222 13.1451C18.6222 20.0306 18.6222 26.9162 18.6222 33.8017C17.0052 33.8017 15.3881 33.8017 13.7711 33.8017C13.7711 26.9162 13.7711 20.0306 13.7711 13.1451ZM24.0993 13.1451C27.49 13.1451 30.8805 13.1451 34.2712 13.1451C34.2712 14.397 34.2712 15.6489 34.2712 16.9008C33.2918 16.8523 32.3269 16.9046 31.3761 17.0573C31.2979 22.6385 31.2717 28.22 31.2979 33.8017C29.8373 33.8017 28.3767 33.8017 26.9162 33.8017C26.9162 28.1681 26.9162 22.5345 26.9162 16.9008C25.9772 16.9008 25.0383 16.9008 24.0993 16.9008C24.0993 15.6489 24.0993 14.397 24.0993 13.1451Z" fill="url(#paint0_linear_126_38)"/>
<path opacity="0.862" fill-rule="evenodd" clip-rule="evenodd" d="M58.0566 12.519C58.9956 12.519 59.9345 12.519 60.8734 12.519C60.8734 17.2658 60.8734 22.0128 60.8734 26.7596C59.9345 26.7596 58.9956 26.7596 58.0566 26.7596C58.0566 22.0128 58.0566 17.2658 58.0566 12.519Z" fill="url(#paint1_linear_126_38)"/>
<path opacity="0.907" fill-rule="evenodd" clip-rule="evenodd" d="M62.2832 12.519C65.1 12.519 67.9168 12.519 70.7336 12.519C70.7336 13.4059 70.7336 14.2925 70.7336 15.1794C69.7426 15.1794 68.7514 15.1794 67.7603 15.1794C67.7603 19.0395 67.7603 22.8994 67.7603 26.7596C66.8735 26.7596 65.9868 26.7596 65.1 26.7596C65.1 22.8994 65.1 19.0395 65.1 15.1794C64.1611 15.1794 63.2221 15.1794 62.2832 15.1794C62.2832 14.2925 62.2832 13.4059 62.2832 12.519Z" fill="url(#paint2_linear_126_38)"/>
<path opacity="0.895" fill-rule="evenodd" clip-rule="evenodd" d="M73.5509 12.5186C74.5822 12.4699 75.5994 12.522 76.6025 12.6751C77.771 17.3486 78.8403 22.0433 79.8105 26.7591C78.8716 26.7591 77.9326 26.7591 76.9937 26.7591C76.8981 26.038 76.7416 25.3338 76.5242 24.6465C75.5344 24.5683 74.5434 24.5423 73.5509 24.5683C73.4437 25.287 73.2872 25.9912 73.0815 26.6809C72.1381 26.8108 71.1992 26.7848 70.2646 26.6026C71.3605 21.9056 72.456 17.2109 73.5509 12.5186ZM74.9593 16.9003C75.441 18.5245 75.8061 20.1938 76.0548 21.908C75.3746 21.9339 74.6966 21.9078 74.0204 21.8297C74.4029 20.2041 74.7158 18.561 74.9593 16.9003Z" fill="url(#paint3_linear_126_38)"/>
<path opacity="0.927" fill-rule="evenodd" clip-rule="evenodd" d="M81.6875 12.519C82.5743 12.519 83.461 12.519 84.3478 12.519C84.3478 16.4313 84.3478 20.3435 84.3478 24.2557C85.7041 24.2557 87.0602 24.2557 88.4165 24.2557C88.4165 25.0903 88.4165 25.925 88.4165 26.7596C86.1736 26.7596 83.9305 26.7596 81.6875 26.7596C81.6875 22.0128 81.6875 17.2658 81.6875 12.519Z" fill="url(#paint4_linear_126_38)"/>
<path opacity="0.858" fill-rule="evenodd" clip-rule="evenodd" d="M89.8262 12.519C90.7651 12.519 91.704 12.519 92.643 12.519C92.643 17.2658 92.643 22.0128 92.643 26.7596C91.704 26.7596 90.7651 26.7596 89.8262 26.7596C89.8262 22.0128 89.8262 17.2658 89.8262 12.519Z" fill="url(#paint5_linear_126_38)"/>
<path opacity="0.887" fill-rule="evenodd" clip-rule="evenodd" d="M97.6498 12.519C98.6408 12.519 99.632 12.519 100.623 12.519C101.906 17.2134 102.949 21.9604 103.753 26.7596C102.814 26.7596 101.875 26.7596 100.936 26.7596C100.832 26.0292 100.727 25.2991 100.623 24.5687C99.632 24.5687 98.6408 24.5687 97.6498 24.5687C97.5426 25.2875 97.3861 25.9917 97.1803 26.6813C96.1893 26.7857 95.1981 26.7857 94.207 26.6813C95.2447 21.9367 96.3924 17.2161 97.6498 12.519ZM98.9017 17.0572C98.9983 17.0746 99.0765 17.1267 99.1364 17.2137C99.4741 18.7714 99.761 20.3363 99.9971 21.9084C99.3626 21.9591 98.7366 21.907 98.1193 21.7519C98.3798 20.1883 98.6405 18.6234 98.9017 17.0572Z" fill="url(#paint6_linear_126_38)"/>
<path opacity="0.883" fill-rule="evenodd" clip-rule="evenodd" d="M105.631 12.5187C106.524 12.4672 107.41 12.5195 108.291 12.6752C109.462 15.2264 110.636 17.7824 111.812 20.3431C111.89 17.7356 111.917 15.1274 111.89 12.5187C112.777 12.5187 113.664 12.5187 114.551 12.5187C114.551 17.2655 114.551 22.0124 114.551 26.7592C113.71 26.8105 112.875 26.7584 112.047 26.6027C110.79 24.1939 109.617 21.7423 108.526 19.2477C108.448 21.7511 108.422 24.2549 108.448 26.7592C107.509 26.7592 106.57 26.7592 105.631 26.7592C105.631 22.0124 105.631 17.2655 105.631 12.5187Z" fill="url(#paint7_linear_126_38)"/>
<path opacity="0.857" fill-rule="evenodd" clip-rule="evenodd" d="M57.1191 32.5498C59.8838 32.5498 62.6483 32.5498 65.413 32.5498C65.413 33.4887 65.413 34.4277 65.413 35.3666C64.4741 35.3666 63.5351 35.3666 62.5962 35.3666C62.5962 39.2267 62.5962 43.0867 62.5962 46.9468C61.6573 46.9468 60.7183 46.9468 59.7794 46.9468C59.7794 43.0867 59.7794 39.2267 59.7794 35.3666C58.8522 35.4148 57.9392 35.3627 57.0408 35.2101C56.918 34.3105 56.9441 33.4236 57.1191 32.5498Z" fill="url(#paint8_linear_126_38)"/>
<path opacity="0.899" fill-rule="evenodd" clip-rule="evenodd" d="M67.6035 32.5492C69.6879 32.2523 71.6179 32.6435 73.3936 33.7229C75.6004 35.7865 75.9916 38.1598 74.5673 40.8431C74.1158 41.2418 73.7246 41.6853 73.3936 42.1733C74.1435 43.7493 74.8216 45.3403 75.428 46.9462C74.4355 46.9722 73.4445 46.9462 72.4547 46.8679C71.9494 45.6401 71.4278 44.4144 70.8898 43.1905C70.5006 43.1463 70.0834 43.1463 69.6379 43.1905C69.6379 44.4424 69.6379 45.6943 69.6379 46.9462C68.751 46.9462 67.8644 46.9462 66.9775 46.9462C66.9775 42.1994 66.9775 37.4525 66.9775 32.7057C67.2278 32.7476 67.4364 32.6953 67.6035 32.5492ZM69.6379 35.366C72.1129 35.4621 73.0257 36.714 72.3764 39.1217C71.7589 40.148 70.8461 40.6697 69.6379 40.6866C69.6379 38.9131 69.6379 37.1395 69.6379 35.366Z" fill="url(#paint9_linear_126_38)"/>
<path opacity="0.883" fill-rule="evenodd" clip-rule="evenodd" d="M79.966 32.5498C80.9049 32.5498 81.8438 32.5498 82.7828 32.5498C84.0172 37.3044 85.1647 42.0773 86.2255 46.8686C85.2345 46.973 84.2433 46.973 83.2522 46.8686C83.071 46.226 82.9145 45.5741 82.7828 44.9125C81.7972 44.7566 80.806 44.7043 79.8095 44.756C79.6849 45.4832 79.5805 46.2135 79.4965 46.9468C78.5576 46.9468 77.6186 46.9468 76.6797 46.9468C77.4308 42.065 78.5263 37.2659 79.966 32.5498ZM81.3744 37.2445C81.8042 38.8203 82.1172 40.4373 82.3133 42.0957C81.6873 42.0957 81.0614 42.0957 80.4354 42.0957C80.6648 40.4575 80.9778 38.8405 81.3744 37.2445Z" fill="url(#paint10_linear_126_38)"/>
<path opacity="0.863" fill-rule="evenodd" clip-rule="evenodd" d="M85.7559 32.5498C88.5206 32.5498 91.2851 32.5498 94.0498 32.5498C94.0498 33.4887 94.0498 34.4277 94.0498 35.3666C93.163 35.3666 92.2763 35.3666 91.3895 35.3666C91.3895 39.2267 91.3895 43.0867 91.3895 46.9468C90.4505 46.9468 89.5116 46.9468 88.5727 46.9468C88.5727 43.0867 88.5727 39.2267 88.5727 35.3666C87.6337 35.3666 86.6948 35.3666 85.7559 35.3666C85.7559 34.4277 85.7559 33.4887 85.7559 32.5498Z" fill="url(#paint11_linear_126_38)"/>
<path opacity="0.88" fill-rule="evenodd" clip-rule="evenodd" d="M94.5195 32.5498C97.3382 32.4977 100.155 32.5498 102.97 32.7063C103.179 33.5409 103.179 34.3756 102.97 35.2101C102.037 35.366 101.098 35.4181 100.153 35.3666C100.153 39.2267 100.153 43.0867 100.153 46.9468C99.2663 46.9468 98.3797 46.9468 97.4928 46.9468C97.4928 43.0867 97.4928 39.2267 97.4928 35.3666C96.5018 35.3666 95.5106 35.3666 94.5195 35.3666C94.5195 34.4277 94.5195 33.4887 94.5195 32.5498Z" fill="url(#paint12_linear_126_38)"/>
<path opacity="0.87" fill-rule="evenodd" clip-rule="evenodd" d="M107.352 32.5502C109.323 32.3108 110.81 33.0411 111.812 34.741C113.469 37.9733 113.573 41.2596 112.125 44.5999C110.826 46.7543 108.975 47.4585 106.57 46.7125C105.088 45.9073 104.123 44.6816 103.675 43.035C103.012 40.3501 103.221 37.7419 104.301 35.2105C105.016 33.9458 106.033 33.0591 107.352 32.5502ZM107.822 35.367C108.436 35.2961 108.932 35.5047 109.308 35.993C110.656 38.5512 110.656 41.1073 109.308 43.6609C108.894 44.3279 108.346 44.5105 107.665 44.2086C106.573 43.0279 106.051 41.6195 106.1 39.9834C106.109 38.5667 106.448 37.2366 107.118 35.993C107.379 35.8 107.613 35.5913 107.822 35.367Z" fill="url(#paint13_linear_126_38)"/>
<path opacity="0.868" fill-rule="evenodd" clip-rule="evenodd" d="M115.646 32.55C117.689 32.2947 119.619 32.6339 121.437 33.5672C123.811 35.637 124.254 38.0626 122.767 40.8439C122.347 41.2376 121.956 41.655 121.593 42.0958C122.346 43.6798 123.076 45.2708 123.784 46.8688C122.741 46.9731 121.697 46.9731 120.654 46.8688C120.035 45.6115 119.461 44.3336 118.933 43.0348C118.581 43.1715 118.216 43.2238 117.837 43.1913C117.837 44.4432 117.837 45.6951 117.837 46.947C116.898 46.947 115.959 46.947 115.021 46.947C115.021 42.2002 115.021 37.4533 115.021 32.7065C115.271 32.7484 115.479 32.6961 115.646 32.55ZM117.837 35.3668C120.192 35.4888 121.104 36.6887 120.576 38.966C120.01 40.0779 119.097 40.6516 117.837 40.6874C117.837 38.9139 117.837 37.1403 117.837 35.3668Z" fill="url(#paint14_linear_126_38)"/>
<path opacity="0.849" fill-rule="evenodd" clip-rule="evenodd" d="M125.661 32.5498C126.6 32.5498 127.539 32.5498 128.478 32.5498C128.478 37.3489 128.478 42.1478 128.478 46.9468C127.539 46.9468 126.6 46.9468 125.661 46.9468C125.661 42.1478 125.661 37.3489 125.661 32.5498Z" fill="url(#paint15_linear_126_38)"/>
<path opacity="0.873" fill-rule="evenodd" clip-rule="evenodd" d="M133.486 32.5497C134.465 32.5012 135.43 32.5535 136.381 32.7062C137.772 37.3853 138.842 42.1322 139.589 46.9468C138.65 46.9468 137.711 46.9468 136.772 46.9468C136.688 46.2134 136.584 45.4831 136.459 44.7559C135.468 44.7559 134.477 44.7559 133.486 44.7559C133.379 45.4747 133.222 46.1789 133.016 46.8685C132.025 46.9729 131.034 46.9729 130.043 46.8685C131.104 42.0773 132.251 37.3044 133.486 32.5497ZM134.738 37.2444C134.983 37.4292 135.113 37.6899 135.129 38.0269C135.394 39.3797 135.629 40.736 135.833 42.0956C135.205 42.1216 134.579 42.0954 133.955 42.0173C134.286 40.4428 134.547 38.8517 134.738 37.2444Z" fill="url(#paint16_linear_126_38)"/>
<defs>
<linearGradient id="paint0_linear_126_38" x1="-41.4807" y1="-44.5149" x2="49.082" y2="-39.2376" gradientUnits="userSpaceOnUse">
<stop offset="0.539916" stop-color="#E1B570"/>
<stop offset="1" stop-color="#F1E2C9"/>
</linearGradient>
<linearGradient id="paint1_linear_126_38" x1="55.5678" y1="-0.983795" x2="61.0193" y2="-0.920959" gradientUnits="userSpaceOnUse">
<stop offset="0.539916" stop-color="#E1B570"/>
<stop offset="1" stop-color="#F1E2C9"/>
</linearGradient>
<linearGradient id="paint2_linear_126_38" x1="54.8167" y1="-0.983795" x2="71.1538" y2="-0.418874" gradientUnits="userSpaceOnUse">
<stop offset="0.539916" stop-color="#E1B570"/>
<stop offset="1" stop-color="#F1E2C9"/>
</linearGradient>
<linearGradient id="paint3_linear_126_38" x1="61.8302" y1="-1.02133" x2="80.2791" y2="-0.301731" gradientUnits="userSpaceOnUse">
<stop offset="0.539916" stop-color="#E1B570"/>
<stop offset="1" stop-color="#F1E2C9"/>
</linearGradient>
<linearGradient id="paint4_linear_126_38" x1="75.7419" y1="-0.983795" x2="88.7568" y2="-0.625429" gradientUnits="userSpaceOnUse">
<stop offset="0.539916" stop-color="#E1B570"/>
<stop offset="1" stop-color="#F1E2C9"/>
</linearGradient>
<linearGradient id="paint5_linear_126_38" x1="87.3373" y1="-0.983795" x2="92.7888" y2="-0.920959" gradientUnits="userSpaceOnUse">
<stop offset="0.539916" stop-color="#E1B570"/>
<stop offset="1" stop-color="#F1E2C9"/>
</linearGradient>
<linearGradient id="paint6_linear_126_38" x1="85.7726" y1="-0.983832" x2="104.221" y2="-0.263196" gradientUnits="userSpaceOnUse">
<stop offset="0.539916" stop-color="#E1B570"/>
<stop offset="1" stop-color="#F1E2C9"/>
</linearGradient>
<linearGradient id="paint7_linear_126_38" x1="97.7495" y1="-1.03961" x2="114.992" y2="-0.411944" gradientUnits="userSpaceOnUse">
<stop offset="0.539916" stop-color="#E1B570"/>
<stop offset="1" stop-color="#F1E2C9"/>
</linearGradient>
<linearGradient id="paint8_linear_126_38" x1="49.5003" y1="18.8986" x2="65.8335" y2="19.4571" gradientUnits="userSpaceOnUse">
<stop offset="0.539916" stop-color="#E1B570"/>
<stop offset="1" stop-color="#F1E2C9"/>
</linearGradient>
<linearGradient id="paint9_linear_126_38" x1="59.511" y1="18.7016" x2="75.8488" y2="19.2563" gradientUnits="userSpaceOnUse">
<stop offset="0.539916" stop-color="#E1B570"/>
<stop offset="1" stop-color="#F1E2C9"/>
</linearGradient>
<linearGradient id="paint10_linear_126_38" x1="68.2453" y1="18.8985" x2="86.6947" y2="19.6114" gradientUnits="userSpaceOnUse">
<stop offset="0.539916" stop-color="#E1B570"/>
<stop offset="1" stop-color="#F1E2C9"/>
</linearGradient>
<linearGradient id="paint11_linear_126_38" x1="78.4276" y1="18.8986" x2="94.4633" y2="19.4369" gradientUnits="userSpaceOnUse">
<stop offset="0.539916" stop-color="#E1B570"/>
<stop offset="1" stop-color="#F1E2C9"/>
</linearGradient>
<linearGradient id="paint12_linear_126_38" x1="86.9148" y1="18.8605" x2="103.554" y2="19.4394" gradientUnits="userSpaceOnUse">
<stop offset="0.539916" stop-color="#E1B570"/>
<stop offset="1" stop-color="#F1E2C9"/>
</linearGradient>
<linearGradient id="paint13_linear_126_38" x1="94.6013" y1="18.7623" x2="113.621" y2="19.5148" gradientUnits="userSpaceOnUse">
<stop offset="0.539916" stop-color="#E1B570"/>
<stop offset="1" stop-color="#F1E2C9"/>
</linearGradient>
<linearGradient id="paint14_linear_126_38" x1="107.277" y1="18.7386" x2="124.219" y2="19.3361" gradientUnits="userSpaceOnUse">
<stop offset="0.539916" stop-color="#E1B570"/>
<stop offset="1" stop-color="#F1E2C9"/>
</linearGradient>
<linearGradient id="paint15_linear_126_38" x1="123.172" y1="18.8986" x2="128.624" y2="18.9607" gradientUnits="userSpaceOnUse">
<stop offset="0.539916" stop-color="#E1B570"/>
<stop offset="1" stop-color="#F1E2C9"/>
</linearGradient>
<linearGradient id="paint16_linear_126_38" x1="121.609" y1="18.8644" x2="140.058" y2="19.5763" gradientUnits="userSpaceOnUse">
<stop offset="0.539916" stop-color="#E1B570"/>
<stop offset="1" stop-color="#F1E2C9"/>
</linearGradient>
</defs>
</svg>
