<svg width="16" height="16" viewBox="0 0 16 16" fill="none" xmlns="http://www.w3.org/2000/svg">
<g clip-path="url(#clip0_530_2500)">
<path d="M7 14C3.14 14 0 10.86 0 7C0 3.14 3.14 0 7 0C10.86 0 14 3.14 14 7C14 10.86 10.86 14 7 14ZM7 2C4.243 2 2 4.243 2 7C2 9.757 4.243 12 7 12C9.757 12 12 9.757 12 7C12 4.243 9.757 2 7 2Z" fill="#3C3EAE"/>
<path d="M15.7069 14.293L13.3139 11.9C12.9029 12.429 12.4289 12.903 11.8999 13.314L14.2929 15.707C14.4879 15.902 14.7439 16 14.9999 16C15.2559 16 15.5119 15.902 15.7069 15.707C16.0979 15.316 16.0979 14.684 15.7069 14.293Z" fill="#3C3EAE"/>
</g>
<defs>
<clipPath id="clip0_530_2500">
<rect width="16" height="16" fill="white"/>
</clipPath>
</defs>
</svg>
