<svg width="159" height="33" viewBox="0 0 159 33" fill="none" xmlns="http://www.w3.org/2000/svg">
<mask id="mask0_301_55" style="mask-type:luminance" maskUnits="userSpaceOnUse" x="0" y="0" width="159" height="33">
<path d="M0 -0.00019361H159V32.5337H0V-0.00019361Z" fill="white"/>
</mask>
<g mask="url(#mask0_301_55)">
<path d="M23.3381 10.109C18.7304 10.109 15.5107 13.7232 15.5107 18.1372C15.5107 22.5212 18.7894 26.0762 22.8065 26.0762C24.6379 26.0762 26.2917 25.4245 27.4438 24.1506V25.7503H31.1358V18.1372C31.1358 13.7232 27.9162 10.109 23.3381 10.109ZM23.3381 22.4622C21.1819 22.4622 19.4392 20.5959 19.4392 18.1667C19.4392 15.6487 21.1819 13.7824 23.3381 13.7824C25.4941 13.7824 27.2371 15.7374 27.2371 18.1667C27.2371 20.5367 25.4941 22.4622 23.3381 22.4622Z" fill="url(#paint0_linear_301_55)"/>
<path d="M32.0811 16.9221V25.75H35.98V16.9221C35.98 14.7595 37.6341 13.4264 40.1152 13.8707V10.1975C35.0644 9.57553 32.0811 12.597 32.0811 16.9221Z" fill="url(#paint1_linear_301_55)"/>
<path d="M49.4018 10.168C47.6298 10.168 46.1233 10.7308 44.9712 11.9455V3.71004H41.043V18.1369C41.043 22.5506 44.2625 26.1055 48.8702 26.1055C53.4484 26.1055 56.6678 22.5506 56.6678 18.1369C56.6678 13.7524 53.4189 10.168 49.4018 10.168ZM48.8702 22.462C46.714 22.462 44.9712 20.5364 44.9712 18.1665C44.9712 15.7371 46.714 13.7821 48.8702 13.7821C51.0264 13.7821 52.7691 15.6486 52.7691 18.1665C52.7691 20.5956 51.0264 22.462 48.8702 22.462Z" fill="url(#paint2_linear_301_55)"/>
<path d="M65.0718 10.1093C60.848 10.1093 57.4219 13.5751 57.4219 18.1374C57.4219 22.6994 60.848 26.106 65.0718 26.106C69.2957 26.106 72.7514 22.6994 72.7514 18.1374C72.7514 13.5751 69.2957 10.1093 65.0718 10.1093ZM65.0718 22.5214C63.0043 22.5214 61.3205 20.7442 61.3205 18.167C61.3205 15.5305 63.0043 13.6938 65.0718 13.6938C67.1394 13.6938 68.8231 15.5305 68.8231 18.167C68.8231 20.7442 67.1394 22.5214 65.0718 22.5214Z" fill="url(#paint3_linear_301_55)"/>
<path d="M80.3408 10.1087C76.2056 10.1087 73.4883 13.0416 73.4883 16.9221V25.75H77.3872V16.8333C77.3872 15.115 78.6278 13.9303 80.3408 13.9303C82.9105 13.9303 83.2058 15.9743 83.2058 16.8333V25.75H87.1048V16.9221C87.1048 12.9229 84.5942 10.1087 80.3408 10.1087Z" fill="url(#paint4_linear_301_55)"/>
<path d="M136.872 10.1088C132.264 10.1088 129.045 13.6933 129.045 18.0775V32.5337H132.973V24.2984C134.125 25.4835 135.631 26.0759 137.404 26.0759C141.421 26.0759 144.67 22.4914 144.67 18.0775C144.67 13.6933 141.45 10.1088 136.872 10.1088ZM136.872 22.462C134.716 22.462 132.973 20.5065 132.973 18.0775C132.973 15.7075 134.716 13.7822 136.872 13.7822C139.028 13.7822 140.771 15.6187 140.771 18.0775C140.771 20.5658 139.028 22.462 136.872 22.462Z" fill="url(#paint5_linear_301_55)"/>
<path d="M104.93 -0.000569698C101.299 -0.000569698 98.7624 2.26073 98.2217 5.46346C97.3571 5.10256 96.3589 4.9055 95.2383 4.9055C91.1031 4.9055 88.3857 7.83846 88.3857 11.719V25.749H92.2847V11.6302C92.2847 9.91192 93.5254 8.72706 95.2383 8.72706C97.808 8.72706 98.1033 10.7711 98.1033 11.6302V25.749H102.002V11.719C102.002 11.4891 101.993 11.2636 101.977 11.042V6.72399C101.977 5.00576 103.217 3.82099 104.93 3.82099C107.5 3.82099 107.795 5.86497 107.795 6.72399V25.7489H111.694V6.81282C111.694 2.8136 109.184 -0.000569698 104.93 -0.000569698Z" fill="url(#paint6_linear_301_55)"/>
<path d="M120.312 10.1086C115.704 10.1086 112.484 13.7227 112.484 18.1367C112.484 22.5207 115.763 26.0757 119.78 26.0757C121.612 26.0757 123.265 25.424 124.417 24.1501V25.7498H128.109V18.1367C128.109 13.7227 124.89 10.1086 120.312 10.1086ZM120.312 22.4617C118.156 22.4617 116.413 20.5954 116.413 18.1663C116.413 15.6483 118.156 13.7819 120.312 13.7819C122.468 13.7819 124.211 15.7369 124.211 18.1663C124.211 20.5362 122.468 22.4617 120.312 22.4617Z" fill="url(#paint7_linear_301_55)"/>
<path d="M159 20.8735C159 17.548 156.277 16.7165 152.487 16.0932C150.593 15.7962 149.319 15.529 149.319 14.757C149.319 14.1632 150.207 13.51 152.013 13.51C153.464 13.51 154.323 14.1929 154.56 14.7866H158.616C158.112 11.9065 155.507 10.0062 152.013 10.0062C147.602 10.0062 145.5 12.5004 145.5 14.9053C145.5 18.32 149.142 19.0327 151.866 19.4483C154.53 19.8639 155.211 20.2499 155.211 21.1109C155.211 21.8831 153.879 22.4769 152.31 22.4769C151.155 22.4769 149.615 21.9128 149.053 20.6954H145.086C145.559 24.0209 148.431 26.0698 152.31 26.0698C156.217 26.0698 159 23.9022 159 20.8735Z" fill="url(#paint8_linear_301_55)"/>
<path d="M15.2469 20.4909H11.0726C10.5693 21.5597 9.32593 22.4506 7.87508 22.4506C5.71404 22.4506 3.96722 20.4613 3.96722 18.056C3.96722 15.5917 5.71404 13.5725 7.87508 13.5725C9.29615 13.5725 10.51 14.4634 11.043 15.5027H15.2174C14.329 12.0582 11.5462 9.9799 7.87508 9.9799C3.28633 9.9799 0 13.6024 0 18.0264C0 22.4506 3.28633 26.0137 7.87508 26.0137C11.5757 26.0137 14.3588 23.9648 15.2469 20.4909Z" fill="url(#paint9_linear_301_55)"/>
</g>
<defs>
<linearGradient id="paint0_linear_301_55" x1="1.70496" y1="41.2162" x2="31.8507" y2="39.4972" gradientUnits="userSpaceOnUse">
<stop offset="0.539916" stop-color="#E1B570"/>
<stop offset="1" stop-color="#F1E2C9"/>
</linearGradient>
<linearGradient id="paint1_linear_301_55" x1="24.9823" y1="40.5738" x2="40.5193" y2="40.1085" gradientUnits="userSpaceOnUse">
<stop offset="0.539916" stop-color="#E1B570"/>
<stop offset="1" stop-color="#F1E2C9"/>
</linearGradient>
<linearGradient id="paint2_linear_301_55" x1="27.2374" y1="47.3408" x2="57.4309" y2="46.1132" gradientUnits="userSpaceOnUse">
<stop offset="0.539916" stop-color="#E1B570"/>
<stop offset="1" stop-color="#F1E2C9"/>
</linearGradient>
<linearGradient id="paint3_linear_301_55" x1="43.8772" y1="41.274" x2="73.4568" y2="39.6222" gradientUnits="userSpaceOnUse">
<stop offset="0.539916" stop-color="#E1B570"/>
<stop offset="1" stop-color="#F1E2C9"/>
</linearGradient>
<linearGradient id="paint4_linear_301_55" x1="61.4572" y1="40.581" x2="87.7456" y2="39.2475" gradientUnits="userSpaceOnUse">
<stop offset="0.539916" stop-color="#E1B570"/>
<stop offset="1" stop-color="#F1E2C9"/>
</linearGradient>
<linearGradient id="paint5_linear_301_55" x1="115.239" y1="53.7969" x2="145.433" y2="52.571" gradientUnits="userSpaceOnUse">
<stop offset="0.539916" stop-color="#E1B570"/>
<stop offset="1" stop-color="#F1E2C9"/>
</linearGradient>
<linearGradient id="paint6_linear_301_55" x1="67.7912" y1="50.1647" x2="112.782" y2="47.7916" gradientUnits="userSpaceOnUse">
<stop offset="0.539916" stop-color="#E1B570"/>
<stop offset="1" stop-color="#F1E2C9"/>
</linearGradient>
<linearGradient id="paint7_linear_301_55" x1="98.6786" y1="41.2157" x2="128.824" y2="39.4967" gradientUnits="userSpaceOnUse">
<stop offset="0.539916" stop-color="#E1B570"/>
<stop offset="1" stop-color="#F1E2C9"/>
</linearGradient>
<linearGradient id="paint8_linear_301_55" x1="132.792" y1="41.3013" x2="159.656" y2="39.9453" gradientUnits="userSpaceOnUse">
<stop offset="0.539916" stop-color="#E1B570"/>
<stop offset="1" stop-color="#F1E2C9"/>
</linearGradient>
<linearGradient id="paint9_linear_301_55" x1="-13.4717" y1="41.2169" x2="15.9499" y2="39.5865" gradientUnits="userSpaceOnUse">
<stop offset="0.539916" stop-color="#E1B570"/>
<stop offset="1" stop-color="#F1E2C9"/>
</linearGradient>
</defs>
</svg>
