<svg width="110" height="44" viewBox="0 0 110 44" fill="none" xmlns="http://www.w3.org/2000/svg">
<path d="M30.6926 2.47139C29.7187 4.1356 29.8337 6.11897 30.8306 7.63119C31.3751 8.4595 31.3981 9.51577 30.8996 10.3669L30.6236 10.8305C30.1251 11.6739 29.1051 12.0766 28.1619 11.7955C27.1725 11.5068 26.1219 11.3472 25.0406 11.3472C19.8871 11.3472 15.5772 14.8808 14.4728 19.6226C14.2504 20.5724 13.3762 21.2412 12.3869 21.2412H11.8884C10.8761 21.2412 9.95583 20.6713 9.49567 19.7898C8.6751 18.2015 7.01094 17.1073 5.07836 17.0845C2.34823 17.0541 0.0628848 19.2123 0.00153332 21.9023C-0.0674871 24.6836 2.20251 26.9634 5.01702 26.9634C6.96493 26.9634 8.65976 25.8691 9.488 24.2657C9.94048 23.3918 10.8608 22.8371 11.8653 22.8371H12.3945C13.3838 22.8371 14.2581 23.5058 14.4805 24.4557C15.6002 29.1747 19.9024 32.6931 25.0406 32.6931C26.1449 32.6931 27.2186 32.5335 28.2232 32.2295C29.1741 31.9408 30.2018 32.3435 30.7003 33.187L30.9457 33.6049C31.4518 34.4713 31.4135 35.5352 30.8613 36.3711C29.872 37.8605 29.7417 39.8287 30.6926 41.4853C32.027 43.8258 35.0715 44.6921 37.472 43.4002C39.9567 42.0628 40.8233 38.9928 39.4122 36.599C38.4382 34.9348 36.6283 34.0457 34.8031 34.137C33.8062 34.1902 32.8629 33.681 32.3567 32.8222L32.0883 32.3663C31.5898 31.5152 31.7586 30.4438 32.4794 29.775C34.573 27.8296 35.8844 25.0712 35.8844 22.0163C35.8844 18.9387 34.5577 16.165 32.4411 14.212C31.7126 13.5433 31.5362 12.4642 32.0424 11.6132L32.2954 11.18C32.8015 10.3137 33.7602 9.81972 34.7725 9.87292C36.5824 9.97177 38.3769 9.09782 39.3585 7.46401C40.7543 5.15388 39.9874 2.12943 37.656 0.731192C35.2327 -0.72784 32.096 0.0700676 30.6926 2.47139ZM31.8813 21.9555C31.9119 25.7246 28.806 28.7871 24.9793 28.7567C21.2598 28.7263 18.2229 25.7399 18.1922 22.0771C18.1615 18.3079 21.2674 15.2455 25.0943 15.2759C28.806 15.3063 31.8506 18.3004 31.8813 21.9555Z" fill="url(#paint0_linear_89_2212)"/>
<path d="M51.0261 29.6801V24.2191C51.0261 23.1223 51.3858 22.3378 52.1052 21.8656C52.8402 21.3781 53.6691 21.1953 54.5918 21.3172V18.0269C53.7629 18.0269 53.0279 18.2135 52.3867 18.5867C51.7455 18.9599 51.292 19.5045 51.0261 20.2204V18.2554H48V29.6801H51.0261ZM62.1922 30C63.9438 30 65.4138 29.4211 66.6023 28.2634C67.8065 27.0905 68.4086 25.6586 68.4086 23.9677C68.4086 22.2921 67.8065 20.8678 66.6023 19.6949C65.3982 18.522 63.9281 17.9355 62.1922 17.9355C60.4563 17.9355 58.9863 18.522 57.7821 19.6949C56.5935 20.8526 55.9992 22.2769 55.9992 23.9677C55.9992 25.6738 56.5935 27.1057 57.7821 28.2634C58.9706 29.4211 60.4407 30 62.1922 30ZM62.1922 27.121C61.2852 27.121 60.5267 26.8239 59.9168 26.2298C59.3225 25.6205 59.0253 24.8665 59.0253 23.9677C59.0253 23.069 59.3225 22.315 59.9168 21.7056C60.5267 21.1116 61.2852 20.8145 62.1922 20.8145C63.0993 20.8145 63.8577 21.1116 64.4676 21.7056C65.0776 22.2997 65.3825 23.0538 65.3825 23.9677C65.3825 24.8817 65.0776 25.6358 64.4676 26.2298C63.8577 26.8239 63.0993 27.121 62.1922 27.121ZM74.2732 29.6801V13H71.2471V29.6801H74.2732ZM80.7711 29.6801V13H77.745V29.6801H80.7711ZM90.0605 30C92.3125 30 94.0172 29.185 95.1744 27.5551L92.7348 26.1841C92.1405 26.9458 91.2647 27.3266 90.1075 27.3266C88.2934 27.3266 87.1908 26.6107 86.7998 25.1788H95.6436C95.7218 24.6913 95.7609 24.2876 95.7609 23.9677C95.7609 22.2616 95.1979 20.8298 94.0719 19.672C92.9772 18.5143 91.5619 17.9355 89.826 17.9355C87.9962 17.9355 86.5105 18.5143 85.3689 19.672C84.2116 20.8298 83.633 22.2616 83.633 23.9677C83.633 25.7043 84.2194 27.1438 85.3924 28.2863C86.5653 29.4288 88.1213 30 90.0605 30ZM92.7348 22.8938H86.7529C86.925 22.1626 87.2768 21.5952 87.8085 21.1915C88.3403 20.7879 89.0127 20.586 89.826 20.586C90.5453 20.586 91.167 20.7841 91.6909 21.1801C92.2148 21.5762 92.5627 22.1474 92.7348 22.8938ZM104.3 30C106.552 30 108.256 29.185 109.414 27.5551L106.974 26.1841C106.38 26.9458 105.504 27.3266 104.347 27.3266C102.532 27.3266 101.43 26.6107 101.039 25.1788H109.883C109.961 24.6913 110 24.2876 110 23.9677C110 22.2616 109.437 20.8298 108.311 19.672C107.216 18.5143 105.801 17.9355 104.065 17.9355C102.235 17.9355 100.75 18.5143 99.608 19.672C98.4507 20.8298 97.8721 22.2616 97.8721 23.9677C97.8721 25.7043 98.4586 27.1438 99.6315 28.2863C100.804 29.4288 102.36 30 104.3 30ZM106.974 22.8938H100.992C101.164 22.1626 101.516 21.5952 102.048 21.1915C102.579 20.7879 103.252 20.586 104.065 20.586C104.784 20.586 105.406 20.7841 105.93 21.1801C106.454 21.5762 106.802 22.1474 106.974 22.8938Z" fill="url(#paint1_linear_89_2212)"/>
<defs>
<linearGradient id="paint0_linear_89_2212" x1="-35.4213" y1="-41.7207" x2="41.9567" y2="-37.6125" gradientUnits="userSpaceOnUse">
<stop offset="0.539916" stop-color="#E1B570"/>
<stop offset="1" stop-color="#F1E2C9"/>
</linearGradient>
<linearGradient id="paint1_linear_89_2212" x1="-6.78128" y1="-3.11937" x2="108.04" y2="21.2827" gradientUnits="userSpaceOnUse">
<stop offset="0.539916" stop-color="#E1B570"/>
<stop offset="1" stop-color="#F1E2C9"/>
</linearGradient>
</defs>
</svg>
