<svg width="89" height="40" viewBox="0 0 89 40" fill="none" xmlns="http://www.w3.org/2000/svg">
<path d="M60.506 7.16972C57.5734 7.01184 54.7238 8.15417 52.6857 10.2809C52.5105 10.4853 52.3906 10.736 52.3445 11.0053L49.0706 27.1744C49.0153 27.4623 49.0337 27.7502 49.1352 28.0288C49.624 29.2454 50.5001 30.267 51.6344 30.9171C53.7093 32.1059 56.3561 32.2266 58.6801 31.9851C60.5337 31.7994 62.3873 31.2515 63.8998 30.1277C65.6151 28.8554 66.6203 26.9608 67.0445 24.8897L68.7875 16.2805C69.8849 10.6617 67.3396 7.16972 60.506 7.16972ZM61.4467 15.3332L59.7498 23.8681C59.4271 25.6048 58.7169 26.2178 57.6287 26.2178C56.5313 26.2178 55.9872 25.642 56.3284 23.8681L58.0068 15.0824C58.3296 13.4293 59.0858 12.8535 60.0818 12.8535C61.0686 12.8535 61.8248 13.4293 61.4467 15.3332ZM79.8448 7.16972C75.7409 7.16972 72.6608 8.84142 71.0377 11.6554C70.8809 11.9433 70.8163 12.287 70.8717 12.612C71.176 14.3766 70.7333 16.3083 70.4013 18.0265C70.097 19.6053 69.7835 21.1934 69.4791 22.7722C69.2025 24.1839 68.9811 25.5212 68.4463 26.8679C68.3171 27.1837 68.3171 27.5459 68.4463 27.8616C68.9258 29.0782 69.8665 30.2577 71.0008 30.9078C73.0665 32.0873 75.6764 32.208 77.9911 31.9851C79.8448 31.8087 81.6892 31.27 83.2108 30.1648C84.9538 28.8925 85.9867 26.9886 86.4109 24.8804L88.1539 16.2712C89.2329 10.6617 86.623 7.16972 79.8448 7.16972ZM80.7854 15.3332L79.0886 23.8681C78.7658 25.6048 78.0557 26.2178 76.9675 26.2178C75.8701 26.2178 75.326 25.642 75.6672 23.8681L77.4101 15.0824C77.7329 13.4293 78.4891 12.8535 79.4851 12.8535C80.4719 12.8535 81.1635 13.4293 80.7854 15.3332ZM18.0936 20.4504C18.0106 20.4133 17.9276 20.3947 17.8354 20.3947H12.7725C12.4681 20.3854 12.2007 20.6083 12.1454 20.9055L11.5736 23.7845C11.2508 25.5584 10.8174 26.2085 9.54472 26.2085C8.27207 26.2085 7.94008 25.5955 8.31818 23.5802L9.92283 15.5468C10.3563 13.3179 10.8266 12.7792 12.1361 12.7792C13.4457 12.7792 13.6486 13.355 13.2151 15.5839L12.837 17.4785C12.7356 17.8221 12.9292 18.1751 13.2704 18.2772C13.3258 18.3051 19.8827 18.3144 19.8827 18.3144C20.187 18.3144 20.4452 18.1008 20.5098 17.8036C20.7127 16.7263 20.9893 15.6397 21.0447 14.5345C21.1 13.4014 20.9525 12.2591 20.602 11.1725C19.6245 8.54423 17.0146 7.16972 12.505 7.16972C7.13775 7.16972 3.51347 9.92802 2.6097 14.3394L0.866726 23.1159C0.165847 26.71 0.866727 29.4683 3.47658 30.9914C4.96134 31.8551 6.72276 32.0502 8.4104 32.1059C10.0888 32.1616 11.7119 32.0873 13.3073 31.5115C14.5062 31.0843 15.7051 30.397 16.6642 29.5426C16.8394 29.3847 16.9316 29.1433 16.8947 28.9018C16.6826 27.6016 16.8302 26.3199 17.0884 25.0383C17.3466 23.7381 17.7524 22.5122 18.4164 21.2956C18.5732 20.9984 18.4072 20.5897 18.0936 20.4504ZM35.5971 31.9944C35.9476 31.9944 36.2519 31.7437 36.3165 31.3908C36.6577 29.7098 37.0819 27.6202 37.4231 25.9392C38.0133 23.0137 38.6035 20.0882 39.1845 17.1535C39.4981 15.5746 39.9592 14.0051 39.8485 12.3798C39.5995 8.86928 37.1096 7.16972 31.8991 7.16972C27.4356 7.16972 24.4107 8.69283 22.843 11.2747C22.7784 11.3861 22.7784 11.5068 22.7969 11.6369V11.6554C23.0643 12.9928 23.1658 14.2837 22.9813 15.6397C22.9352 15.9833 23.1658 16.3083 23.507 16.3548C23.5439 16.3641 28.4961 16.3641 28.4961 16.3641C28.7451 16.3362 28.9572 16.1597 29.031 15.9183L29.2892 14.3952C29.6305 12.8163 30.276 12.3706 31.272 12.3706C32.8766 12.3706 32.8582 14.4602 32.2587 15.5375C31.5948 16.7263 29.5475 17.2092 28.3394 17.4414C26.1998 17.8686 24.1433 18.6023 22.2159 19.6239C20.5559 20.5062 19.6983 22.4286 19.274 24.1746C18.8406 25.9577 18.4072 28.0567 19.1818 29.8119C19.8827 31.4 21.5888 31.9294 23.1842 32.0502C24.3093 32.143 25.4621 32.1523 26.5595 31.8273C27.5463 31.5301 28.4685 31.01 29.2155 30.3042C29.4829 30.0534 29.7503 29.7562 29.9717 29.459C29.9993 29.4126 30.0639 29.394 30.11 29.4219C30.1284 29.4312 30.1377 29.4497 30.1469 29.459C30.4328 31.0843 31.7146 31.9944 34.5735 31.9944C34.5827 31.9944 35.5971 31.9944 35.5971 31.9944ZM31.4288 20.1625L30.5342 24.769C30.193 26.2085 29.4921 26.9608 28.3209 26.9608C27.1497 26.9608 26.8085 26.2549 27.0206 24.9362L27.2511 23.8217C27.5924 22.4193 27.8229 21.955 28.4408 21.472C29.0402 21.0448 29.7134 20.7383 30.4235 20.5619C30.7463 20.469 31.0507 20.3111 31.3089 20.0882C31.3734 20.0139 31.438 20.0604 31.4288 20.1625ZM47.4844 6.6775C50.5001 6.6775 51.7358 5.8788 52.243 3.33411C52.7502 0.789413 51.6252 0 48.5173 0C45.4095 0 44.2751 0.696541 43.7679 3.33411C43.233 5.77664 44.1829 6.6775 47.4844 6.6775Z" fill="url(#paint0_linear_89_2184)"/>
<path d="M50.8688 8.30283C50.7766 7.96849 50.4262 7.77346 50.0942 7.86633C49.1166 8.11708 48.1114 8.2471 47.1062 8.23782C46.018 8.27496 44.939 8.14494 43.8877 7.86633C43.8693 7.85704 43.8508 7.85704 43.8324 7.84775C43.4912 7.75488 43.1315 7.94991 43.0301 8.30283L38.1792 32.1245C37.838 33.3969 37.4599 33.6848 36.2887 33.6848L34.6195 33.6476C34.3152 33.6476 34.057 33.8612 33.9924 34.1584L32.978 39.2292C32.9687 39.2664 32.9688 39.3128 32.9688 39.3592C32.9688 39.7122 33.2546 40.0001 33.6051 40.0001H36.6853C42.3292 40.0001 44.8191 38.3841 45.8059 33.3597L50.8781 8.60002C50.8965 8.50715 50.8965 8.3957 50.8688 8.30283Z" fill="url(#paint1_linear_89_2184)"/>
<defs>
<linearGradient id="paint0_linear_89_2184" x1="-76.9464" y1="-30.4573" x2="88.7545" y2="-4.07095" gradientUnits="userSpaceOnUse">
<stop offset="0.539916" stop-color="#E1B570"/>
<stop offset="1" stop-color="#F1E2C9"/>
</linearGradient>
<linearGradient id="paint1_linear_89_2184" x1="17.1333" y1="-22.6839" x2="51.7869" y2="-21.5591" gradientUnits="userSpaceOnUse">
<stop offset="0.539916" stop-color="#E1B570"/>
<stop offset="1" stop-color="#F1E2C9"/>
</linearGradient>
</defs>
</svg>
