<svg width="70" height="80" viewBox="0 0 70 80" fill="none" xmlns="http://www.w3.org/2000/svg">
<path fill-rule="evenodd" clip-rule="evenodd" d="M60.8879 24.4065C59.7589 24.4047 58.6397 24.6152 57.5895 25.0264L52.7612 26.8467V9.03411C52.7587 6.63882 51.7988 4.34228 50.0917 2.64856C48.3847 0.954826 46.0702 0.00228625 43.656 0C42.5367 0.00313119 41.4275 0.207943 40.3819 0.604462L5.91805 13.5573C4.18335 14.2053 2.6883 15.3615 1.63131 16.8723C0.574327 18.3831 0.00538625 20.1771 0 22.0162V56.4412C0.00222107 57.8997 0.360117 59.3361 1.04313 60.6276C1.72616 61.9192 2.714 63.0275 3.92235 63.858C5.13072 64.6887 6.52368 65.2166 7.98236 65.3972C9.44107 65.5778 10.9221 65.4056 12.299 64.8951L17.2162 63.0523L17.232 70.608C17.2379 73.0006 18.1997 75.2933 19.9064 76.9835C21.6132 78.6737 23.9257 79.6236 26.3371 79.6249C27.4626 79.6282 28.5787 79.421 29.6267 79.0136L64.0907 66.0712C65.8223 65.4186 67.3141 64.2606 68.3689 62.7498C69.4239 61.2392 69.9926 59.4466 70 57.6087V33.4405C69.9973 31.0442 69.0361 28.7469 67.3277 27.0531C65.6192 25.3592 63.3031 24.4073 60.8879 24.4065Z" fill="url(#paint0_linear_301_129)"/>
<path fill-rule="evenodd" clip-rule="evenodd" d="M59.0391 28.7258C59.6276 28.4957 60.2549 28.3785 60.8876 28.3804C62.2388 28.3836 63.5338 28.9178 64.4889 29.8662C65.4442 30.8146 65.9817 32.0998 65.984 33.4406V57.6017C65.9798 58.6335 65.6599 59.6396 65.0665 60.4868C64.4732 61.334 63.6343 61.9824 62.6612 62.3459L28.1851 75.3142C27.5965 75.5443 26.9693 75.6615 26.3366 75.6595C24.9852 75.6591 23.6892 75.1268 22.7328 74.1796C21.7763 73.2323 21.2376 71.9472 21.2349 70.6063L21.2036 57.3082L10.8905 61.1767C10.1192 61.4613 9.29008 61.557 8.47358 61.4552C7.6571 61.3535 6.87748 61.0575 6.2011 60.5925C5.52473 60.1274 4.97162 59.507 4.5889 58.7843C4.20616 58.0615 4.00513 57.2577 4.00293 56.4412V22.0163C4.00667 20.9855 4.3266 19.9803 4.92017 19.1344C5.51373 18.2885 6.35278 17.642 7.32574 17.2807L41.8071 4.31766C42.5801 4.02079 43.4145 3.9151 44.2379 4.00971C45.0613 4.10434 45.8492 4.39642 46.5335 4.86074C47.2177 5.32507 47.7777 5.94767 48.1651 6.6748C48.5526 7.40191 48.7558 8.21168 48.7573 9.03415V32.5944L59.0391 28.7258ZM11.9704 58.4141C12.3744 57.834 12.5918 57.1463 12.5945 56.4412V49.7386C12.5899 48.741 12.8813 47.7644 13.4327 46.9301C13.9839 46.096 14.7706 45.4414 15.6944 45.048C15.7426 45.028 15.7907 45.0101 15.8389 44.9924C15.8865 44.9748 15.934 44.9572 15.9816 44.9375L47.1559 33.2023V9.03415C47.1549 8.11335 46.7858 7.23049 46.1295 6.57938C45.4733 5.92825 44.5836 5.56203 43.6555 5.56112C43.22 5.56017 42.7882 5.64105 42.3831 5.79945L7.88611 18.766C7.21777 19.0133 6.64129 19.4568 6.23358 20.0375C5.82587 20.6184 5.60631 21.3086 5.60417 22.0163V56.4412C5.60694 57.3621 5.97808 58.2444 6.63607 58.894C7.29403 59.5436 8.18501 59.9074 9.11324 59.9056C9.52887 59.9056 9.94126 59.8331 10.3317 59.6915C10.9953 59.4395 11.5666 58.9942 11.9704 58.4141ZM13.7887 58.3875C14.054 57.7722 14.1924 57.1105 14.196 56.4412V49.7386C14.1937 49.056 14.3926 48.3876 14.7684 47.816C15.1442 47.2443 15.6805 46.7942 16.3109 46.5212L16.5267 46.4416C16.9049 46.3228 17.2997 46.2645 17.6964 46.269C18.1558 46.2676 18.6109 46.3565 19.0355 46.5304C19.46 46.7044 19.8457 46.9599 20.1703 47.2824C20.4948 47.6049 20.7519 47.9881 20.9265 48.4097C21.1013 48.8312 21.1902 49.2827 21.1881 49.7386L21.2037 55.6106L13.7887 58.3875ZM63.7569 59.5864C64.1645 59.0057 64.3845 58.3161 64.3879 57.6087V33.4406C64.387 32.5199 64.0178 31.6372 63.3614 30.9864C62.7052 30.3355 61.8154 29.9697 60.8875 29.9692C60.452 29.9676 60.02 30.0485 59.6151 30.2076L19.8894 45.1793C20.7576 45.5895 21.4909 46.2356 22.0041 47.0426C22.5173 47.8496 22.7896 48.7843 22.7891 49.7386L22.8362 70.5994C22.8374 71.1639 22.9771 71.7195 23.2435 72.2182C23.51 72.7169 23.895 73.1436 24.365 73.4614C24.8351 73.7792 25.3763 73.9785 25.9416 74.0419C26.5068 74.1054 27.0792 74.0311 27.609 73.8254L62.106 60.8589C62.7737 60.6107 63.3493 60.1668 63.7569 59.5864Z" fill="#100726"/>
<path fill-rule="evenodd" clip-rule="evenodd" d="M53.7531 38.3592C53.8331 38.3264 56.2438 37.406 58.0209 38.6044C59.1662 39.3764 59.7425 40.7737 59.7425 42.7527V50.6487C59.6797 54.3447 57.1541 56.4015 55.5875 57.3238L45.5547 61.073V41.3452L53.7531 38.3592ZM53.8016 56.4412C53.9773 56.3774 58.0696 54.7712 58.141 50.6263V42.7528C58.141 41.3297 57.798 40.3851 57.1245 39.9239C56.0522 39.1933 54.3377 39.8358 54.322 39.8444L47.1559 42.4505V59.0076L53.8016 56.4412Z" fill="#100726"/>
<path fill-rule="evenodd" clip-rule="evenodd" d="M41.623 49.4744C41.623 54.0183 37.8998 56.1391 36.6501 56.7193L42.1748 62.3461L40.5421 62.9487L35.0401 57.3549L29.0349 59.6674V67.2473L27.4336 67.85V48.0704L35.6336 45.0843L35.6355 45.0836C35.7506 45.0401 38.1338 44.1385 39.9085 45.3295C41.0469 46.0963 41.623 47.4866 41.623 49.4744ZM29.0348 49.1721V57.9662L35.684 55.3999C35.8684 55.3377 40.025 53.7091 40.025 49.4744C40.025 48.0513 39.6874 47.098 39.0154 46.6456C37.9346 45.915 36.2217 46.5575 36.2044 46.5661L29.0348 49.1721Z" fill="#100726"/>
<path fill-rule="evenodd" clip-rule="evenodd" d="M34.064 14.4362L36.1388 13.6572L44.1508 29.3957L42.6451 29.9605L40.4294 25.6307L30.2677 29.4526L28.0902 35.404L26.1094 36.1345L34.064 14.4362ZM35.3401 15.6036L30.9885 27.4736L39.7124 24.2007L35.3401 15.6036Z" fill="#100726"/>
<path fill-rule="evenodd" clip-rule="evenodd" d="M24.2383 36.8323L22.5743 37.461L14.6371 30.0312L10.9871 34.9102V41.7907L9.38574 42.3865V23.7087L10.9871 23.1041V32.2488L20.4996 19.5292L23.2774 18.4878L15.598 28.7447L24.2383 36.8323Z" fill="#100726"/>
<defs>
<linearGradient id="paint0_linear_301_129" x1="-61.8498" y1="-75.5002" x2="73.2876" y2="-68.5774" gradientUnits="userSpaceOnUse">
<stop offset="0.539916" stop-color="#E1B570"/>
<stop offset="1" stop-color="#F1E2C9"/>
</linearGradient>
</defs>
</svg>
