<svg width="120" height="24" viewBox="0 0 120 24" fill="none" xmlns="http://www.w3.org/2000/svg">
<path d="M36.8189 8.57666H39.2328V20.1245H36.8189V15.1778H31.6739V20.1245H29.2549V8.57666H31.6739V13.3912H36.8179L36.8189 8.57666Z" fill="#444444"/>
<path d="M42.5424 18.9599C42.0787 18.5124 41.716 17.977 41.4773 17.3876C41.2386 16.7982 41.129 16.1675 41.1554 15.5352C41.1249 14.9014 41.2339 14.2685 41.4752 13.6782C41.7165 13.0879 42.0846 12.5537 42.5554 12.1105C43.5137 11.2798 44.7566 10.8203 46.0449 10.8203C47.3332 10.8203 48.5761 11.2798 49.5344 12.1105C50.0054 12.5504 50.3745 13.0816 50.6174 13.6691C50.8602 14.2565 50.9714 14.8869 50.9434 15.5188C50.9712 16.1559 50.8597 16.7914 50.6161 17.3841C50.3725 17.9768 50.0022 18.5134 49.5294 18.959C48.5863 19.8252 47.3253 20.295 46.0234 20.2652C45.3822 20.283 44.7438 20.1767 44.1459 19.9525C43.548 19.7283 43.0028 19.3908 42.5424 18.9599ZM46.0264 18.2962C46.3517 18.2996 46.6741 18.2376 46.9731 18.1142C47.2722 17.9908 47.5413 17.8087 47.7634 17.5794C48.0192 17.3033 48.2156 16.9809 48.3413 16.631C48.4669 16.2811 48.5193 15.9106 48.4954 15.541C48.5206 15.1741 48.4698 14.806 48.346 14.4582C48.2222 14.1104 48.0279 13.7898 47.7744 13.5151C47.5512 13.2863 47.281 13.1049 46.9811 12.9825C46.6812 12.8601 46.3581 12.7994 46.0324 12.8041C45.709 12.7986 45.3881 12.859 45.0906 12.9816C44.7931 13.1041 44.5259 13.2859 44.3064 13.5151C43.8083 14.0796 43.5573 14.8089 43.6064 15.5487C43.5573 16.2885 43.8083 17.0178 44.3064 17.5823C44.526 17.8091 44.7926 17.9888 45.089 18.1094C45.3854 18.2301 45.7048 18.2892 46.0264 18.2827V18.2962Z" fill="#444444"/>
<path d="M55.2832 10.9569V12.3316C55.5788 11.8389 56.0121 11.4363 56.5336 11.1699C57.055 10.9034 57.6437 10.7838 58.2322 10.8247C58.9083 10.814 59.5748 10.9807 60.1602 11.3071C60.7293 11.6293 61.1858 12.1079 61.4712 12.6818C61.7952 12.1112 62.2747 11.6368 62.858 11.31C63.4412 10.9832 64.1059 10.8164 64.7802 10.8276C65.2862 10.8111 65.7903 10.8962 66.2604 11.0776C66.7306 11.2589 67.1565 11.5326 67.5112 11.8811C67.8734 12.2702 68.1518 12.7249 68.33 13.2188C68.5082 13.7127 68.5827 14.2359 68.5492 14.7579V20.1265H66.1492V15.0608C66.1958 14.4637 66 13.8725 65.6032 13.4121C65.4011 13.2182 65.1591 13.0673 64.8928 12.9692C64.6265 12.8712 64.3418 12.8282 64.0572 12.8429C63.7719 12.8291 63.4868 12.8725 63.2198 12.9705C62.9528 13.0685 62.7099 13.2189 62.5062 13.4121C62.0976 13.8674 61.8917 14.4599 61.9332 15.0608V20.1236H59.5332V15.0608C59.5799 14.4637 59.3841 13.8725 58.9872 13.4121C58.785 13.2184 58.5429 13.0677 58.2767 12.9697C58.0104 12.8716 57.7258 12.8285 57.4412 12.8429C57.156 12.8291 56.8708 12.8725 56.6038 12.9705C56.3369 13.0685 56.0939 13.2189 55.8902 13.4121C55.4913 13.8714 55.2953 14.4634 55.3442 15.0608V20.1236H52.8643V10.9588L55.2832 10.9569Z" fill="#444444"/>
<path d="M75.0525 20.256C74.4266 20.2795 73.8025 20.1764 73.2204 19.9532C72.6383 19.7301 72.111 19.3919 71.6725 18.9604C71.2316 18.5 70.8897 17.9598 70.6665 17.3711C70.4434 16.7825 70.3434 16.1569 70.3725 15.5308C70.3421 14.9052 70.4425 14.2801 70.6678 13.6927C70.893 13.1053 71.2384 12.5677 71.6835 12.1118C72.1283 11.684 72.6599 11.3495 73.245 11.1292C73.83 10.9089 74.456 10.8076 75.0835 10.8316C75.7109 10.8095 76.3365 10.9086 76.9236 11.1229C77.5107 11.3373 78.0476 11.6627 78.5026 12.0799C78.9535 12.5156 79.3054 13.0372 79.5358 13.6115C79.7662 14.1857 79.87 14.7999 79.8406 15.415C79.8433 15.7132 79.8196 16.0111 79.7696 16.3054H72.8445C72.8764 16.8533 73.1201 17.3696 73.5275 17.7525C73.9464 18.114 74.4951 18.303 75.0565 18.2793C75.4302 18.2977 75.8018 18.2146 76.129 18.0395C76.4563 17.8644 76.726 17.6042 76.9076 17.2885H79.5076C79.2339 18.1426 78.6726 18.8841 77.9126 19.3955C77.08 19.9717 76.077 20.2735 75.0525 20.256ZM76.6365 13.3389C76.2064 12.9818 75.6527 12.7937 75.0855 12.8122C74.5279 12.7912 73.9836 12.9801 73.5675 13.3389C73.1513 13.7253 72.8936 14.2436 72.8415 14.7985H77.3305C77.3262 14.5221 77.2623 14.2495 77.1428 13.9982C77.0233 13.7469 76.8509 13.5224 76.6365 13.3389Z" fill="#444444"/>
<path d="M81.7373 20.1235V7.896H84.1562V20.1235H81.7373Z" fill="#444444"/>
<path d="M87.3339 18.9222C86.4658 17.9933 86.0073 16.7744 86.0559 15.5246C86.0028 14.2798 86.4598 13.0648 87.3279 12.1424C87.7353 11.7124 88.234 11.3722 88.79 11.1449C89.346 10.9177 89.9463 10.8088 90.5499 10.8256C91.1484 10.8057 91.7413 10.9419 92.2662 11.2201C92.7911 11.4982 93.2283 11.9078 93.5319 12.4058V10.9829H95.9319V20.1473H93.5319V18.5826C93.2353 19.0968 92.7996 19.5237 92.2713 19.8178C91.743 20.1119 91.1418 20.2621 90.5319 20.2525C89.9306 20.2649 89.3335 20.1523 88.7813 19.9222C88.2292 19.6922 87.7348 19.3501 87.3319 18.9193L87.3339 18.9222ZM92.7949 17.5157C93.0546 17.2541 93.2556 16.9436 93.3854 16.6037C93.5151 16.2637 93.5708 15.9017 93.5489 15.54C93.5708 15.1784 93.5151 14.8163 93.3854 14.4764C93.2556 14.1365 93.0546 13.826 92.7949 13.5644C92.5659 13.3375 92.292 13.1572 91.9896 13.034C91.6871 12.9109 91.3622 12.8475 91.0339 12.8475C90.7056 12.8475 90.3807 12.9109 90.0782 13.034C89.7757 13.1572 89.5019 13.3375 89.2729 13.5644C89.015 13.8258 88.8156 14.1355 88.6869 14.4744C88.5582 14.8132 88.5031 15.174 88.5249 15.5342C88.5056 15.8975 88.5625 16.2607 88.6922 16.6022C88.822 16.9437 89.0219 17.2563 89.2799 17.5215C89.5073 17.7503 89.7803 17.9324 90.0825 18.0567C90.3847 18.1811 90.7098 18.2452 91.0384 18.2452C91.367 18.2452 91.6921 18.1811 91.9943 18.0567C92.2965 17.9324 92.5695 17.7503 92.7969 17.5215L92.7949 17.5157Z" fill="#444444"/>
<path d="M100.922 10.958V12.3327C101.218 11.8396 101.652 11.4369 102.175 11.1704C102.697 10.904 103.286 10.7846 103.876 10.8259C104.37 10.8122 104.861 10.899 105.319 11.0805C105.776 11.262 106.188 11.5341 106.53 11.8793C106.892 12.2668 107.171 12.7194 107.352 13.2112C107.533 13.703 107.612 14.2243 107.584 14.7454V20.1245H105.184V15.0618C105.23 14.4647 105.034 13.8736 104.638 13.4132C104.436 13.2197 104.195 13.069 103.93 12.971C103.665 12.873 103.381 12.8297 103.098 12.844C102.812 12.8299 102.527 12.8732 102.26 12.9712C101.993 13.0692 101.75 13.2197 101.547 13.4132C101.136 13.8676 100.928 14.4601 100.968 15.0618V20.1245H98.5566V10.9599L100.922 10.958Z" fill="#444444"/>
<path d="M110.653 18.9223C109.785 17.9935 109.327 16.7746 109.375 15.5247C109.322 14.2799 109.779 13.0649 110.647 12.1425C111.054 11.7119 111.553 11.3713 112.109 11.144C112.665 10.9168 113.266 10.8082 113.869 10.8257C114.468 10.8063 115.06 10.9428 115.585 11.2208C116.11 11.4989 116.547 11.9083 116.851 12.4059V7.896H119.251V20.1234H116.864V18.5857C116.568 19.0999 116.132 19.5268 115.604 19.8208C115.075 20.1149 114.474 20.2652 113.864 20.2555C113.26 20.2703 112.66 20.1588 112.104 19.9287C111.549 19.6986 111.052 19.3553 110.647 18.9223H110.653ZM116.114 17.5158C116.374 17.2542 116.575 16.9437 116.705 16.6038C116.834 16.2639 116.89 15.9018 116.868 15.5402C116.89 15.1785 116.834 14.8164 116.705 14.4765C116.575 14.1366 116.374 13.8261 116.114 13.5645C115.885 13.3376 115.611 13.1573 115.309 13.0341C115.006 12.911 114.682 12.8476 114.353 12.8476C114.025 12.8476 113.7 12.911 113.398 13.0341C113.095 13.1573 112.821 13.3376 112.592 13.5645C112.334 13.8259 112.135 14.1356 112.006 14.4745C111.878 14.8134 111.822 15.1741 111.844 15.5344C111.825 15.8974 111.882 16.2604 112.011 16.6017C112.141 16.943 112.34 17.2555 112.598 17.5207C112.826 17.7495 113.099 17.9315 113.401 18.0559C113.703 18.1803 114.028 18.2444 114.357 18.2444C114.685 18.2444 115.01 18.1803 115.313 18.0559C115.615 17.9315 115.888 17.7495 116.115 17.5207L116.114 17.5158Z" fill="#444444"/>
<path d="M6.90332 5.54346C7.08737 5.35593 7.32183 5.22183 7.58032 5.15625C7.32183 5.22183 7.08737 5.35593 6.90332 5.54346Z" fill="#61AA7E"/>
<path d="M6.90155 5.5415L2.62059 9.96181C2.43468 10.1419 2.28633 10.3548 2.18359 10.5889C2.27975 10.3565 2.42056 10.1437 2.59859 9.96181L6.90155 5.5415Z" fill="#61AA7E"/>
<path d="M17.7054 21.0249C17.6894 21.068 17.671 21.1102 17.6504 21.1514C17.671 21.1102 17.6894 21.068 17.7054 21.0249Z" fill="#61AA7E"/>
<path d="M17.771 20.6841C17.7689 20.801 17.7466 20.9167 17.705 21.0266C17.689 21.0696 17.6707 21.1118 17.65 21.1529C17.5625 21.3269 17.4259 21.4735 17.2559 21.5758C17.0859 21.6782 16.8894 21.7323 16.689 21.7318H3.419C3.1481 21.7317 2.88354 21.6527 2.66 21.505C2.5146 21.4123 2.39011 21.2922 2.294 21.152C2.1428 20.9376 2.06291 20.6839 2.065 20.4246V11.3266C2.05804 11.0756 2.09871 10.8254 2.185 10.5886C2.28116 10.3562 2.42197 10.1434 2.6 9.96151L6.88101 5.53838C7.11376 5.2966 7.42691 5.14107 7.76612 5.09878C8.10534 5.05648 8.44919 5.1301 8.73801 5.30685L9.44801 5.72843L10.884 4.24762L8.79201 3.02342C8.38612 2.78081 7.90544 2.68183 7.43224 2.74343C6.95904 2.80502 6.52274 3.02336 6.19801 3.36106L0.546001 9.17721C0.19478 9.54652 -5.57571e-05 10.0295 1.1969e-08 10.5307V21.7154C0.0029073 22.2431 0.222279 22.7483 0.610165 23.1205C0.998051 23.4927 1.5229 23.7017 2.07 23.7017H17.77C18.319 23.7017 18.8455 23.4913 19.2337 23.1168C19.6219 22.7423 19.84 22.2344 19.84 21.7047V18.992H17.771V20.6841Z" fill="#61AA7E"/>
<path d="M17.2949 21.5469C17.4459 21.4458 17.568 21.3096 17.65 21.1509C17.568 21.3096 17.4459 21.4458 17.2949 21.5469Z" fill="#61AA7E"/>
<path d="M2.29395 21.146C2.39004 21.2866 2.51452 21.407 2.65991 21.5C2.51452 21.407 2.39004 21.2866 2.29395 21.146Z" fill="#61AA7E"/>
<path d="M8.73743 5.31104C8.56998 5.21162 8.38325 5.1467 8.18885 5.12031C7.99445 5.09393 7.79654 5.10665 7.60742 5.15768C7.79654 5.10665 7.99445 5.09393 8.18885 5.12031C8.38325 5.1467 8.56998 5.21162 8.73743 5.31104Z" fill="#61AA7E"/>
<path d="M2.06403 11.3268C2.05707 11.0758 2.09774 10.8257 2.18405 10.5889C2.09025 10.8244 2.04211 11.0745 2.04203 11.3268V20.4186C2.03994 20.6779 2.11983 20.9316 2.27106 21.146C2.11983 20.9316 2.03994 20.6779 2.04203 20.4186L2.06403 11.3268Z" fill="#61AA7E"/>
<path d="M9.42096 5.73193L8.71094 5.31006L9.42096 5.73193Z" fill="#61AA7E"/>
<path d="M17.7711 20.6824C17.7689 20.7993 17.7466 20.9151 17.7051 21.0249C17.7466 20.9151 17.7689 20.7993 17.7711 20.6824V18.9912V20.6824Z" fill="#61AA7E"/>
<path d="M23.1166 20.9829H7.42158C6.87258 20.9829 6.34606 20.7725 5.95786 20.398C5.56966 20.0236 5.35157 19.5156 5.35157 18.986V7.80552C5.34983 7.30088 5.54471 6.81403 5.89757 6.44148L11.5386 0.647676C11.8622 0.307101 12.2981 0.0852869 12.7722 0.0200277C13.2463 -0.0452314 13.7292 0.0501015 14.1386 0.289784L24.1976 6.27073C24.4974 6.4509 24.7449 6.70154 24.9168 6.99918C25.0887 7.29681 25.1795 7.63169 25.1806 7.97241V18.986C25.1806 19.5146 24.9633 20.0217 24.5764 20.396C24.1895 20.7703 23.6646 20.9814 23.1166 20.9829ZM8.77058 18.9957H22.0406C22.1847 18.9957 22.3273 18.9682 22.4603 18.9148C22.5934 18.8614 22.7141 18.7831 22.8156 18.6844C22.9171 18.5858 22.9974 18.4688 23.0518 18.3401C23.1062 18.2114 23.1337 18.0735 23.1326 17.9346V9.08178C23.1337 8.73797 23.0428 8.3997 22.8687 8.09972C22.6946 7.79973 22.4431 7.54821 22.1386 7.36949L14.0616 2.57509C13.7778 2.40838 13.4432 2.34097 13.1139 2.38418C12.7847 2.4274 12.4809 2.5786 12.2536 2.81239L7.97258 7.22672C7.6174 7.59789 7.42216 8.08565 7.42658 8.59076V17.6837C7.42498 18.0295 7.56556 18.3617 7.81749 18.6077C8.06943 18.8536 8.41217 18.9931 8.77058 18.9957Z" fill="#7FD39C"/>
<path d="M5.91992 6.4375L7.26894 2.74923C7.79537 2.6451 8.34313 2.7353 8.80395 3.002L9.07996 3.16504L5.91992 6.4375Z" fill="#33533F"/>
<path d="M17.7266 20.9829H19.8346V21.7412C19.8188 22.227 19.6254 22.6917 19.2886 23.0532L17.7266 20.9829Z" fill="#33533F"/>
</svg>
