<svg width="160" height="22" viewBox="0 0 160 22" fill="none" xmlns="http://www.w3.org/2000/svg">
<path fill-rule="evenodd" clip-rule="evenodd" d="M0 10.5995C0.30933 9.20067 0.633137 8.53858 1.37751 7.29288C2.17445 5.96032 3.12759 4.76262 4.2811 3.73482C5.30966 2.81902 6.62165 2.34055 7.79421 1.64722C8.75191 1.08189 9.75381 0.777897 10.8296 0.630851C12.4075 0.414472 13.9877 0.209522 15.5656 0H16.1073C17.7606 0.159237 19.4101 0.361139 21.0672 0.457138C21.8588 0.502852 22.4188 0.857896 22.9552 1.35161C23.8641 2.18741 24.6428 3.14054 25.4756 4.04567C26.0538 4.67272 26.5072 5.33328 26.6664 6.17137V6.97669C26.2801 8.18125 25.6919 9.30429 24.5072 9.84371C23.4443 10.3275 22.4318 10.905 21.3605 11.3652C21.1948 11.4354 21.0135 11.4608 20.8348 11.4391C20.1461 11.3401 20.1187 11.6471 20.3274 12.1675C20.4394 12.4464 20.604 12.7389 20.3625 13.0513C19.6249 14.0105 18.9111 14.9873 18.0753 15.8688C17.8939 16.0608 17.7172 16.1583 17.4337 16.1454C16.6688 16.108 15.9023 16.1126 15.1358 16.1057C14.777 16.1019 14.4791 16.2185 14.5294 16.6368C14.6208 17.3949 14.2368 17.9572 13.8391 18.5385C13.542 18.9728 13.1496 19.3583 13.1359 19.9541C13.11 21.0322 13.0292 21.0962 11.9641 21.2287C11.8094 21.2486 11.6586 21.2973 11.5062 21.3331H11.3706C11.0315 20.9331 10.3534 19.1244 10.1873 18.6665C9.9839 18.105 10.2026 18.6467 9.58771 18.9629C8.24144 19.6547 7.08107 20.2962 5.6868 19.5663C5.66651 19.5565 5.64498 19.5496 5.6228 19.5457C4.69862 19.3552 4.04872 18.8257 3.71425 17.9556C3.58473 17.6189 3.3912 17.5534 3.05292 17.5518C1.69217 17.5511 0.624756 16.6208 0.388568 15.2783C0.204043 14.2454 0.103145 13.1992 0.0868563 12.15C0.0822849 11.881 0 11.8064 0 11.4056V10.6003V10.5995ZM21.74 4.48605C21.7616 4.47042 21.7798 4.45044 21.7933 4.42738C22.1994 3.75692 21.6577 2.28112 21.1167 1.74398C20.7556 1.38589 19.5373 1.16266 17.4627 1.07351C17.2654 1.06285 17.1747 1.19085 17.1937 1.4598C17.2577 2.36874 17.5343 3.21902 17.852 4.06701C18.0318 4.54853 18.1682 5.0529 18.3594 5.52985C18.6314 6.20946 18.8189 6.92107 19.1564 7.57554C19.311 7.87421 19.4832 7.80411 19.6669 7.64792C19.9998 7.36526 20.1712 6.95917 20.4067 6.60489C20.8615 5.92299 21.2828 5.21823 21.7171 4.52262L21.74 4.48605V4.48605ZM1.58856 15.2227C1.88646 15.5648 2.15998 15.9328 2.45407 16.2787C2.77331 16.6543 3.14511 16.5423 3.29216 16.0593C3.65101 14.8799 3.62434 13.6509 3.70587 12.4342C3.74777 11.8033 3.79425 11.1717 3.87882 10.5469C3.93927 10.1184 3.94081 9.68368 3.88339 9.25477C3.82549 8.82429 3.82853 8.38239 3.81558 7.94506C3.80568 7.58926 3.77292 7.25783 3.55654 6.95688C3.35692 6.67879 3.10397 6.61632 2.87616 6.86165C2.24683 7.53821 1.68379 8.27878 1.2777 9.1382C1.11923 9.47572 0.969895 9.83838 0.960752 10.2529C0.941705 11.1382 0.690279 11.9999 0.726088 12.9942C0.514281 13.8955 1.02094 14.5705 1.58856 15.2227V15.2227ZM4.37939 8.2483C4.40224 8.48601 4.90281 8.88982 5.123 8.85325C6.24527 8.66658 7.29136 8.26887 8.21935 7.54964C8.45249 7.36907 8.44868 7.23574 8.2163 7.04984C7.52029 6.49835 6.79519 5.9846 6.04413 5.5108C5.78128 5.34318 5.53594 5.15119 5.24033 5.03843C4.68262 4.82509 4.29177 5.07728 4.22853 5.72413C4.22015 5.8087 4.21939 5.89556 4.21558 5.98089L4.19653 5.98242C4.25596 6.73746 4.30701 7.49402 4.37939 8.2483V8.2483ZM6.61784 5.12147C7.28157 5.64146 7.98692 6.10601 8.72677 6.51041C9.3081 6.83346 10.1287 6.76336 10.4654 6.28718C10.902 5.67004 11.3987 5.10928 11.8307 4.4891C12.361 3.72873 12.9149 2.98664 13.4536 2.2316C13.6098 2.01141 13.7378 1.76836 13.8947 1.54894C13.9884 1.41713 13.9328 1.37599 13.8223 1.35542C13.7446 1.33876 13.6644 1.33746 13.5862 1.35161C12.7305 1.54208 11.8787 1.31427 11.03 1.54056C10.3801 1.71351 9.73476 1.90627 9.0902 2.09674C8.5142 2.26817 8.01287 2.7375 7.4445 2.93711C7.16717 3.03464 6.80603 3.24416 6.55689 3.43768C6.27346 3.65711 6.06699 3.90549 6.09823 4.33443C6.0388 4.74433 6.36946 4.92414 6.61784 5.12147V5.12147ZM9.75686 10.4464C9.6959 11.1001 10.1401 11.4315 10.7732 11.193C11.4892 10.9212 12.1489 10.5195 12.7191 10.0083C13.1443 9.63343 13.5191 9.22658 13.7096 8.70772C13.8589 8.29706 13.9679 7.85059 13.977 7.41783C14.0006 6.32375 14.3374 5.27766 14.4387 4.19653C14.4715 3.84301 14.4395 3.49025 14.4814 3.13749C14.4981 2.99959 14.4151 2.89369 14.2818 2.84264C14.1149 2.77788 13.9846 2.84721 13.8589 2.95616C13.3972 3.35768 13.0574 3.85977 12.6841 4.33139C12.0639 5.11614 11.3904 5.86356 10.8365 6.69784C10.4273 7.31345 10.0951 7.96259 9.926 8.69249C9.82847 9.11153 9.70505 9.51991 9.75914 9.95495C9.75914 10.1188 9.77209 10.2833 9.75686 10.4464V10.4464ZM15.244 8.62239C15.6768 8.87534 16.1789 8.95458 16.6657 9.05667C16.969 9.12143 17.2814 9.13667 17.5853 9.22277C18.0585 9.3561 18.4006 9.09705 18.409 8.64601C18.4204 8.0784 18.1095 7.57935 17.9975 7.03688C17.8901 6.51117 17.7202 5.99308 17.5328 5.4849C17.276 4.78471 17.0909 4.06548 16.7953 3.37444C16.5873 2.88835 16.4372 2.38398 16.1286 1.93446C15.9625 1.69294 15.785 1.6777 15.5983 1.90931C15.4885 2.04991 15.4197 2.21814 15.3995 2.3954C15.2654 3.29292 15.1435 4.19348 14.9614 5.08338C14.8052 5.84756 14.7663 6.61251 14.7541 7.38355C14.777 7.84373 14.7282 8.3222 15.244 8.62239V8.62239ZM19.8398 10.457C19.9236 10.6582 20.3366 10.6384 20.6352 10.4494C21.7552 9.74162 23.6348 9.51152 24.6436 8.69706C25.2698 8.19116 25.7643 7.51383 25.7156 6.73822C25.6919 6.3626 25.7095 5.83613 25.3879 5.47728C25.0123 5.05976 24.7266 4.58738 24.2801 4.21024C23.9563 3.93672 23.3963 3.96948 23.1396 4.2872C22.5171 5.05976 21.7285 5.73251 21.1632 6.54013C20.5819 7.36907 19.9731 8.18582 19.615 9.10467C19.5526 9.26467 19.5251 9.43381 19.4924 9.55724C19.5015 9.91533 19.7217 10.1751 19.8398 10.457V10.457ZM8.73591 15.5541C8.86315 15.7355 9.02162 15.8939 9.15724 16.0722C9.64486 16.7168 10.3367 16.7899 11.0315 16.3922C11.5311 16.1121 11.9696 15.7349 12.3214 15.2829C12.4837 15.0719 12.5081 14.9004 12.3275 14.681C11.8795 14.1393 11.3606 13.6715 10.8669 13.1846C10.5447 12.8677 10.07 12.7092 9.64409 12.5324C9.16486 12.3344 8.43496 12.7016 8.22849 13.2243C8.1203 13.4978 7.92525 13.7561 8.00525 14.009C7.99459 14.7191 8.4243 15.1069 8.73668 15.5541H8.73591ZM12.1043 13.5823C12.9423 14.0745 13.4833 14.2406 13.4589 13.4955C13.4361 12.7503 13.654 11.846 13.5145 10.9751C13.3759 10.1043 11.5709 11.3926 11.4102 11.7675C11.2502 12.1416 11.5831 13.2669 12.1043 13.5823V13.5823ZM11.4673 20.1651C11.4673 20.5339 12.7001 20.6573 12.5766 18.937C12.5766 18.2002 13.273 18.4013 13.5625 17.4634C13.766 16.8044 14.2132 15.2951 13.2654 15.8322C8.93401 18.2474 10.8509 17.5861 11.4673 20.1659V20.1651ZM7.23802 8.87991C6.74812 9.03001 6.24146 9.18315 5.81175 9.43686C5.41404 9.67152 4.90509 9.77286 4.675 10.262C4.49215 10.6506 4.69633 10.9485 4.83043 11.222C5.09785 11.7698 5.73709 11.9283 6.14623 12.4921C6.62165 13.1473 6.65974 13.766 7.34316 13.417C8.01363 13.0749 9.12296 11.6266 9.06734 10.9264C9.0262 10.4098 9.04067 9.8879 9.04677 9.36905C9.04905 9.11991 8.94467 8.9142 8.82582 8.70239C8.71915 8.51192 8.53325 8.58734 8.39687 8.55306C7.96716 8.5683 7.6144 8.76487 7.23802 8.88067V8.87991ZM5.41633 18.2246C6.05708 18.4189 6.71231 18.5827 7.32793 18.8486C7.68221 19.001 8.08602 19.0055 8.45096 18.7891C8.84258 18.556 9.23038 18.3229 9.49705 17.9716C9.66924 17.7446 9.62505 17.5389 9.50391 17.2951C9.27381 16.8326 8.8182 16.5195 8.52411 16.0989C8.29554 15.772 7.38736 15.6059 6.96145 15.7515C6.29708 15.9785 5.66852 16.2657 5.04681 16.5697C4.70243 16.7381 4.579 16.9583 4.60567 17.2372C4.57976 17.7598 4.85176 18.0524 5.41633 18.2246V18.2246ZM3.92606 15.6494C3.91234 16.2452 4.14701 16.3755 4.81595 16.0852C5.38433 15.8391 5.97861 15.6303 6.51194 15.3278C6.94088 15.0848 7.04069 14.7336 6.69479 14.4364C6.25289 14.0585 6.06318 13.545 5.62966 13.1656C5.40642 12.9713 5.25023 12.7305 4.98205 12.5675C4.723 12.4113 4.483 12.4578 4.44872 12.7046C4.32224 13.625 3.96034 14.5157 3.92606 15.369C3.92606 15.5145 3.92758 15.5823 3.92606 15.6494V15.6494ZM19.1099 13.7507C19.1848 13.6471 19.2238 13.5219 19.2211 13.3942C19.215 12.569 19.4619 11.5976 19.0863 10.8669C19.001 10.7008 18.777 10.0989 18.6802 9.92752C18.3937 9.42467 17.6707 10.0136 17.209 9.92219C16.5743 9.79571 15.9381 9.72409 15.2814 9.894C14.7557 10.0311 14.3679 10.3793 14.2399 10.9027C14.0319 11.7576 14.0105 12.6246 13.9976 13.4947C13.9945 13.7301 13.8901 13.9427 13.9762 14.2063C14.1835 14.8372 14.7229 14.9058 15.2258 15.0239C15.561 15.1023 15.9176 15.0939 16.2642 15.1244C17.5244 15.3126 18.4204 14.7503 19.1099 13.7507V13.7507Z" fill="url(#paint0_linear_89_2239)"/>
<path d="M38.0967 15.9991V5.33252H41.1694C44.3595 5.33252 46.4951 7.63878 46.4951 10.6803C46.4951 13.6791 44.3008 15.9991 41.1542 15.9991H38.0967ZM40.2475 7.14355V14.1881H40.5988C43.2471 14.1881 44.2711 12.774 44.2711 10.6658C44.2711 8.34582 43.0422 7.14355 40.5988 7.14355H40.2483H40.2475ZM58.1331 7.14355H54.5765V9.49172H58.0005V11.3027H54.5765V14.1881H58.1323V15.9991H52.4257V5.33252H58.1323V7.14355H58.1331ZM70.1505 7.14355H66.5947V9.49172H70.0187V11.3027H66.5947V14.1881H70.1505V15.9991H64.4439V5.33252H70.1505V7.14355V7.14355ZM78.6129 12.0098V15.9991H76.4613V5.33252H79.3877C81.7001 5.33252 83.2071 6.22394 83.2071 8.64296C83.2071 10.9058 81.934 12.0098 79.6803 12.0098H78.6129ZM78.6129 7.05822V10.2849H79.0517C80.3241 10.2849 81.0121 10.0159 81.0121 8.62925C81.0121 7.25783 80.193 7.05974 78.993 7.05974H78.6121L78.6129 7.05822ZM100.322 11.3591V14.3298H100.775C101.931 14.3298 102.926 14.1881 102.926 12.8022C102.926 11.4155 101.755 11.3591 100.673 11.3591H100.322V11.3591ZM98.1708 15.9991V5.33252H100.848C102.897 5.33252 104.155 6.11042 104.155 8.2323C104.155 8.99648 103.877 9.87343 103.189 10.2978C104.492 10.5241 105.077 11.7972 105.077 12.9721C105.077 15.0658 103.555 15.9991 101.551 15.9991H98.1708V15.9991ZM100.322 7.00184V9.77514H100.584C101.638 9.77514 102.15 9.478 102.15 8.37401C102.15 7.2845 101.506 7.00184 100.6 7.00184H100.322ZM116.846 7.14355H113.29V9.49172H116.714V11.3027H113.29V14.1881H116.846V15.9991H111.139V5.33252H116.846V7.14355V7.14355ZM125.308 5.33252V14.1881H128.351V15.9991H123.157V5.33252H125.308ZM136.068 5.33252V15.9991H133.917V5.33252H136.068ZM148.217 7.14355H144.661V9.49172H148.085V11.3027H144.661V14.1881H148.217V15.9991H142.51V5.33252H148.217V7.14355ZM160 7.14355H156.678V9.49172H159.795V11.3027H156.679V15.9991H154.528V5.33252H160V7.14355V7.14355Z" fill="url(#paint1_linear_89_2239)"/>
<defs>
<linearGradient id="paint0_linear_89_2239" x1="-23.5616" y1="-20.228" x2="27.7815" y2="-16.4882" gradientUnits="userSpaceOnUse">
<stop offset="0.539916" stop-color="#E1B570"/>
<stop offset="1" stop-color="#F1E2C9"/>
</linearGradient>
<linearGradient id="paint1_linear_89_2239" x1="-69.6135" y1="-4.78149" x2="93.8466" y2="104.078" gradientUnits="userSpaceOnUse">
<stop offset="0.539916" stop-color="#E1B570"/>
<stop offset="1" stop-color="#F1E2C9"/>
</linearGradient>
</defs>
</svg>
