<svg width="119" height="31" viewBox="0 0 119 31" fill="none" xmlns="http://www.w3.org/2000/svg">
<path d="M110.528 0.00142259L107.96 6.79143H116.274L118.842 0.00142259H110.528ZM45.5472 8.35769L37.1909 30.5116H45.5045L53.8608 8.35769H45.5472ZM36.7115 0.00142259L25.1786 30.5116H33.4922L45.0265 0.00142259H36.7115ZM77.7546 12.7108C77.7546 9.62095 75.3177 7.96648 71.922 7.96648C69.2233 7.96648 66.7423 8.61945 64.6966 10.6651L65.5232 8.35911H57.4713L49.1151 30.513H57.4286L62.0421 18.2831C62.9127 15.9756 64.2613 14.0182 66.96 14.0182C68.135 14.0182 68.7012 14.4094 68.7012 15.3241C68.7012 15.7594 68.5703 16.3256 68.31 17.0212L63.2186 30.5116H71.5322L76.2324 18.1067C76.928 16.3227 77.7546 14.0594 77.7546 12.7108ZM91.4213 30.5116H99.7776L95.0774 19.0214L106.481 8.35769H97.2966L88.8095 16.3654L94.9892 0H86.677L75.1427 30.5102H83.4563L87.33 20.2391L91.4213 30.5116ZM11.6427 0.00142259L0.108398 30.5116H9.24851L13.209 20.0656H25.5257L28.2671 12.7535H15.9503L17.9519 7.48707H31.3142L34.1438 0.00142259H11.6427Z" fill="url(#paint0_linear_301_132)"/>
<defs>
<linearGradient id="paint0_linear_301_132" x1="-104.801" y1="-28.9324" x2="113.781" y2="20.631" gradientUnits="userSpaceOnUse">
<stop offset="0.539916" stop-color="#E1B570"/>
<stop offset="1" stop-color="#F1E2C9"/>
</linearGradient>
</defs>
</svg>
