<svg width="73" height="77" viewBox="0 0 73 77" fill="none" xmlns="http://www.w3.org/2000/svg">
<path d="M34.8834 46.8304H40.8886V48.5328H27.1758V46.8304H33.181V41.316C33.181 41.2429 33.181 41.1698 33.181 41.0967V35.7912H27.1758V34.0889H34.8938V36.6476C36.262 35.0184 38.2359 34.0889 40.4082 34.0889H40.8991V35.7912H40.4082C37.4108 35.7912 34.9878 38.1307 34.8938 41.128V46.8304H34.8834Z" fill="url(#paint0_linear_89_2227)"/>
<path d="M16.7106 34.089H10.6113V35.7914H16.6166V48.5329H18.3189V35.7914H24.3242V34.089H18.4129C18.8307 31.4572 21.1806 29.4206 23.8646 29.4206H24.3555V27.7183H23.8646C20.2511 27.7183 17.1388 30.5068 16.7106 34.089Z" fill="url(#paint1_linear_89_2227)"/>
<path d="M53.6929 40.4388H48.3352C47.0506 40.4388 45.9957 39.3944 45.9957 38.0994C45.9957 36.8148 47.0401 35.76 48.3247 35.76L55.8548 35.7704V34.0681L48.3247 34.0576C46.1002 34.0576 44.2829 35.8644 44.2829 38.0994C44.2829 40.324 46.0897 42.1412 48.3247 42.1412H53.6929C54.9775 42.1412 56.0323 43.1856 56.0323 44.4806C56.0323 45.7652 54.9879 46.8201 53.6929 46.8201H44.1367V48.5224H53.6929C55.9175 48.5224 57.7347 46.7156 57.7347 44.4806C57.7243 42.2456 55.9175 40.4388 53.6929 40.4388Z" fill="url(#paint2_linear_89_2227)"/>
<path d="M72.3562 46.8305C69.3171 46.8305 66.8419 44.3553 66.8419 41.3161V35.7913H72.8053V34.089H66.8314V28.7417H65.1291V34.089H59.082V35.7913H65.1291V41.3161C65.1291 45.2953 68.3667 48.5329 72.3458 48.5329H72.8367V46.8305H72.3562Z" fill="url(#paint3_linear_89_2227)"/>
<path d="M38.1203 1.52481H38.444V0H38.1203C17.0967 0 0 17.0966 0 38.1202C0 59.1437 17.0967 76.2404 38.1203 76.2404H38.444V74.7156H38.1203C17.9426 74.7156 1.52481 58.3082 1.52481 38.1202C1.52481 17.9321 17.9426 1.52481 38.1203 1.52481Z" fill="url(#paint4_linear_89_2227)"/>
<defs>
<linearGradient id="paint0_linear_89_2227" x1="15.0503" y1="20.3932" x2="41.532" y2="21.8593" gradientUnits="userSpaceOnUse">
<stop offset="0.539916" stop-color="#E1B570"/>
<stop offset="1" stop-color="#F1E2C9"/>
</linearGradient>
<linearGradient id="paint1_linear_89_2227" x1="-1.5326" y1="7.98183" x2="25.0313" y2="9.00395" gradientUnits="userSpaceOnUse">
<stop offset="0.539916" stop-color="#E1B570"/>
<stop offset="1" stop-color="#F1E2C9"/>
</linearGradient>
<linearGradient id="paint2_linear_89_2227" x1="32.122" y1="20.3421" x2="58.3635" y2="21.7796" gradientUnits="userSpaceOnUse">
<stop offset="0.539916" stop-color="#E1B570"/>
<stop offset="1" stop-color="#F1E2C9"/>
</linearGradient>
<linearGradient id="paint3_linear_89_2227" x1="46.9289" y1="9.97575" x2="73.5087" y2="11.0522" gradientUnits="userSpaceOnUse">
<stop offset="0.539916" stop-color="#E1B570"/>
<stop offset="1" stop-color="#F1E2C9"/>
</linearGradient>
<linearGradient id="paint4_linear_89_2227" x1="-33.968" y1="-72.291" x2="40.3802" y2="-70.1063" gradientUnits="userSpaceOnUse">
<stop offset="0.539916" stop-color="#E1B570"/>
<stop offset="1" stop-color="#F1E2C9"/>
</linearGradient>
</defs>
</svg>
