<svg width="110" height="43" viewBox="0 0 110 43" fill="none" xmlns="http://www.w3.org/2000/svg">
<path d="M30.6926 2.38412C29.7187 3.98957 29.8337 5.9029 30.8306 7.36172C31.3751 8.16078 31.3981 9.17976 30.8996 10.0008L30.6236 10.4481C30.1251 11.2617 29.1051 11.6502 28.1619 11.379C27.1725 11.1005 26.1219 10.9465 25.0406 10.9465C19.8871 10.9465 15.5772 14.3553 14.4728 18.9297C14.2504 19.846 13.3762 20.4911 12.3869 20.4911H11.8884C10.8761 20.4911 9.95583 19.9414 9.49567 19.091C8.6751 17.5588 7.01094 16.5032 5.07836 16.4812C2.34823 16.4519 0.0628848 18.5339 0.00153332 21.1289C-0.0674871 23.812 2.20251 26.0113 5.01702 26.0113C6.96493 26.0113 8.65976 24.9556 9.488 23.4088C9.94048 22.5658 10.8608 22.0307 11.8653 22.0307H12.3945C13.3838 22.0307 14.2581 22.6758 14.4805 23.5921C15.6002 28.1445 19.9024 31.5387 25.0406 31.5387C26.1449 31.5387 27.2186 31.3847 28.2232 31.0914C29.1741 30.8129 30.2018 31.2014 30.7003 32.0151L30.9457 32.4183C31.4518 33.2541 31.4135 34.2804 30.8613 35.0868C29.872 36.5236 29.7417 38.4223 30.6926 40.0204C32.027 42.2783 35.0715 43.114 37.472 41.8677C39.9567 40.5775 40.8233 37.6159 39.4122 35.3066C38.4382 33.7012 36.6283 32.8435 34.8031 32.9316C33.8062 32.9829 32.8629 32.4917 32.3567 31.6632L32.0883 31.2234C31.5898 30.4024 31.7586 29.3688 32.4794 28.7236C34.573 26.8469 35.8844 24.1859 35.8844 21.2389C35.8844 18.27 34.5577 15.5942 32.4411 13.7102C31.7126 13.0651 31.5362 12.0241 32.0424 11.2031L32.2954 10.7852C32.8015 9.94951 33.7602 9.47297 34.7725 9.52429C36.5824 9.61965 38.3769 8.77656 39.3585 7.20045C40.7543 4.97189 39.9874 2.05424 37.656 0.705373C35.2327 -0.702139 32.096 0.0675935 30.6926 2.38412ZM31.8813 21.1802C31.9119 24.8162 28.806 27.7706 24.9793 27.7413C21.2598 27.7119 18.2229 24.831 18.1922 21.2975C18.1615 17.6614 21.2674 14.7072 25.0943 14.7365C28.806 14.7658 31.8506 17.6542 31.8813 21.1802Z" fill="url(#paint0_linear_89_2356)"/>
<path d="M51.0261 28.6318V23.3638C51.0261 22.3057 51.3858 21.5489 52.1052 21.0934C52.8402 20.6231 53.6691 20.4468 54.5918 20.5644V17.3903C53.7629 17.3903 53.0279 17.5703 52.3867 17.9303C51.7455 18.2904 51.292 18.8157 51.0261 19.5063V17.6107H48V28.6318H51.0261ZM62.1922 28.9404C63.9438 28.9404 65.4138 28.382 66.6023 27.2652C67.8065 26.1337 68.4086 24.7524 68.4086 23.1212C68.4086 21.5048 67.8065 20.1309 66.6023 18.9994C65.3982 17.8679 63.9281 17.3022 62.1922 17.3022C60.4563 17.3022 58.9863 17.8679 57.7821 18.9994C56.5935 20.1162 55.9992 21.4902 55.9992 23.1212C55.9992 24.7671 56.5935 26.1484 57.7821 27.2652C58.9706 28.382 60.4407 28.9404 62.1922 28.9404ZM62.1922 26.1631C61.2852 26.1631 60.5267 25.8765 59.9168 25.3034C59.3225 24.7157 59.0253 23.9883 59.0253 23.1212C59.0253 22.2543 59.3225 21.5269 59.9168 20.9391C60.5267 20.366 61.2852 20.0794 62.1922 20.0794C63.0993 20.0794 63.8577 20.366 64.4676 20.9391C65.0776 21.5122 65.3825 22.2396 65.3825 23.1212C65.3825 24.003 65.0776 24.7304 64.4676 25.3034C63.8577 25.8765 63.0993 26.1631 62.1922 26.1631ZM74.2732 28.6318V12.541H71.2471V28.6318H74.2732ZM80.7711 28.6318V12.541H77.745V28.6318H80.7711ZM90.0605 28.9404C92.3125 28.9404 94.0172 28.1542 95.1744 26.5819L92.7348 25.2593C92.1405 25.9941 91.2647 26.3615 90.1075 26.3615C88.2934 26.3615 87.1908 25.6709 86.7998 24.2896H95.6436C95.7218 23.8193 95.7609 23.4298 95.7609 23.1212C95.7609 21.4754 95.1979 20.0942 94.0719 18.9773C92.9772 17.8605 91.5619 17.3022 89.826 17.3022C87.9962 17.3022 86.5105 17.8605 85.3689 18.9773C84.2116 20.0942 83.633 21.4754 83.633 23.1212C83.633 24.7965 84.2194 26.1851 85.3924 27.2873C86.5653 28.3894 88.1213 28.9404 90.0605 28.9404ZM92.7348 22.0853H86.7529C86.925 21.3799 87.2768 20.8326 87.8085 20.4431C88.3403 20.0538 89.0127 19.859 89.826 19.859C90.5453 19.859 91.167 20.0501 91.6909 20.4321C92.2148 20.8142 92.5627 21.3653 92.7348 22.0853ZM104.3 28.9404C106.552 28.9404 108.256 28.1542 109.414 26.5819L106.974 25.2593C106.38 25.9941 105.504 26.3615 104.347 26.3615C102.532 26.3615 101.43 25.6709 101.039 24.2896H109.883C109.961 23.8193 110 23.4298 110 23.1212C110 21.4754 109.437 20.0942 108.311 18.9773C107.216 17.8605 105.801 17.3022 104.065 17.3022C102.235 17.3022 100.75 17.8605 99.608 18.9773C98.4507 20.0942 97.8721 21.4754 97.8721 23.1212C97.8721 24.7965 98.4586 26.1851 99.6315 27.2873C100.804 28.3894 102.36 28.9404 104.3 28.9404ZM106.974 22.0853H100.992C101.164 21.3799 101.516 20.8326 102.048 20.4431C102.579 20.0538 103.252 19.859 104.065 19.859C104.784 19.859 105.406 20.0501 105.93 20.4321C106.454 20.8142 106.802 21.3653 106.974 22.0853Z" fill="#253858"/>
<defs>
<linearGradient id="paint0_linear_89_2356" x1="20.0445" y1="-10.1292" x2="20.0445" y2="42.4463" gradientUnits="userSpaceOnUse">
<stop stop-color="#02B3FB"/>
<stop offset="1" stop-color="#0061FF"/>
</linearGradient>
</defs>
</svg>
