<svg width="161" height="24" viewBox="0 0 161 24" fill="none" xmlns="http://www.w3.org/2000/svg"><path d="M24.2754 0v8h-8.0918v16H8.0918V8H0V0h24.2754zM48.5508 0H32.3672v8h16.1836V0zM48.5508 16v8H24.2754V8h8.0918v8h16.1836zM63.8442 5.6001H52.7314v3.1733h3.7223v9.9467h3.6683V8.7734h3.7222V5.6001zM68.0252 8.667c-2.6164 0-4.5584 1.7333-4.5584 5.1467 0 3.0133 1.6453 5.12 4.6393 5.12 1.5644 0 2.8322-.4 4.0459-1.12l-1.2947-2.16c-.998.5066-1.6992.6933-2.5893.6933-.9171 0-1.5645-.48-1.6993-1.5733h5.8531c.0269-.16.0269-.3734.0269-.6667.027-3.6533-1.6723-5.44-4.4235-5.44zm-1.4026 4c.1079-.9867.5395-1.4933 1.3217-1.4933.998 0 1.3486.5066 1.5105 1.4933h-2.8322zM78.9489 16.187c-.917 0-1.4025-.8-1.4025-2.3733 0-1.5467.4315-2.4267 1.3216-2.4267.7283 0 1.052.4 1.5375 1.28l2.3466-1.76c-.8631-1.3867-1.942-2.24-3.8301-2.24-3.1828 0-4.7472 2.08-4.7472 5.0933 0 3.3067 1.7532 5.1467 4.6663 5.1467 1.7532 0 2.8321-.6667 3.9919-2.3467l-2.1578-1.68c-.6473.96-1.0789 1.3067-1.7263 1.3067zM90.7094 8.6669c-1.1868 0-1.8881.4-2.5085.8533V5.067l-3.4255 1.36v12.32h3.4255v-5.6267c0-1.2266.4316-1.5733 1.1598-1.5733.7013 0 1.1329.3467 1.1329 1.6v5.6h3.4255v-6.0267c0-2.5866-1.0519-4.0533-3.2097-4.0533z" fill="#0A9E01"/><path d="M102.146 15.7601c-1.592 0-2.2391-1.6-2.2391-3.6 0-2.08.6741-3.6 2.2121-3.6 1.213 0 1.672.7733 2.13 2l3.345-1.3067c-.917-2.48-2.212-3.8667-5.475-3.8667-3.5607 0-6.0692 2.56-6.0692 6.7734 0 3.8933 2.1039 6.7733 6.0422 6.7733 3.155 0 4.639-1.68 5.529-3.3867l-3.102-1.6266c-.728 1.2266-1.214 1.84-2.373 1.84zM113.124 9.6003v-.72h-3.426v9.84h3.426v-5.36c0-1.2.512-1.6 1.348-1.6.675 0 1.16.3467 1.592.8267l.809-3.4933c-.405-.24-.89-.4267-1.618-.4267-.89 0-1.565.3733-2.131.9333zM124.182 14.507c0 1.2267-.431 1.5734-1.132 1.5734-.702 0-1.133-.3467-1.133-1.6v-5.6h-3.426v6.0266c0 2.5867 1.052 4.0267 3.237 4.0267 1.16 0 1.888-.4 2.481-.8533v.6666h3.426v-9.84h-3.426l-.027 5.6zM136.023 8.667c-1.187 0-1.888.4-2.509.8533v-.6666h-3.425v9.84h3.425V13.067c0-1.2267.432-1.5733 1.16-1.5733.702 0 1.133.3466 1.133 1.6v5.6h3.426V12.667c0-2.5333-1.025-4-3.21-4zM146.03 16.187c-.917 0-1.403-.8-1.403-2.3733 0-1.5467.432-2.4267 1.295-2.4267.728 0 1.052.4 1.537 1.28l2.347-1.76c-.863-1.3867-1.942-2.24-3.83-2.24-3.183 0-4.747 2.08-4.747 5.0933 0 3.3067 1.753 5.1467 4.666 5.1467 1.753 0 2.832-.6667 3.992-2.3467l-2.158-1.68c-.593.96-1.052 1.3067-1.699 1.3067zM157.79 8.6669c-1.186 0-1.888.4-2.508.8533V5.067l-3.426 1.36v12.32h3.426v-5.6267c0-1.2266.432-1.5733 1.16-1.5733.701 0 1.133.3467 1.133 1.6v5.6H161v-6.0267c.027-2.5866-1.025-4.0533-3.21-4.0533z" fill="#000"/></svg>