<svg width="114" height="29" viewBox="0 0 114 29" fill="none" xmlns="http://www.w3.org/2000/svg">
<path fill-rule="evenodd" clip-rule="evenodd" d="M89.3388 12.9704V8.34273H84.9189V6.32267H89.3407V1.68994H91.6273V6.32267H96.0481V8.34273H91.6271L91.6229 12.9704H89.3388Z" fill="url(#paint0_linear_89_2296)"/>
<path d="M0 22.0999V0.605469H7.81074C9.56665 0.605469 11.1056 0.888034 12.4275 1.45318C13.674 1.96205 14.7949 2.73605 15.7123 3.72146C16.6298 4.70687 17.3218 5.88011 17.7405 7.15976C18.1912 8.50094 18.4163 9.9076 18.4066 11.3225C18.4277 12.8334 18.1764 14.3357 17.6648 15.7575C17.2034 17.027 16.4757 18.1831 15.5306 19.1481C14.5804 20.1008 13.4407 20.8434 12.1853 21.3278C10.7891 21.8595 9.30464 22.1215 7.81074 22.0998L0 22.0999ZM14.1984 11.3225C14.2082 10.3574 14.0651 9.39699 13.7746 8.47669C13.517 7.65357 13.0947 6.89141 12.5334 6.2365C11.9811 5.60576 11.2926 5.10882 10.52 4.78321C9.6614 4.4285 8.73927 4.25334 7.81042 4.26854H4.17759V18.4362H7.81042C8.75222 18.454 9.68674 18.2681 10.5501 17.8913C11.3202 17.5482 12.0032 17.036 12.5481 16.3927C13.0995 15.7277 13.5159 14.9617 13.7742 14.1373C14.0634 13.2273 14.2066 12.2773 14.1984 11.3225Z" fill="url(#paint1_linear_89_2296)"/>
<path d="M29.3653 22.4026C28.1714 22.4216 26.9864 22.1948 25.8838 21.7365C24.8968 21.3216 24.0055 20.7085 23.2652 19.9351C22.5488 19.1789 21.9881 18.2891 21.6152 17.3164C20.8483 15.2979 20.8483 13.0683 21.6152 11.0497C21.9882 10.0771 22.5489 9.18738 23.2652 8.43106C24.0054 7.65753 24.8967 7.04439 25.8838 6.62969C26.9864 6.17139 28.1714 5.94467 29.3653 5.96362C30.5543 5.9436 31.7347 6.17039 32.8317 6.62969C33.8128 7.04712 34.6987 7.66003 35.4353 8.43106C36.1513 9.18761 36.7119 10.0773 37.0853 11.0497C37.8521 13.0683 37.8521 15.2979 37.0853 17.3164C36.7136 18.2862 36.1586 19.1753 35.4505 19.9351C34.7175 20.7103 33.8308 21.3238 32.847 21.7365C31.7444 22.1949 30.5592 22.4217 29.3653 22.4026ZM25.2178 14.1983C25.209 14.8528 25.3166 15.5037 25.5356 16.1206C25.7324 16.6705 26.0302 17.1787 26.4136 17.6192C26.778 18.0366 27.2269 18.372 27.7305 18.6031C28.2449 18.8327 28.8019 18.9513 29.3653 18.9513C29.9286 18.9513 30.4856 18.8327 31 18.6031C31.5035 18.3718 31.9524 18.0364 32.317 17.6192C32.7025 17.1746 33.0004 16.661 33.1949 16.1056C33.4131 15.4832 33.5206 14.8275 33.5128 14.168C33.519 13.5186 33.4114 12.8731 33.1949 12.2607C33.0003 11.7053 32.7024 11.1918 32.317 10.7471C31.9522 10.33 31.5034 9.99471 31 9.7632C30.4868 9.53018 29.9289 9.41209 29.3653 9.41718C28.7998 9.41268 28.2408 9.53691 27.7305 9.78046C27.2283 10.0207 26.7802 10.3607 26.4136 10.7796C26.028 11.2241 25.73 11.7377 25.5356 12.2932C25.3195 12.9047 25.2119 13.5493 25.2178 14.1978V14.1983Z" fill="url(#paint2_linear_89_2296)"/>
<path d="M40.1427 14.168C40.1365 13.0918 40.3315 12.0239 40.7179 11.0194C41.0904 10.0475 41.6569 9.16163 42.3829 8.41577C43.1344 7.65235 44.0295 7.04529 45.0168 6.62961C46.1192 6.17097 47.3043 5.94424 48.4982 5.96354C50.2337 5.96354 51.712 6.3369 52.9333 7.08363C54.1083 7.78064 55.059 8.79967 55.673 10.0201L51.7071 11.2311C51.3843 10.6664 50.9134 10.2005 50.3452 9.88395C49.7702 9.56875 49.1237 9.40714 48.4681 9.41472C47.9046 9.40964 47.3469 9.5278 46.8338 9.7609C46.3332 9.99025 45.8849 10.32 45.5169 10.7296C45.1294 11.1672 44.8312 11.6762 44.6389 12.2282C44.4209 12.8506 44.3133 13.5063 44.3211 14.1657C44.313 14.8265 44.4257 15.4831 44.6537 16.1033C44.8572 16.6578 45.1598 17.1707 45.5468 17.6169C45.9113 18.0344 46.3601 18.3697 46.8638 18.6008C47.3667 18.8328 47.9144 18.9517 48.4683 18.9492C49.1765 18.9541 49.8725 18.7657 50.4815 18.4043C51.0376 18.1036 51.487 17.6384 51.7682 17.0723L55.7341 18.2833C55.1891 19.4943 54.291 20.4832 53.0397 21.2501C51.7884 22.017 50.2846 22.4003 48.5283 22.4001C47.3344 22.4192 46.1494 22.1924 45.0469 21.734C44.0659 21.3238 43.1781 20.7194 42.4367 19.9572C41.6954 19.195 41.1158 18.2908 40.7328 17.2989C40.3399 16.302 40.1396 15.2395 40.1427 14.168Z" fill="url(#paint3_linear_89_2296)"/>
<path d="M58.3066 11.2015C58.3109 9.88533 58.5413 8.5797 58.9876 7.34155C59.4322 6.07647 60.1099 4.90589 60.9856 3.89037C61.8814 2.85776 62.9784 2.01889 64.2097 1.42515C65.5612 0.782921 67.0428 0.461751 68.5389 0.486702C70.4559 0.486702 72.1008 0.920609 73.4734 1.78843C74.797 2.60169 75.8585 3.7788 76.5311 5.17912L74.3817 6.57176C74.0925 5.93521 73.6985 5.35171 73.2161 4.84561C72.7828 4.39745 72.2824 4.01955 71.7327 3.72552C71.2132 3.44875 70.658 3.24502 70.0828 3.1201C69.5357 3.00097 68.9776 2.94009 68.4177 2.93846C67.3177 2.91679 66.2299 3.17185 65.2542 3.68022C64.356 4.15811 63.5673 4.81813 62.9387 5.6181C62.3091 6.42285 61.832 7.33601 61.5311 8.31248C61.2219 9.28674 61.0637 10.3026 61.0618 11.3247C61.0569 12.4242 61.2473 13.5158 61.624 14.5488C61.9788 15.5369 62.5059 16.4543 63.181 17.2583C63.8347 18.0357 64.6376 18.6739 65.5423 19.1353C66.461 19.6024 67.4787 19.8414 68.5093 19.832C69.0958 19.8295 69.68 19.7584 70.25 19.6202C70.8501 19.4773 71.4262 19.2479 71.9603 18.9392C72.52 18.6151 73.0341 18.218 73.4891 17.7585C73.9777 17.2633 74.3725 16.6839 74.6547 16.0481L76.9251 17.2894C76.5884 18.0871 76.1 18.8119 75.4872 19.4236C74.8691 20.0401 74.1656 20.5645 73.3982 20.9806C72.6201 21.405 71.7919 21.7304 70.933 21.9493C70.1026 22.1662 69.2483 22.278 68.39 22.2819C66.9788 22.2968 65.5855 21.9641 64.3333 21.3132C63.1181 20.6804 62.0343 19.8226 61.1394 18.7853C59.3282 16.672 58.3251 13.9848 58.3087 11.2016L58.3066 11.2015Z" fill="url(#paint4_linear_89_2296)"/>
<path d="M80.6787 3.33019V0H83.3424V3.33019H80.6787ZM80.6787 22.1V6.2971H83.3424V22.1H80.6787Z" fill="url(#paint5_linear_89_2296)"/>
<path d="M95.9364 19.1931C95.65 19.3526 95.3514 19.4893 95.0435 19.6018C94.5849 19.7787 94.0968 19.8668 93.6054 19.8614C93.1689 19.8705 92.7421 19.7319 92.3944 19.4678C92.0516 19.2055 91.8598 18.7817 91.8192 18.1963V15.0107H89.1533V19.0143C89.1533 20.1448 89.5065 20.9773 90.2129 21.5118C90.9374 22.0524 91.822 22.3348 92.7257 22.3141C93.1367 22.3151 93.547 22.2797 93.9517 22.2081C94.321 22.1435 94.6852 22.0524 95.0415 21.9356C95.3745 21.8248 95.6722 21.714 95.9345 21.603C96.1969 21.4921 96.4088 21.3962 96.5704 21.3155L95.9364 19.1931Z" fill="url(#paint6_linear_89_2296)"/>
<path d="M100.538 26.3988C100.8 26.4391 101.062 26.4693 101.325 26.4895C101.587 26.5097 101.789 26.5198 101.93 26.5198C102.158 26.5232 102.383 26.4657 102.581 26.3532C102.823 26.1869 103.02 25.964 103.156 25.7039C103.403 25.2702 103.62 24.8201 103.805 24.3567C104.048 23.78 104.35 23.0282 104.714 22.1013L98.0234 6.29834H100.778L106.167 19.7097L111.071 6.29834H113.614L105.924 26.2488C105.623 26.9801 105.138 27.6213 104.517 28.1107C103.861 28.6455 102.958 28.9129 101.808 28.9129C101.62 28.9126 101.432 28.9025 101.245 28.8827C101.006 28.8545 100.769 28.8141 100.534 28.7615L100.538 26.3988Z" fill="url(#paint7_linear_89_2296)"/>
<defs>
<linearGradient id="paint0_linear_89_2296" x1="75.0855" y1="-9.00615" x2="96.5562" y2="-7.77179" gradientUnits="userSpaceOnUse">
<stop offset="0.539916" stop-color="#E1B570"/>
<stop offset="1" stop-color="#F1E2C9"/>
</linearGradient>
<linearGradient id="paint1_linear_89_2296" x1="-16.2646" y1="-19.7766" x2="19.2771" y2="-18.003" gradientUnits="userSpaceOnUse">
<stop offset="0.539916" stop-color="#E1B570"/>
<stop offset="1" stop-color="#F1E2C9"/>
</linearGradient>
<linearGradient id="paint2_linear_89_2296" x1="6.3548" y1="-9.62718" x2="38.4139" y2="-7.73867" gradientUnits="userSpaceOnUse">
<stop offset="0.539916" stop-color="#E1B570"/>
<stop offset="1" stop-color="#F1E2C9"/>
</linearGradient>
<linearGradient id="paint3_linear_89_2296" x1="26.3664" y1="-9.62484" x2="56.4534" y2="-7.96197" gradientUnits="userSpaceOnUse">
<stop offset="0.539916" stop-color="#E1B570"/>
<stop offset="1" stop-color="#F1E2C9"/>
</linearGradient>
<linearGradient id="paint4_linear_89_2296" x1="41.8559" y1="-20.1826" x2="77.8048" y2="-18.3932" gradientUnits="userSpaceOnUse">
<stop offset="0.539916" stop-color="#E1B570"/>
<stop offset="1" stop-color="#F1E2C9"/>
</linearGradient>
<linearGradient id="paint5_linear_89_2296" x1="78.3252" y1="-20.9552" x2="83.4807" y2="-20.919" gradientUnits="userSpaceOnUse">
<stop offset="0.539916" stop-color="#E1B570"/>
<stop offset="1" stop-color="#F1E2C9"/>
</linearGradient>
<linearGradient id="paint6_linear_89_2296" x1="82.5999" y1="8.08473" x2="96.9062" y2="8.93125" gradientUnits="userSpaceOnUse">
<stop offset="0.539916" stop-color="#E1B570"/>
<stop offset="1" stop-color="#F1E2C9"/>
</linearGradient>
<linearGradient id="paint7_linear_89_2296" x1="84.2477" y1="-15.1448" x2="114.377" y2="-13.9343" gradientUnits="userSpaceOnUse">
<stop offset="0.539916" stop-color="#E1B570"/>
<stop offset="1" stop-color="#F1E2C9"/>
</linearGradient>
</defs>
</svg>
