<svg width="145" height="64" viewBox="0 0 145 64" fill="none" xmlns="http://www.w3.org/2000/svg">
<path d="M37.1416 15.2561L39.8478 12.0181C41.6009 13.3999 43.5049 14.1249 45.5329 14.1249C46.861 14.1249 47.5624 13.673 47.5624 12.9219V12.8725C47.5624 12.1169 46.9865 11.7413 44.5813 11.1645C40.848 10.3139 37.9677 9.25897 37.9677 5.67165V5.62227C37.9677 2.35739 40.5485 0 44.7561 0C47.7387 0 50.0677 0.804999 51.9702 2.33494L49.5411 5.7704C47.9381 4.61677 46.185 4.03921 44.6314 4.03921C43.4549 4.03921 42.8782 4.51727 42.8782 5.17039V5.21977C42.8782 6.02103 43.4788 6.3734 45.9348 6.92403C49.943 7.80459 52.4483 9.1071 52.4483 12.3944V12.4438C52.4483 16.0349 49.6173 18.1641 45.3589 18.1641C42.253 18.1641 39.3212 17.1885 37.1423 15.2561H37.1416Z" fill="url(#paint0_linear_301_81)"/>
<path d="M54.5508 0.300293H59.6846L63.8691 7.10313L68.0513 0.300293H73.1867V17.8644H68.3523V7.77795L63.8683 14.6526H63.7683L59.3089 7.80488V17.8644H54.5508V0.300293Z" fill="url(#paint1_linear_301_81)"/>
<path d="M81.8535 0.174316H86.5362L94.0028 17.8641H88.7913L87.5386 14.7017H80.7503L79.4976 17.8641H74.4131L81.8528 0.174316H81.8535ZM86.112 10.9131L84.1579 5.94771L82.1777 10.9131H86.112Z" fill="url(#paint2_linear_301_81)"/>
<path d="M95.4536 0.300293H103.744C106.423 0.300293 108.279 1.00654 109.455 2.18336C110.482 3.21205 111.008 4.54075 111.008 6.27194V6.32506C111.008 9.03183 109.581 10.8161 107.401 11.7423L111.583 17.8651H105.998L102.466 12.5466H100.311V17.8651H95.4521V0.300293H95.4536ZM103.543 8.73108C105.171 8.73108 106.149 7.92982 106.149 6.6505V6.59738C106.149 5.19312 105.122 4.49062 103.519 4.49062H100.312V8.73108H103.542H103.543Z" fill="url(#paint3_linear_301_81)"/>
<path d="M117.495 4.56693H112.259V0.300293H127.614V4.56693H122.353V17.8644H117.494V4.56693H117.495Z" fill="url(#paint4_linear_301_81)"/>
<path d="M26.9168 31.6211V31.5718C26.9168 26.4507 30.9249 22.4385 36.3352 22.4385C39.4164 22.4385 41.596 23.3647 43.4492 24.9702L40.5936 28.4363C39.3409 27.3807 38.1129 26.7777 36.3598 26.7777C33.8299 26.7777 31.8758 28.8882 31.8758 31.5718V31.6211C31.8758 34.4798 33.8545 36.514 36.634 36.514C37.8373 36.514 38.7396 36.2633 39.4403 35.7853V33.6516H36.0087V30.0912H44.049V37.9684C42.1958 39.5245 39.6412 40.7051 36.4345 40.7051C30.9727 40.7051 26.916 36.9397 26.916 31.6211H26.9168Z" fill="url(#paint5_linear_301_81)"/>
<path d="M46.1777 31.6211V31.5718C46.1777 26.5271 50.2352 22.4385 55.6454 22.4385C61.0557 22.4385 65.0638 26.4777 65.0638 31.5186V31.5718C65.0638 36.6127 61.0064 40.7051 55.5961 40.7051C50.1859 40.7051 46.1777 36.6621 46.1777 31.6211ZM60.0794 31.6211V31.5718C60.0794 29.0131 58.2755 26.8308 55.5954 26.8308C52.9153 26.8308 51.136 28.9869 51.136 31.5186V31.5718C51.136 34.1035 52.9646 36.3127 55.6447 36.3127C58.3248 36.3127 60.0794 34.1528 60.0794 31.6211Z" fill="url(#paint6_linear_301_81)"/>
<path d="M66.9922 31.6211V31.5718C66.9922 26.5271 71.0497 22.4385 76.4599 22.4385C81.8701 22.4385 85.8783 26.4777 85.8783 31.5186V31.5718C85.8783 36.6127 81.8208 40.7051 76.4106 40.7051C71.0004 40.7051 66.9922 36.6621 66.9922 31.6211ZM80.8938 31.6211V31.5718C80.8938 29.0131 79.0899 26.8308 76.4098 26.8308C73.7298 26.8308 71.9505 28.9869 71.9505 31.5186V31.5718C71.9505 34.1035 73.7791 36.3127 76.4591 36.3127C79.1392 36.3127 80.8938 34.1528 80.8938 31.6211Z" fill="url(#paint7_linear_301_81)"/>
<path d="M88.1318 22.7876H94.9202C101.157 22.7876 104.79 26.4011 104.79 31.469V31.5184C104.79 36.59 101.108 40.3517 94.8201 40.3517H88.1326V22.7876H88.1318ZM92.9908 27.0812V36.0364H94.9695C97.9013 36.0364 99.83 34.4309 99.83 31.5947V31.5453C99.83 28.7361 97.9006 27.0812 94.9695 27.0812H92.9908Z" fill="url(#paint8_linear_301_81)"/>
<path d="M36.954 49.6861H31.7178V45.4194H47.073V49.6861H41.8122V62.9835H36.9532V49.6861H36.954Z" fill="url(#paint9_linear_301_81)"/>
<path d="M49.7041 45.4194H54.5631V51.9941H60.7994V45.4194H65.6599V62.9835H60.7994V56.3101H54.5631V62.9835H49.7041V45.4194Z" fill="url(#paint10_linear_301_81)"/>
<path d="M68.8887 45.4194H73.7476V62.9835H68.8887V45.4194Z" fill="url(#paint11_linear_301_81)"/>
<path d="M76.9548 45.4194H81.4874L88.7015 54.7046V45.4194H93.5112V62.9835H89.2774L81.7638 53.349V62.9835H76.9541V45.4194H76.9548Z" fill="url(#paint12_linear_301_81)"/>
<path d="M95.5388 54.253V54.2036C95.5388 49.0826 99.547 45.0703 104.957 45.0703C108.038 45.0703 110.218 45.9965 112.071 47.602L109.216 51.0681C107.963 50.0125 106.735 49.4095 104.982 49.4095C102.452 49.4095 100.498 51.52 100.498 54.2036V54.253C100.498 57.1116 102.477 59.1458 105.256 59.1458C106.459 59.1458 107.362 58.8952 108.062 58.4171V56.2834H104.631V52.723H112.671V60.6002C110.818 62.1563 108.263 63.3369 105.057 63.3369C99.5948 63.3369 95.5381 59.5715 95.5381 54.253H95.5388Z" fill="url(#paint13_linear_301_81)"/>
<path d="M114.55 60.3767L117.256 57.1387C119.009 58.5205 120.913 59.2455 122.941 59.2455C124.269 59.2455 124.971 58.7936 124.971 58.0425V57.9931C124.971 57.2375 124.395 56.8619 121.99 56.2851C118.256 55.4345 115.376 54.3796 115.376 50.7923V50.7429C115.376 47.478 117.957 45.1206 122.164 45.1206C125.147 45.1206 127.476 45.9256 129.378 47.4556L126.949 50.891C125.346 49.7374 123.593 49.1598 122.04 49.1598C120.863 49.1598 120.286 49.6379 120.286 50.291V50.3404C120.286 51.1416 120.887 51.494 123.343 52.0446C127.351 52.9252 129.856 54.2277 129.856 57.515V57.5644C129.856 61.1555 127.026 63.2847 122.767 63.2847C119.661 63.2847 116.729 62.3091 114.551 60.3767H114.55Z" fill="url(#paint14_linear_301_81)"/>
<path d="M144.717 36.0356H109.123V40.3517H144.717V36.0356Z" fill="url(#paint15_linear_301_81)"/>
<path d="M32.8341 13.5527H0V17.8688H32.8341V13.5527Z" fill="url(#paint16_linear_301_81)"/>
<path d="M27.32 58.6724H0V62.9884H27.32V58.6724Z" fill="url(#paint17_linear_301_81)"/>
<defs>
<linearGradient id="paint0_linear_301_81" x1="23.6171" y1="-17.2231" x2="53.1734" y2="-15.7718" gradientUnits="userSpaceOnUse">
<stop offset="0.539916" stop-color="#E1B570"/>
<stop offset="1" stop-color="#F1E2C9"/>
</linearGradient>
<linearGradient id="paint1_linear_301_81" x1="38.0847" y1="-16.3539" x2="74.0189" y2="-14.1322" gradientUnits="userSpaceOnUse">
<stop offset="0.539916" stop-color="#E1B570"/>
<stop offset="1" stop-color="#F1E2C9"/>
</linearGradient>
<linearGradient id="paint2_linear_301_81" x1="57.1042" y1="-16.5991" x2="94.8649" y2="-14.1623" gradientUnits="userSpaceOnUse">
<stop offset="0.539916" stop-color="#E1B570"/>
<stop offset="1" stop-color="#F1E2C9"/>
</linearGradient>
<linearGradient id="paint3_linear_301_81" x1="81.199" y1="-16.3546" x2="112.334" y2="-14.6884" gradientUnits="userSpaceOnUse">
<stop offset="0.539916" stop-color="#E1B570"/>
<stop offset="1" stop-color="#F1E2C9"/>
</linearGradient>
<linearGradient id="paint4_linear_301_81" x1="98.6914" y1="-16.3539" x2="128.336" y2="-14.8437" gradientUnits="userSpaceOnUse">
<stop offset="0.539916" stop-color="#E1B570"/>
<stop offset="1" stop-color="#F1E2C9"/>
</linearGradient>
<linearGradient id="paint5_linear_301_81" x1="11.7778" y1="5.11814" x2="44.8417" y2="6.92528" gradientUnits="userSpaceOnUse">
<stop offset="0.539916" stop-color="#E1B570"/>
<stop offset="1" stop-color="#F1E2C9"/>
</linearGradient>
<linearGradient id="paint6_linear_301_81" x1="29.4906" y1="5.11814" x2="65.9143" y2="7.31262" gradientUnits="userSpaceOnUse">
<stop offset="0.539916" stop-color="#E1B570"/>
<stop offset="1" stop-color="#F1E2C9"/>
</linearGradient>
<linearGradient id="paint7_linear_301_81" x1="50.305" y1="5.11814" x2="86.7288" y2="7.31262" gradientUnits="userSpaceOnUse">
<stop offset="0.539916" stop-color="#E1B570"/>
<stop offset="1" stop-color="#F1E2C9"/>
</linearGradient>
<linearGradient id="paint8_linear_301_81" x1="73.4134" y1="6.13338" x2="105.558" y2="7.90989" gradientUnits="userSpaceOnUse">
<stop offset="0.539916" stop-color="#E1B570"/>
<stop offset="1" stop-color="#F1E2C9"/>
</linearGradient>
<linearGradient id="paint9_linear_301_81" x1="18.1504" y1="28.7652" x2="47.795" y2="30.2754" gradientUnits="userSpaceOnUse">
<stop offset="0.539916" stop-color="#E1B570"/>
<stop offset="1" stop-color="#F1E2C9"/>
</linearGradient>
<linearGradient id="paint10_linear_301_81" x1="35.6061" y1="28.7652" x2="66.4038" y2="30.3955" gradientUnits="userSpaceOnUse">
<stop offset="0.539916" stop-color="#E1B570"/>
<stop offset="1" stop-color="#F1E2C9"/>
</linearGradient>
<linearGradient id="paint11_linear_301_81" x1="64.5954" y1="28.7652" x2="73.998" y2="28.9168" gradientUnits="userSpaceOnUse">
<stop offset="0.539916" stop-color="#E1B570"/>
<stop offset="1" stop-color="#F1E2C9"/>
</linearGradient>
<linearGradient id="paint12_linear_301_81" x1="62.3248" y1="28.7652" x2="94.2763" y2="30.5203" gradientUnits="userSpaceOnUse">
<stop offset="0.539916" stop-color="#E1B570"/>
<stop offset="1" stop-color="#F1E2C9"/>
</linearGradient>
<linearGradient id="paint13_linear_301_81" x1="80.3999" y1="27.75" x2="113.464" y2="29.5571" gradientUnits="userSpaceOnUse">
<stop offset="0.539916" stop-color="#E1B570"/>
<stop offset="1" stop-color="#F1E2C9"/>
</linearGradient>
<linearGradient id="paint14_linear_301_81" x1="101.025" y1="27.8975" x2="130.582" y2="29.3488" gradientUnits="userSpaceOnUse">
<stop offset="0.539916" stop-color="#E1B570"/>
<stop offset="1" stop-color="#F1E2C9"/>
</linearGradient>
<linearGradient id="paint15_linear_301_81" x1="77.6732" y1="31.9432" x2="133.643" y2="58.8406" gradientUnits="userSpaceOnUse">
<stop offset="0.539916" stop-color="#E1B570"/>
<stop offset="1" stop-color="#F1E2C9"/>
</linearGradient>
<linearGradient id="paint16_linear_301_81" x1="-29.0112" y1="9.4603" x2="24.1043" y2="33.0066" gradientUnits="userSpaceOnUse">
<stop offset="0.539916" stop-color="#E1B570"/>
<stop offset="1" stop-color="#F1E2C9"/>
</linearGradient>
<linearGradient id="paint17_linear_301_81" x1="-24.1391" y1="54.5799" x2="22.4085" y2="71.7493" gradientUnits="userSpaceOnUse">
<stop offset="0.539916" stop-color="#E1B570"/>
<stop offset="1" stop-color="#F1E2C9"/>
</linearGradient>
</defs>
</svg>
