<svg width="110" height="41" viewBox="0 0 110 41" fill="none" xmlns="http://www.w3.org/2000/svg">
<path opacity="0.962" fill-rule="evenodd" clip-rule="evenodd" d="M50.7815 0.385742C51.2098 0.385742 51.6382 0.385742 52.0665 0.385742C52.0486 4.20524 52.0665 8.02458 52.12 11.8438C56.3502 9.45981 60.5086 9.58475 64.5953 12.2185C68.2902 15.1326 69.7716 18.9341 69.0393 23.623C67.8673 28.4003 64.8868 31.3451 60.0978 32.4575C55.2747 33.1054 51.4375 31.4813 48.5863 27.5851C47.698 26.1698 47.1269 24.635 46.8729 22.9805C46.8015 16.7696 46.8015 10.5587 46.8729 4.34786C47.4138 2.2544 48.7166 0.933695 50.7815 0.385742ZM57.742 15.3775C61.0355 15.5487 63.0879 17.2263 63.8993 20.4105C64.1651 23.3961 62.9693 25.5557 60.312 26.8891C56.3978 27.9928 53.7028 26.6542 52.2271 22.8734C51.6752 19.3539 53.0494 16.9445 56.3499 15.6452C56.828 15.5516 57.292 15.4624 57.742 15.3775Z" fill="url(#paint0_linear_175_31)"/>
<path opacity="0.96" fill-rule="evenodd" clip-rule="evenodd" d="M75.6254 0.385742C76.0894 0.385742 76.5535 0.385742 77.0175 0.385742C77.0691 9.74063 77.0156 19.0926 76.8569 28.4418C76.0727 30.9308 74.3772 32.2158 71.7704 32.2968C71.7525 22.9804 71.7704 13.6641 71.8239 4.34786C72.3533 2.30171 73.6205 0.981006 75.6254 0.385742Z" fill="url(#paint1_linear_175_31)"/>
<path opacity="0.966" fill-rule="evenodd" clip-rule="evenodd" d="M0.344727 23.6229C0.344727 17.4834 0.344727 11.3438 0.344727 5.20438C1.25271 2.19196 3.2873 0.62139 6.44853 0.492676C6.43068 7.88157 6.44853 15.2704 6.50207 22.6591C7.17641 26.1176 9.22886 28.2414 12.6594 29.0306C15.7463 29.3517 18.1914 28.2629 19.9947 25.7645C21.9556 22.0764 21.4024 18.8103 18.3349 15.9663C17.5657 15.3943 16.7269 14.9481 15.8184 14.6278C15.6161 12.2126 16.5263 10.3565 18.549 9.05941C24.1422 11.4254 27.0691 15.6553 27.3299 21.7489C27.0601 28.0025 24.0261 32.2859 18.2278 34.599C12.0428 36.3204 6.92061 34.732 2.86121 29.8337C1.52791 27.9563 0.689087 25.8861 0.344727 23.6229Z" fill="url(#paint2_linear_175_31)"/>
<path opacity="0.962" fill-rule="evenodd" clip-rule="evenodd" d="M19.942 0.492617C25.1864 0.0907084 29.4162 1.94683 32.6315 6.06099C34.0448 8.08726 34.8658 10.336 35.0944 12.8073C35.1993 18.7365 35.1636 24.6619 34.9873 30.5833C34.114 33.6156 32.0972 35.1862 28.9371 35.295C28.955 27.8704 28.9371 20.4459 28.8835 13.0215C28.3584 10.1773 26.77 8.19623 24.1183 7.07829C20.2187 5.986 17.2025 7.14608 15.0697 10.5585C13.5878 13.9285 14.141 16.9089 16.7295 19.5001C17.5433 20.2107 18.4714 20.7282 19.5137 21.0528C19.7999 23.3533 19.0147 25.1915 17.1578 26.5676C16.9437 26.639 16.7295 26.639 16.5153 26.5676C11.1212 24.1165 8.30126 19.9223 8.05566 13.9852C8.31808 7.78202 11.3165 3.51649 17.0507 1.18866C18.0164 0.9025 18.9802 0.670484 19.942 0.492617Z" fill="url(#paint3_linear_175_31)"/>
<path opacity="0.919" fill-rule="evenodd" clip-rule="evenodd" d="M84.5123 1.6709C84.7265 1.6709 84.9406 1.6709 85.1548 1.6709C85.1548 3.74119 85.1548 5.81149 85.1548 7.88178C83.37 7.88178 81.5854 7.88178 79.8006 7.88178C79.6093 5.53467 80.466 3.69639 82.3706 2.36695C83.0552 2.00043 83.7691 1.76841 84.5123 1.6709Z" fill="url(#paint4_linear_175_31)"/>
<path opacity="0.963" fill-rule="evenodd" clip-rule="evenodd" d="M110 19.6609C110 25.1936 110 30.7262 110 36.2589C109.392 38.2221 108.107 39.5071 106.144 40.1139C105.68 40.1139 105.216 40.1139 104.752 40.1139C104.788 37.0791 104.752 34.045 104.645 31.0118C101.212 32.9219 97.678 33.1181 94.044 31.6008C88.984 28.8173 86.9316 24.5517 87.8866 18.8042C89.5161 13.3843 93.157 10.4931 98.8092 10.1304C103.751 10.3626 107.249 12.7184 109.303 17.1979C109.617 18.0109 109.849 18.8319 110 19.6609ZM98.5415 15.3775C101.792 15.5414 103.844 17.1834 104.699 20.3034C105.054 23.4672 103.787 25.6981 100.897 26.9961C97.5022 27.9128 94.9858 26.824 93.3479 23.7301C92.328 20.6511 93.1312 18.1704 95.7573 16.2877C96.6257 15.7542 97.5537 15.4508 98.5415 15.3775Z" fill="url(#paint5_linear_175_31)"/>
<path opacity="0.936" fill-rule="evenodd" clip-rule="evenodd" d="M79.9093 10.3444C81.6488 10.3096 83.38 10.3453 85.1029 10.4515C85.1743 16.234 85.1743 22.0166 85.1029 27.7991C84.5384 30.7141 82.7715 32.2133 79.8022 32.2967C79.7669 24.9717 79.8027 17.6542 79.9093 10.3444Z" fill="url(#paint6_linear_175_31)"/>
<defs>
<linearGradient id="paint0_linear_175_31" x1="27.0259" y1="-30.156" x2="70.3155" y2="-28.4016" gradientUnits="userSpaceOnUse">
<stop offset="0.539916" stop-color="#E1B570"/>
<stop offset="1" stop-color="#F1E2C9"/>
</linearGradient>
<linearGradient id="paint1_linear_175_31" x1="67.1048" y1="-29.8723" x2="77.3099" y2="-29.774" gradientUnits="userSpaceOnUse">
<stop offset="0.539916" stop-color="#E1B570"/>
<stop offset="1" stop-color="#F1E2C9"/>
</linearGradient>
<linearGradient id="paint2_linear_175_31" x1="-23.4986" y1="-32.4835" x2="28.6275" y2="-30.1267" gradientUnits="userSpaceOnUse">
<stop offset="0.539916" stop-color="#E1B570"/>
<stop offset="1" stop-color="#F1E2C9"/>
</linearGradient>
<linearGradient id="paint3_linear_175_31" x1="-15.8868" y1="-32.6114" x2="36.4556" y2="-30.2403" gradientUnits="userSpaceOnUse">
<stop offset="0.539916" stop-color="#E1B570"/>
<stop offset="1" stop-color="#F1E2C9"/>
</linearGradient>
<linearGradient id="paint4_linear_175_31" x1="75.0205" y1="-4.21825" x2="85.4083" y2="-3.69387" gradientUnits="userSpaceOnUse">
<stop offset="0.539916" stop-color="#E1B570"/>
<stop offset="1" stop-color="#F1E2C9"/>
</linearGradient>
<linearGradient id="paint5_linear_175_31" x1="67.92" y1="-18.3" x2="111.081" y2="-16.4261" gradientUnits="userSpaceOnUse">
<stop offset="0.539916" stop-color="#E1B570"/>
<stop offset="1" stop-color="#F1E2C9"/>
</linearGradient>
<linearGradient id="paint6_linear_175_31" x1="75.0466" y1="-10.4958" x2="85.4336" y2="-10.3478" gradientUnits="userSpaceOnUse">
<stop offset="0.539916" stop-color="#E1B570"/>
<stop offset="1" stop-color="#F1E2C9"/>
</linearGradient>
</defs>
</svg>
