<svg width="157" height="14" viewBox="0 0 157 14" fill="none" xmlns="http://www.w3.org/2000/svg">
<path opacity="0.983" fill-rule="evenodd" clip-rule="evenodd" d="M8.49194 6.94692C8.23173 6.94692 7.97141 6.94692 7.71119 6.94692C5.28004 6.11138 2.82626 5.30845 0.34985 4.53791C0.0679325 4.24964 -0.043603 3.89483 0.0152431 3.47346C0.0338361 3.21202 0.0524179 2.95057 0.0710109 2.68913C0.126779 2.63311 0.182546 2.57708 0.238314 2.52106C2.87044 1.70185 5.49153 0.861496 8.10157 0C10.6031 0.825182 13.1126 1.62819 15.6302 2.40901C16.1206 2.61984 16.3066 2.99333 16.1879 3.52948C16.2451 3.93331 16.1336 4.26945 15.8533 4.53791C13.3683 5.28918 10.9145 6.09222 8.49194 6.94692Z" fill="url(#paint0_linear_89_2320)"/>
<path opacity="0.974" fill-rule="evenodd" clip-rule="evenodd" d="M26.7835 0.111872C29.0462 -0.155707 31.0352 0.441885 32.7506 1.90463C32.8218 2.02884 32.8776 2.15957 32.9179 2.29679C32.4981 2.9804 32.0334 3.634 31.5237 4.25761C31.4241 4.32276 31.3126 4.36011 31.1891 4.36966C30.8098 4.17706 30.4566 3.9343 30.1295 3.64135C29.0425 3.0241 27.89 2.83736 26.6719 3.08112C25.9834 3.4103 25.8348 3.89585 26.2258 4.53773C27.6163 5.05505 29.0291 5.50324 30.4642 5.8823C33.1481 7.1733 33.836 9.17155 32.5276 11.8768C31.8331 12.8709 30.8851 13.4872 29.6834 13.7256C27.3888 14.169 25.2696 13.7582 23.3259 12.4931C22.962 12.1845 22.6646 11.8296 22.4336 11.4286C22.7294 10.8349 23.0826 10.2747 23.4932 9.74792C23.6537 9.52965 23.8581 9.38029 24.1066 9.29973C24.765 9.8287 25.4714 10.2955 26.2258 10.7003C27.2252 11.0991 28.229 11.1364 29.2373 10.8124C30.1268 10.3442 30.2383 9.74669 29.5719 9.01961C28.1284 8.55428 26.6784 8.10609 25.222 7.67505C22.8258 6.42931 22.2123 4.58059 23.3816 2.12872C24.2558 1.00826 25.3897 0.335978 26.7835 0.111872Z" fill="url(#paint1_linear_89_2320)"/>
<path opacity="0.989" fill-rule="evenodd" clip-rule="evenodd" d="M93.1469 0.223935C94.1416 0.188394 95.1268 0.225739 96.1026 0.335983C96.1949 4.78515 96.1763 9.22972 96.0469 13.6696C95.0824 13.8001 94.1157 13.8188 93.1469 13.7256C93.0771 13.6416 93.0213 13.5481 92.9796 13.4455C92.9052 9.11297 92.9052 4.78055 92.9796 0.44803C93.0596 0.387054 93.1154 0.312352 93.1469 0.223935Z" fill="url(#paint2_linear_89_2320)"/>
<path opacity="0.976" fill-rule="evenodd" clip-rule="evenodd" d="M42.5107 0.336377C43.6539 0.300589 44.7878 0.337934 45.9126 0.448424C47.567 4.6875 49.2215 8.92669 50.8759 13.1658C50.845 13.3778 50.7335 13.5271 50.5413 13.614C49.6119 13.6887 48.6823 13.6887 47.7529 13.614C47.3751 12.8731 47.0405 12.1075 46.7491 11.317C45.0033 11.2051 43.2559 11.1676 41.5069 11.2049C41.3072 12.0721 40.9725 12.8751 40.5031 13.614C39.5737 13.6887 38.6441 13.6887 37.7147 13.614C37.5592 13.5068 37.4848 13.3575 37.4916 13.1658C39.1105 8.8654 40.7835 4.58899 42.5107 0.336377ZM44.0722 4.03393C44.7363 5.43575 45.294 6.89236 45.7453 8.40376C44.6665 8.42236 43.5883 8.40376 42.5107 8.34774C43.0864 6.93046 43.6069 5.49256 44.0722 4.03393Z" fill="url(#paint3_linear_89_2320)"/>
<path opacity="0.971" fill-rule="evenodd" clip-rule="evenodd" d="M55.6713 0.335969C56.9259 0.300036 58.1714 0.337381 59.4078 0.448016C60.3519 2.94193 61.3557 5.407 62.4192 7.84312C63.3676 5.32229 64.3901 2.83862 65.4865 0.391993C66.715 0.298725 67.9419 0.317392 69.1671 0.448016C69.2409 2.60954 69.278 4.77583 69.2787 6.94675C69.296 9.16012 69.2402 11.3636 69.1114 13.5575C68.2093 13.6862 67.2985 13.7049 66.3788 13.6135C66.323 13.5575 66.2672 13.5015 66.2114 13.4455C66.1743 11.0925 66.1371 8.7395 66.0999 6.38651C65.1115 8.73042 64.1448 11.0834 63.2 13.4455C63.1442 13.5015 63.0885 13.5575 63.0327 13.6135C62.5865 13.6883 62.1404 13.6883 61.6943 13.6135C60.608 11.2003 59.5856 8.75384 58.627 6.27446C58.5899 8.66476 58.5526 11.0552 58.5155 13.4455C58.4597 13.5015 58.404 13.5575 58.3482 13.6135C57.4559 13.6883 56.5636 13.6883 55.6713 13.6135C55.6156 13.5575 55.5598 13.5015 55.504 13.4455C55.4296 9.15038 55.4296 4.85516 55.504 0.560063C55.584 0.499087 55.6398 0.424386 55.6713 0.335969Z" fill="url(#paint4_linear_89_2320)"/>
<path opacity="0.945" fill-rule="evenodd" clip-rule="evenodd" d="M79.4288 0.33618C80.5466 0.298992 81.662 0.336348 82.7749 0.448227C84.4473 4.70489 86.1203 8.96268 87.794 13.2216C87.7472 13.3529 87.673 13.465 87.5709 13.5577C86.6097 13.6851 85.643 13.7038 84.671 13.6138C84.2936 12.8504 83.9589 12.066 83.6672 11.2608C81.9186 11.1674 80.1712 11.1861 78.425 11.3168C78.1336 12.1073 77.799 12.8729 77.4212 13.6138C76.4918 13.6885 75.5622 13.6885 74.6328 13.6138C74.577 13.5577 74.5213 13.5017 74.4655 13.4457C74.4441 13.0595 74.5185 12.686 74.6886 12.3252C76.2597 8.3174 77.8397 4.32107 79.4288 0.33618ZM80.9903 3.92169C81.6053 5.38368 82.163 6.8776 82.6634 8.40357C81.5826 8.44077 80.5045 8.40334 79.4288 8.29152C79.9827 6.84342 80.5032 5.38681 80.9903 3.92169Z" fill="url(#paint5_linear_89_2320)"/>
<path opacity="0.973" fill-rule="evenodd" clip-rule="evenodd" d="M101.847 0.336101C104.19 0.317434 106.532 0.336101 108.874 0.392125C111.406 1.27698 112.465 3.05106 112.053 5.71436C111.564 7.47507 110.43 8.53951 108.651 8.9077C107.387 8.96372 106.123 8.98243 104.859 8.96372C104.877 10.4581 104.859 11.9521 104.803 13.4456C104.747 13.5016 104.691 13.5576 104.636 13.6137C103.743 13.6884 102.851 13.6884 101.959 13.6137C101.903 13.5576 101.847 13.5016 101.791 13.4456C101.7 9.07117 101.718 4.70134 101.847 0.336101ZM104.859 3.13728C105.983 3.08984 107.098 3.14586 108.205 3.30535C109.033 3.91266 109.201 4.67837 108.707 5.60231C108.549 5.74652 108.382 5.87727 108.205 5.99448C107.097 6.15078 105.981 6.2068 104.859 6.16255C104.859 5.15412 104.859 4.1457 104.859 3.13728Z" fill="url(#paint6_linear_89_2320)"/>
<path opacity="0.978" fill-rule="evenodd" clip-rule="evenodd" d="M119.916 0.336093C121.032 0.317438 122.148 0.336116 123.262 0.392117C125.001 4.62291 126.674 8.88069 128.281 13.1655C128.288 13.3572 128.213 13.5066 128.058 13.6137C127.129 13.6884 126.199 13.6884 125.27 13.6137C125.139 13.5576 125.047 13.4643 124.991 13.3336C124.715 12.6325 124.473 11.9229 124.266 11.2047C122.518 11.1859 120.77 11.2047 119.024 11.2607C118.731 12.0672 118.397 12.8515 118.02 13.6137C117.053 13.6884 116.087 13.6884 115.12 13.6137C114.845 13.3152 114.828 12.9976 115.064 12.6613C116.714 8.56259 118.331 4.45418 119.916 0.336093ZM121.589 4.03365C122.156 5.45788 122.713 6.89589 123.262 8.34746C122.147 8.42219 121.031 8.42219 119.916 8.34746C120.506 6.92267 121.064 5.48477 121.589 4.03365Z" fill="url(#paint7_linear_89_2320)"/>
<path opacity="0.968" fill-rule="evenodd" clip-rule="evenodd" d="M130.512 0.336101C133.933 0.317434 137.354 0.336101 140.774 0.392125C140.902 1.22352 140.92 2.06388 140.829 2.91318C140.774 2.96921 140.718 3.02523 140.662 3.08125C139.51 3.13725 138.358 3.15593 137.205 3.13728C137.224 6.53622 137.205 9.93495 137.149 13.3336C137.108 13.4362 137.052 13.5296 136.981 13.6137C136.089 13.6884 135.197 13.6884 134.305 13.6137C134.249 13.5576 134.193 13.5016 134.137 13.4456C134.082 10.0097 134.063 6.57353 134.082 3.13728C132.886 3.17202 131.696 3.13468 130.512 3.02523C130.435 2.96637 130.38 2.89168 130.345 2.80114C130.27 2.05415 130.27 1.30718 130.345 0.560195C130.425 0.499219 130.481 0.424518 130.512 0.336101Z" fill="url(#paint8_linear_89_2320)"/>
<path opacity="0.968" fill-rule="evenodd" clip-rule="evenodd" d="M148.469 0.33618C149.586 0.298992 150.702 0.336348 151.815 0.448227C153.476 4.68674 155.149 8.92582 156.834 13.1656C156.803 13.3776 156.691 13.5269 156.499 13.6138C155.57 13.6885 154.64 13.6885 153.711 13.6138C153.334 12.8516 152.999 12.0673 152.707 11.2608C150.96 11.2047 149.213 11.186 147.465 11.2047C147.266 12.0706 146.932 12.8736 146.461 13.6138C145.532 13.6885 144.602 13.6885 143.673 13.6138C143.518 13.5066 143.443 13.3573 143.45 13.1656C145.046 8.85736 146.719 4.58091 148.469 0.33618ZM150.03 4.03373C150.695 5.43679 151.253 6.8934 151.703 8.40357C150.622 8.44077 149.544 8.40334 148.469 8.29152C149.012 6.87827 149.533 5.45897 150.03 4.03373Z" fill="url(#paint9_linear_89_2320)"/>
<path opacity="0.985" fill-rule="evenodd" clip-rule="evenodd" d="M7.71158 6.94678C7.9718 6.94678 8.23212 6.94678 8.49233 6.94678C10.9006 7.72203 13.3171 8.48765 15.7421 9.24374C15.9018 9.29584 16.0318 9.38929 16.1325 9.52386C16.2069 10.0468 16.2069 10.5696 16.1325 11.0925C13.4794 12.0867 10.7841 12.9831 8.04619 13.7816C5.52334 12.968 2.99521 12.165 0.46177 11.3726C0.302185 11.3205 0.172056 11.2271 0.0713956 11.0925C-0.00296519 10.5696 -0.00296519 10.0468 0.0713956 9.52386C0.172056 9.38929 0.302185 9.29584 0.46177 9.24374C2.87394 8.46065 5.29055 7.69492 7.71158 6.94678Z" fill="url(#paint10_linear_89_2320)"/>
<defs>
<linearGradient id="paint0_linear_89_2320" x1="-14.3338" y1="-6.58706" x2="16.4958" y2="-2.39183" gradientUnits="userSpaceOnUse">
<stop offset="0.539916" stop-color="#E1B570"/>
<stop offset="1" stop-color="#F1E2C9"/>
</linearGradient>
<linearGradient id="paint1_linear_89_2320" x1="12.9466" y1="-13.0812" x2="33.6871" y2="-12.1441" gradientUnits="userSpaceOnUse">
<stop offset="0.539916" stop-color="#E1B570"/>
<stop offset="1" stop-color="#F1E2C9"/>
</linearGradient>
<linearGradient id="paint2_linear_89_2320" x1="90.0643" y1="-12.6589" x2="96.3274" y2="-12.5718" gradientUnits="userSpaceOnUse">
<stop offset="0.539916" stop-color="#E1B570"/>
<stop offset="1" stop-color="#F1E2C9"/>
</linearGradient>
<linearGradient id="paint3_linear_89_2320" x1="25.6649" y1="-12.3321" x2="51.4841" y2="-10.8233" gradientUnits="userSpaceOnUse">
<stop offset="0.539916" stop-color="#E1B570"/>
<stop offset="1" stop-color="#F1E2C9"/>
</linearGradient>
<linearGradient id="paint4_linear_89_2320" x1="43.2254" y1="-12.3335" x2="69.9042" y2="-10.7222" gradientUnits="userSpaceOnUse">
<stop offset="0.539916" stop-color="#E1B570"/>
<stop offset="1" stop-color="#F1E2C9"/>
</linearGradient>
<linearGradient id="paint5_linear_89_2320" x1="62.6821" y1="-12.3338" x2="88.4005" y2="-10.8369" gradientUnits="userSpaceOnUse">
<stop offset="0.539916" stop-color="#E1B570"/>
<stop offset="1" stop-color="#F1E2C9"/>
</linearGradient>
<linearGradient id="paint6_linear_89_2320" x1="92.5407" y1="-12.3205" x2="112.639" y2="-11.407" gradientUnits="userSpaceOnUse">
<stop offset="0.539916" stop-color="#E1B570"/>
<stop offset="1" stop-color="#F1E2C9"/>
</linearGradient>
<linearGradient id="paint7_linear_89_2320" x1="103.075" y1="-12.3204" x2="128.89" y2="-10.8115" gradientUnits="userSpaceOnUse">
<stop offset="0.539916" stop-color="#E1B570"/>
<stop offset="1" stop-color="#F1E2C9"/>
</linearGradient>
<linearGradient id="paint8_linear_89_2320" x1="120.926" y1="-12.3205" x2="141.393" y2="-11.3731" gradientUnits="userSpaceOnUse">
<stop offset="0.539916" stop-color="#E1B570"/>
<stop offset="1" stop-color="#F1E2C9"/>
</linearGradient>
<linearGradient id="paint9_linear_89_2320" x1="131.623" y1="-12.3338" x2="157.442" y2="-10.8251" gradientUnits="userSpaceOnUse">
<stop offset="0.539916" stop-color="#E1B570"/>
<stop offset="1" stop-color="#F1E2C9"/>
</linearGradient>
<linearGradient id="paint10_linear_89_2320" x1="-14.2741" y1="0.465964" x2="16.4458" y2="4.70172" gradientUnits="userSpaceOnUse">
<stop offset="0.539916" stop-color="#E1B570"/>
<stop offset="1" stop-color="#F1E2C9"/>
</linearGradient>
</defs>
</svg>
