<svg width="123" height="19" viewBox="0 0 123 19" fill="none" xmlns="http://www.w3.org/2000/svg">
<path d="M112.92 17.7668C108.343 17.7668 104.503 14.1421 104.288 9.53434C104.288 9.41147 104.288 9.25788 104.288 9.13501C104.288 4.55799 107.913 0.71822 112.521 0.503193C112.828 0.503193 113.135 0.503193 113.442 0.503193C114.517 0.196011 115.654 0.0731383 116.76 0.196011C118.879 0.411038 120.661 1.42474 121.797 3.0528C122.934 4.68087 123.272 6.70827 122.78 8.76639C122.443 10.0566 121.828 11.2853 120.907 12.3297C119.678 15.3708 116.76 17.5518 113.289 17.7361C113.196 17.7668 113.073 17.7668 112.92 17.7668ZM104.749 9.13501C104.749 9.25788 104.749 9.38075 104.749 9.53434C104.964 14.0499 108.804 17.5518 113.319 17.3368C116.145 17.2139 118.572 15.6473 119.954 13.4048C119.709 13.6199 119.432 13.8349 119.156 14.0192C117.313 15.3094 115.132 15.893 113.043 15.678C110.923 15.463 109.142 14.4493 108.005 12.8212C106.868 11.1931 106.531 9.16572 107.022 7.1076C107.544 5.04949 108.834 3.20639 110.677 1.91623C111.169 1.57833 111.691 1.27115 112.244 1.0254C108.005 1.3633 104.749 4.89589 104.749 9.13501ZM113.504 0.963966C112.582 1.24043 111.722 1.67048 110.892 2.22341C109.142 3.45214 107.913 5.20308 107.421 7.16904C106.93 9.10429 107.268 11.0088 108.312 12.514C109.387 14.0192 111.046 14.9715 113.043 15.1865C115.039 15.4015 117.098 14.8179 118.879 13.5891C119.494 13.1591 120.047 12.6369 120.538 12.084C120.907 11.1624 121.091 10.1487 121.091 9.10429C121.091 8.98141 121.091 8.85854 121.091 8.70495C120.999 6.52396 120.047 4.49656 118.418 3.02208C117.067 1.82408 115.347 1.08684 113.504 0.963966ZM121.582 9.13501C121.582 9.78009 121.521 10.4252 121.367 11.0395C121.828 10.3023 122.166 9.50362 122.381 8.67423C122.873 6.73899 122.535 4.83446 121.49 3.32927C120.415 1.82408 118.756 0.871811 116.76 0.656784C116.115 0.595348 115.439 0.595348 114.794 0.687502C116.268 0.994684 117.651 1.7012 118.787 2.74562C120.477 4.31225 121.49 6.4318 121.582 8.73567C121.552 8.85854 121.582 9.01213 121.582 9.13501Z" fill="url(#paint0_linear_89_2270)"/>
<path d="M112.922 18.2889C108.068 18.2889 104.014 14.4491 103.768 9.56493C103.522 4.52715 107.454 0.2266 112.492 0.0115724C114.918 -0.1113 117.284 0.748809 119.096 2.37687C120.909 4.03566 121.953 6.27808 122.076 8.70482C122.322 13.7426 118.39 18.0432 113.352 18.2582C113.229 18.2889 113.075 18.2889 112.922 18.2889ZM112.584 1.48605C108.375 1.67036 105.089 5.26438 105.273 9.5035C105.457 13.7119 109.051 16.9987 113.29 16.8144C117.499 16.6301 120.786 13.0361 120.601 8.79698C120.509 6.73886 119.618 4.86505 118.113 3.48273C116.577 2.10041 114.642 1.39389 112.584 1.48605Z" fill="url(#paint1_linear_89_2270)"/>
<path d="M0 0.625L11.3964 13.4652V1.20865H13.2088V18.0115L1.81237 5.17129V17.4278H0V0.625V0.625Z" fill="url(#paint2_linear_89_2270)"/>
<path d="M18.9834 1.20947H28.1681V2.86825H20.7958V8.02891H27.7074V9.71841H20.7958V15.7699H28.3217V17.4594H18.9834V1.20947Z" fill="url(#paint3_linear_89_2270)"/>
<path d="M36.2476 2.86826H31.8242V1.20947H42.4834V2.86826H38.06V17.4287H36.2476V2.86826Z" fill="url(#paint4_linear_89_2270)"/>
<path d="M46.8154 1.20947H56.0002V2.86825H48.6278V8.02891H55.5394V9.71841H48.6278V15.7699H56.1538V17.4594H46.8154V1.20947Z" fill="url(#paint5_linear_89_2270)"/>
<path d="M65.2467 9.01331L60.1475 1.21089H62.1749L66.4447 7.78459L70.7145 1.18018H72.6805L67.5813 9.01331L73.0798 17.3994H71.0217L66.3525 10.2728L61.7448 17.3994H59.8096L65.2467 9.01331Z" fill="url(#paint6_linear_89_2270)"/>
<path d="M77.6562 1.20947H82.8476C85.5816 1.20947 87.7933 3.29831 87.7933 6.1551C87.7933 9.01189 85.5508 11.1007 82.8476 11.1007H79.4686V17.4594H77.6562V1.20947ZM82.7862 9.41123C84.6293 9.41123 86.0116 8.02891 86.0116 6.1551C86.0116 4.28129 84.6293 2.89897 82.7862 2.89897H79.4686V9.41123H82.7862Z" fill="url(#paint7_linear_89_2270)"/>
<path d="M92.4912 1.20947H94.3036V15.7699H101V17.4594H92.4912V1.20947Z" fill="url(#paint8_linear_89_2270)"/>
<defs>
<linearGradient id="paint0_linear_89_2270" x1="87.7551" y1="-16.5563" x2="123.835" y2="-14.3233" gradientUnits="userSpaceOnUse">
<stop offset="0.539916" stop-color="#E1B570"/>
<stop offset="1" stop-color="#F1E2C9"/>
</linearGradient>
<linearGradient id="paint1_linear_89_2270" x1="87.5611" y1="-17.3415" x2="122.92" y2="-15.2765" gradientUnits="userSpaceOnUse">
<stop offset="0.539916" stop-color="#E1B570"/>
<stop offset="1" stop-color="#F1E2C9"/>
</linearGradient>
<linearGradient id="paint2_linear_89_2270" x1="-11.6709" y1="-15.8608" x2="13.8461" y2="-14.7312" gradientUnits="userSpaceOnUse">
<stop offset="0.539916" stop-color="#E1B570"/>
<stop offset="1" stop-color="#F1E2C9"/>
</linearGradient>
<linearGradient id="paint3_linear_89_2270" x1="10.7323" y1="-14.1987" x2="28.7874" y2="-13.5941" gradientUnits="userSpaceOnUse">
<stop offset="0.539916" stop-color="#E1B570"/>
<stop offset="1" stop-color="#F1E2C9"/>
</linearGradient>
<linearGradient id="paint4_linear_89_2270" x1="22.4061" y1="-14.1695" x2="43.0078" y2="-13.3806" gradientUnits="userSpaceOnUse">
<stop offset="0.539916" stop-color="#E1B570"/>
<stop offset="1" stop-color="#F1E2C9"/>
</linearGradient>
<linearGradient id="paint5_linear_89_2270" x1="38.5644" y1="-14.1987" x2="56.6194" y2="-13.5941" gradientUnits="userSpaceOnUse">
<stop offset="0.539916" stop-color="#E1B570"/>
<stop offset="1" stop-color="#F1E2C9"/>
</linearGradient>
<linearGradient id="paint6_linear_89_2270" x1="48.0844" y1="-14.1988" x2="73.712" y2="-12.977" gradientUnits="userSpaceOnUse">
<stop offset="0.539916" stop-color="#E1B570"/>
<stop offset="1" stop-color="#F1E2C9"/>
</linearGradient>
<linearGradient id="paint7_linear_89_2270" x1="68.6995" y1="-14.1987" x2="88.2948" y2="-13.4864" gradientUnits="userSpaceOnUse">
<stop offset="0.539916" stop-color="#E1B570"/>
<stop offset="1" stop-color="#F1E2C9"/>
</linearGradient>
<linearGradient id="paint8_linear_89_2270" x1="84.973" y1="-14.1987" x2="101.428" y2="-13.6966" gradientUnits="userSpaceOnUse">
<stop offset="0.539916" stop-color="#E1B570"/>
<stop offset="1" stop-color="#F1E2C9"/>
</linearGradient>
</defs>
</svg>
