<svg width="104" height="27" viewBox="0 0 104 27" fill="none" xmlns="http://www.w3.org/2000/svg">
<mask id="mask0_301_15" style="mask-type:luminance" maskUnits="userSpaceOnUse" x="0" y="0" width="104" height="27">
<path d="M104 0H0V27H104V0Z" fill="white"/>
</mask>
<g mask="url(#mask0_301_15)">
<path d="M42.5047 26.4191H38.1534C37.9077 25.4033 37.7478 24.6601 37.6741 24.1894C36.2238 26.0227 34.1464 26.9393 31.4421 26.9393C29.4509 26.9393 27.8653 26.4315 26.6853 25.4157C25.5299 24.3752 24.9521 22.9755 24.9521 21.2165C24.9521 17.9958 26.9926 16.0387 31.0734 15.345L37.0103 14.3416C37.1088 14.3169 37.2808 14.2673 37.5266 14.193V12.5207C37.5266 10.8361 36.2728 9.99377 33.7653 9.99377C32.5608 9.99377 31.6513 10.2291 31.0365 10.6998C30.422 11.1705 30.0532 11.9262 29.9302 12.9667L25.874 12.9295C26.2428 8.81701 28.9101 6.76074 33.8759 6.76074C39.1122 6.76074 41.7303 8.96566 41.7303 13.3755V21.9969C41.7303 23.4338 41.9885 24.9078 42.5047 26.4191ZM32.5115 23.6691C33.9375 23.6691 35.1297 23.248 36.0884 22.4056C37.0472 21.5633 37.5266 20.5104 37.5266 19.2469V17.2402L32.2534 18.1693C30.2131 18.5409 29.1927 19.4823 29.1927 20.9935C29.1927 21.8358 29.4877 22.4924 30.0777 22.9631C30.6677 23.4338 31.479 23.6691 32.5115 23.6691Z" fill="url(#paint0_linear_301_15)"/>
<path d="M55.2932 15.6054L57.9483 7.24414H62.2995L55.6989 26.4194H51.3476L44.5625 7.24414H49.135L51.8269 15.6054L53.597 22.5546L55.2932 15.6054Z" fill="url(#paint1_linear_301_15)"/>
<path d="M82.465 16.9429V18.0206H68.4155C68.514 19.7796 69.0055 21.1422 69.8905 22.1084C70.8003 23.0498 72.0172 23.5205 73.5412 23.5205C75.7292 23.5205 77.2042 22.48 77.9662 20.3989L82.0963 20.7705C81.5063 22.7773 80.4617 24.3133 78.9619 25.3785C77.4868 26.4438 75.68 26.9765 73.5412 26.9765C70.5912 26.9765 68.268 26.0227 66.5717 24.1151C64.8755 22.2322 64.0273 19.7796 64.0273 16.7571C64.0273 13.8338 64.851 11.4307 66.498 9.54784C68.1698 7.68977 70.4068 6.76074 73.2093 6.76074C75.9873 6.76074 78.2243 7.66501 79.9206 9.47352C81.6169 11.3068 82.465 13.7966 82.465 16.9429ZM76.6387 11.3687C75.803 10.5264 74.6967 10.1053 73.3199 10.1053C71.9187 10.1053 70.8003 10.5264 69.9643 11.3687C69.0793 12.2358 68.5754 13.4498 68.4524 15.0105H78.1506C77.9541 13.4002 77.45 12.1863 76.6387 11.3687Z" fill="url(#paint2_linear_301_15)"/>
<path d="M103.892 16.9429V18.0206H89.8423C89.9408 19.7796 90.4323 21.1422 91.3173 22.1084C92.2271 23.0498 93.444 23.5205 94.9679 23.5205C97.156 23.5205 98.631 22.48 99.393 20.3989L103.523 20.7705C102.933 22.7773 101.888 24.3133 100.389 25.3785C98.9136 26.4438 97.1067 26.9765 94.9679 26.9765C92.0179 26.9765 89.6948 26.0227 87.9985 24.1151C86.3022 22.2322 85.4541 19.7796 85.4541 16.7571C85.4541 13.8338 86.2778 11.4307 87.9248 9.54784C89.5965 7.68977 91.8335 6.76074 94.6361 6.76074C97.4141 6.76074 99.6511 7.66501 101.347 9.47352C103.044 11.3068 103.892 13.7966 103.892 16.9429ZM98.0655 11.3687C97.2297 10.5264 96.1235 10.1053 94.7467 10.1053C93.3454 10.1053 92.2271 10.5264 91.391 11.3687C90.506 12.2358 90.0022 13.4498 89.8791 15.0105H99.5774C99.3809 13.4002 98.8767 12.1863 98.0655 11.3687Z" fill="url(#paint3_linear_301_15)"/>
<path d="M4.38975 20.3226V7.22218L16.4008 26.4615H21.0481V0H16.6948L16.7091 19.3485L4.60942 0.0421052H0V20.3226H4.38975Z" fill="url(#paint4_linear_301_15)"/>
<path d="M0 22.0645H4.32133V26.4193H0V22.0645Z" fill="url(#paint5_linear_301_15)"/>
</g>
<defs>
<linearGradient id="paint0_linear_301_15" x1="9.44322" y1="-12.3725" x2="43.331" y2="-10.6548" gradientUnits="userSpaceOnUse">
<stop offset="0.539916" stop-color="#E1B570"/>
<stop offset="1" stop-color="#F1E2C9"/>
</linearGradient>
<linearGradient id="paint1_linear_301_15" x1="28.8906" y1="-10.9378" x2="63.1229" y2="-9.09264" gradientUnits="userSpaceOnUse">
<stop offset="0.539916" stop-color="#E1B570"/>
<stop offset="1" stop-color="#F1E2C9"/>
</linearGradient>
<linearGradient id="paint2_linear_301_15" x1="47.7364" y1="-12.4078" x2="83.3239" y2="-10.5164" gradientUnits="userSpaceOnUse">
<stop offset="0.539916" stop-color="#E1B570"/>
<stop offset="1" stop-color="#F1E2C9"/>
</linearGradient>
<linearGradient id="paint3_linear_301_15" x1="69.1629" y1="-12.4078" x2="104.751" y2="-10.5164" gradientUnits="userSpaceOnUse">
<stop offset="0.539916" stop-color="#E1B570"/>
<stop offset="1" stop-color="#F1E2C9"/>
</linearGradient>
<linearGradient id="paint4_linear_301_15" x1="-18.5974" y1="-25.0907" x2="22.0559" y2="-23.2064" gradientUnits="userSpaceOnUse">
<stop offset="0.539916" stop-color="#E1B570"/>
<stop offset="1" stop-color="#F1E2C9"/>
</linearGradient>
<linearGradient id="paint5_linear_301_15" x1="-3.81819" y1="17.9352" x2="4.5183" y2="18.4173" gradientUnits="userSpaceOnUse">
<stop offset="0.539916" stop-color="#E1B570"/>
<stop offset="1" stop-color="#F1E2C9"/>
</linearGradient>
</defs>
</svg>
