<svg width="111" height="80" viewBox="0 0 111 80" fill="none" xmlns="http://www.w3.org/2000/svg">
<g clip-path="url(#clip0_89_3821)">
<path fill-rule="evenodd" clip-rule="evenodd" d="M18.4355 21.3752C17.8161 22.858 21.8807 22.5108 18.0805 28.1887C14.2799 33.8666 8.10008 39.3689 6.50992 39.9815C6.50992 39.9815 7.28233 36.1296 7.54673 33.1598C7.81113 30.1904 8.06307 26.1628 5.26229 24.5573C3.22979 23.3933 0.474338 23.0255 0.416552 25.1333C0.392024 26.0932 1.20976 26.5302 2.71346 27.0531C4.0147 27.5065 4.21715 31.681 3.50667 35.9621C2.80034 40.2432 1.47417 44.0828 3.9486 44.7852C6.42302 45.4879 11.8096 40.0675 15.6967 35.7906C19.5838 31.5099 21.5253 27.1432 21.6163 25.0473C21.7032 22.9481 19.0554 19.8923 18.4355 21.3752Z" fill="url(#paint0_linear_89_3821)"/>
<path fill-rule="evenodd" clip-rule="evenodd" d="M109.523 32.8611C108.803 33.412 104.655 37.1249 101.859 38.2802C99.2008 39.378 95.6563 39.0694 95.3192 36.2366C94.8822 32.5196 96.6587 29.8473 97.1704 28.8479C97.6822 27.8489 98.0983 26.9523 97.6032 26.4261C97.1081 25.8957 96.3468 26.7919 96.3468 26.7919C96.3468 26.7919 95.552 23.8274 92.0199 24.9585C87.9636 26.2574 83.2085 31.1544 81.7356 35.254C79.052 36.2571 76.1482 37.573 73.1071 38.9546C76.6599 27.6555 76.223 26.5907 74.9043 25.8628C73.4817 25.0774 72.0586 27.709 72.0586 27.709C72.0586 27.709 70.9395 23.33 66.5419 27.2692C65.4103 28.2846 63.3761 31.2491 62.0404 34.3411C60.476 35.7885 53.5158 41.9766 49.8175 40.809C47.6083 40.114 47.188 37.503 48.0286 33.6667C51.2775 30.7804 54.2525 27.5321 56.6654 24.8968C63.426 17.5121 72.1418 2.74295 68.6721 0.633474C64.6699 -1.80063 49.8382 16.3774 46.2808 24.5553C44.6379 28.3299 43.4772 32.088 43.298 35.2253C41.5008 36.6435 39.9198 37.717 38.784 38.2597C37.378 38.9258 36.2173 39.2052 35.2769 39.271C38.1849 35.6898 38.3308 31.5659 37.9812 30.2583C37.536 28.5891 32.9097 23.9303 27.4844 32.5443C27.4844 32.5443 26.5071 30.2583 24.46 31.138C22.4129 32.018 19.218 36.0597 20.1081 40.2782C20.9986 44.4971 26.3362 45.9031 32.2067 42.0384C32.7268 41.6969 33.1966 41.3352 33.6335 40.9608C36.8496 40.9731 40.1613 39.5137 43.352 37.3508C43.6476 39.9618 44.8832 41.919 47.4753 42.7493C52.2678 44.2832 58.6497 39.1928 61.1004 37.0097C60.7965 38.1527 60.6635 39.2422 60.784 40.1716C61.0505 42.2066 63.3636 44.8794 69.546 37.1208C69.546 37.1208 68.909 38.539 68.098 41.4669C63.1553 43.901 59.2196 46.0964 54.8012 49.3366C38.9673 60.9397 36.7457 71.2271 39.2334 76.3253C41.7253 81.4239 49.4637 79.7547 54.5352 74.5655C59.6067 69.3809 65.7433 61.3795 71.26 44.6737C71.6342 43.5389 71.9796 42.4823 72.2997 41.487C75.2123 40.0235 78.2119 38.646 81.2321 37.3878C80.9287 40.4222 82.809 41.6845 84.827 41.2118C87.1775 40.6608 92.6564 35.0195 92.6564 35.0195C92.6564 35.0195 91.8744 38.9381 95.1113 40.0811C98.3478 41.22 101.189 40.7226 103.394 39.4273C105.845 37.9922 109.477 34.4892 110.263 33.5309C111.045 32.5731 110.242 32.3102 109.523 32.8611ZM29.7144 32.2773C32.8266 27.6185 36.7415 29.0248 35.6764 32.5402C34.6071 36.0555 31.986 38.4078 30.8294 39.1105C30.8294 39.1146 26.6027 36.9397 29.7144 32.2773ZM23.757 40.0153C22.334 37.3919 27.0475 34.8303 27.0475 34.8303C27.0475 34.8303 26.4904 37.9305 29.5398 39.9289C29.5398 39.9289 25.0923 42.4782 23.757 40.0153ZM52.9334 20.937C58.0049 10.5633 66.9871 2.4755 66.8084 3.96822C66.6292 5.46053 64.674 11.0031 59.9605 18.0343C57.5347 21.6525 53.2248 26.3191 48.981 30.2953C49.9089 27.5238 51.265 24.3541 52.9334 20.937ZM61.3581 58.304C55.3089 70.1701 48.7191 77.3452 43.4144 76.675C36.6829 75.8237 42.2578 62.3456 52.2221 54.1677C56.6404 50.5413 61.1877 47.4945 67.3201 44.1598C66.1553 47.8192 64.0542 53.0206 61.3581 58.304ZM71.0559 30.0155C70.0989 32.5648 65.4311 39.2916 63.85 39.378C62.2694 39.4644 64.516 33.5108 66.1844 31.0026C69.109 26.6071 70.7191 28.034 70.7191 28.034C70.7191 28.034 71.6051 28.552 71.0559 30.0155ZM93.0102 30.5788C91.4832 32.1045 86.6034 37.1985 85.9415 36.8533C85.2843 36.5081 86.5992 33.6544 88.7872 31.3149C90.9756 28.9754 93.5677 26.9976 94.1252 27.4868C94.5413 27.8489 94.5372 29.0495 93.0102 30.5788Z" fill="url(#paint1_linear_89_3821)"/>
</g>
<defs>
<linearGradient id="paint0_linear_89_3821" x1="0.416136" y1="39.9099" x2="110.585" y2="39.9099" gradientUnits="userSpaceOnUse">
<stop stop-color="#FFD280"/>
<stop offset="0.15" stop-color="#F4C87A"/>
<stop offset="1" stop-color="#B88D5B"/>
</linearGradient>
<linearGradient id="paint1_linear_89_3821" x1="0.415812" y1="39.91" x2="110.584" y2="39.91" gradientUnits="userSpaceOnUse">
<stop stop-color="#FFD280"/>
<stop offset="0.15" stop-color="#F4C87A"/>
<stop offset="1" stop-color="#B88D5B"/>
</linearGradient>
<clipPath id="clip0_89_3821">
<rect width="111" height="79.8202" fill="white"/>
</clipPath>
</defs>
</svg>
