<svg width="115" height="28" viewBox="0 0 115 28" fill="none" xmlns="http://www.w3.org/2000/svg">
<path d="M9.61061 3.87127C7.31716 5.96962 5.34162 7.95516 5.20538 8.27105C5.02372 8.81256 5.25079 9.10587 8.83856 12.6934C14.0386 17.8603 14.5608 18.1987 15.4237 16.8901C15.7643 16.3486 15.7189 16.1681 14.2883 12.6483C13.4709 10.6176 12.8124 8.78999 12.8124 8.56436C12.8124 8.33873 13.4255 6.69164 14.1748 4.90917C15.56 1.59241 15.7416 0.780146 15.2648 0.306324C14.5154 -0.438253 13.8569 -0.0321198 9.61061 3.87127Z" fill="url(#paint0_linear_89_2284)"/>
<path d="M41.1963 3.75846V5.45068H42.8993H44.6024V3.75846V2.06624H42.8993H41.1963V3.75846Z" fill="url(#paint1_linear_89_2284)"/>
<path d="M83.6145 5.26986L83.5463 7.59384L82.5926 7.66153L81.6162 7.72922V8.97018V10.1886H82.638H83.6599V15.0396V19.8681L84.3411 20.6352C85.4992 21.9664 87.3839 22.1695 90.0861 21.3121C90.9036 21.0639 91.1534 20.8834 91.0625 20.6127C90.9944 20.387 90.8354 19.7778 90.6992 19.2589C90.4721 18.3789 90.3813 18.2887 89.9499 18.4015C88.5193 18.8302 88.0197 18.8076 87.5429 18.3338C87.0887 17.8825 87.066 17.6344 87.066 14.0243V10.1886H88.542H90.018V8.94762V7.72922L88.6101 7.66153L87.1795 7.59384L87.1114 5.26986L87.0433 2.96844H85.3629H83.6826L83.6145 5.26986Z" fill="url(#paint2_linear_89_2284)"/>
<path d="M32.1821 7.5036C30.9105 7.75179 30.3655 8.04511 29.2301 9.12813L28.2537 10.0532V8.87994V7.70667H26.7777H25.3018V17.5215V27.3364H27.0048H28.7079V23.23V19.1235L29.5935 20.026C32.5908 23.1397 37.1777 22.2146 39.1079 18.1307C39.6528 17.0026 39.721 16.5513 39.721 14.5884C39.721 12.5577 39.6528 12.2193 39.0852 11.1588C37.6092 8.36099 34.9524 6.96209 32.1821 7.5036ZM34.2031 10.7752C35.7018 11.5424 36.61 13.6858 36.2013 15.536C35.5201 18.582 32.6363 19.8907 30.3882 18.1984C29.0258 17.1605 28.7079 16.416 28.7079 14.295C28.7079 12.5126 28.7306 12.3998 29.4572 11.6326C30.7288 10.2563 32.5454 9.91783 34.2031 10.7752Z" fill="url(#paint3_linear_89_2284)"/>
<path d="M54.1167 7.48114C52.7088 7.72934 51.687 8.27085 50.6879 9.35387L49.825 10.2564V8.99286V7.70677H48.349H46.873V14.7013V21.6958H48.5761H50.2792V17.3186C50.2792 13.167 50.3019 12.9188 50.8014 12.1968C51.8233 10.6851 53.6171 10.0082 54.8661 10.6625C55.7971 11.1589 55.956 12.1291 55.956 17.0704V21.6958H57.7726H59.5892V17.3186C59.5892 13.167 59.6119 12.9188 60.1115 12.1968C60.8154 11.1589 61.9962 10.4143 62.9272 10.4143C64.9481 10.4143 65.266 11.3168 65.266 17.1832V21.6958H66.9691H68.6721V16.4386C68.6721 12.445 68.5813 10.9107 68.3315 10.0533C67.7866 8.1806 66.6285 7.43602 64.4259 7.43602C62.6547 7.45858 61.315 8.04522 60.1796 9.30874C59.294 10.279 59.135 10.3466 59.135 9.87282C59.135 9.42156 58.0678 8.20316 57.3412 7.84215C56.501 7.41346 55.3202 7.27808 54.1167 7.48114Z" fill="url(#paint4_linear_89_2284)"/>
<path d="M74.4171 7.48115C71.6923 8.04522 70.2163 9.96307 70.5569 12.4676C70.7613 14.0018 71.8285 14.7464 75.4844 15.9423C77.6643 16.6417 78.2093 17.0253 78.2093 17.7924C78.2093 18.5144 77.5054 19.1462 76.4835 19.3041C75.3709 19.4846 73.1682 18.9431 72.0329 18.1985C71.556 17.8827 71.0792 17.6345 70.9883 17.6345C70.8748 17.6345 70.5342 18.0857 70.239 18.6498C69.7167 19.6426 69.694 19.6651 70.1482 20.0036C72.3508 21.7635 76.3246 22.3501 78.8905 21.3348C80.6163 20.6353 81.8425 18.5821 81.5246 16.8899C81.2067 15.2428 80.1848 14.4982 76.5971 13.3475C74.3717 12.6255 73.6678 12.1968 73.6678 11.4974C73.6678 9.66975 76.5062 9.28618 79.0495 10.7753L80.0032 11.3168L80.7071 10.3015L81.411 9.26362L80.8888 8.83492C79.5717 7.72934 76.3927 7.05245 74.4171 7.48115Z" fill="url(#paint5_linear_89_2284)"/>
<path d="M96.943 7.48112C94.3998 7.86469 92.5378 9.2636 91.4932 11.6101C90.9483 12.7609 90.8574 13.3249 90.8574 14.7238C90.8801 17.657 92.3561 19.9584 95.0129 21.222C96.0801 21.7183 96.5797 21.8086 98.3054 21.8086C100.099 21.786 100.553 21.7183 101.643 21.1768C102.96 20.5451 104.641 18.9431 104.482 18.4693C104.436 18.3339 103.846 18.0631 103.165 17.8826L101.916 17.5668L101.235 18.2662C100.008 19.462 98.1919 19.7328 96.6024 18.9205C95.4216 18.3339 94.8312 17.5893 94.6268 16.4386L94.4906 15.6038H99.9631C106.276 15.6038 105.89 15.7617 105.458 13.3024C104.936 10.4143 102.711 8.02263 100.122 7.59394C98.419 7.32318 98.0784 7.30062 96.943 7.48112ZM99.35 9.96305C99.7814 10.0759 100.417 10.4594 100.758 10.7979C101.303 11.3845 102.052 12.8285 102.052 13.3475C102.052 13.4829 100.69 13.5731 98.1919 13.5731H94.3317L94.4679 12.9414C94.8312 11.4973 95.5124 10.6625 96.8295 10.0984C97.7832 9.69229 98.26 9.66973 99.35 9.96305Z" fill="url(#paint6_linear_89_2284)"/>
<path d="M112.384 8.00009C111.885 8.27085 111.113 8.99286 110.681 9.5795L109.886 10.64L109.818 9.17337L109.75 7.70677H108.183H106.594V14.7013V21.6958H108.297H110V17.454C110 13.7085 110.045 13.167 110.431 12.5352C110.954 11.7004 112.589 10.843 113.996 10.6851L114.996 10.5723V9.03799V7.48114H114.155C113.678 7.48114 112.884 7.72934 112.384 8.00009Z" fill="url(#paint7_linear_89_2284)"/>
<path d="M41.1963 14.7013V21.6958H42.8993H44.6024V14.7013V7.70678H42.8993H41.1963V14.7013Z" fill="url(#paint8_linear_89_2284)"/>
<path d="M0.50491 8.54197C0.32325 8.7676 0.0961763 9.06092 0.00534662 9.21886C-0.0627756 9.3768 0.527617 11.1367 1.34508 13.1674C2.16255 15.1755 2.82107 17.0031 2.82107 17.2287C2.82107 17.4543 2.20797 19.1014 1.45862 20.8839C0.0734689 24.2007 -0.10819 25.0129 0.368665 25.4867C1.11801 26.2313 1.77652 25.8252 6.02281 21.9218C8.31626 19.8234 10.2918 17.8379 10.428 17.522C10.6097 16.9805 10.4053 16.7098 7.13547 13.4381C3.50229 9.80549 1.64028 8.1584 1.14072 8.1584C0.981765 8.1584 0.686569 8.3389 0.50491 8.54197Z" fill="url(#paint9_linear_89_2284)"/>
<defs>
<linearGradient id="paint0_linear_89_2284" x1="-4.06184" y1="34.1666" x2="16.1183" y2="33.4667" gradientUnits="userSpaceOnUse">
<stop offset="0.539916" stop-color="#E1B570"/>
<stop offset="1" stop-color="#F1E2C9"/>
</linearGradient>
<linearGradient id="paint1_linear_89_2284" x1="38.1868" y1="8.6598" x2="44.757" y2="8.27449" gradientUnits="userSpaceOnUse">
<stop offset="0.539916" stop-color="#E1B570"/>
<stop offset="1" stop-color="#F1E2C9"/>
</linearGradient>
<linearGradient id="paint2_linear_89_2284" x1="73.2541" y1="39.7099" x2="91.557" y2="39.1747" gradientUnits="userSpaceOnUse">
<stop offset="0.539916" stop-color="#E1B570"/>
<stop offset="1" stop-color="#F1E2C9"/>
</linearGradient>
<linearGradient id="paint3_linear_89_2284" x1="12.5614" y1="46.2508" x2="40.4218" y2="45.0772" gradientUnits="userSpaceOnUse">
<stop offset="0.539916" stop-color="#E1B570"/>
<stop offset="1" stop-color="#F1E2C9"/>
</linearGradient>
<linearGradient id="paint4_linear_89_2284" x1="27.612" y1="35.2619" x2="69.4764" y2="31.545" gradientUnits="userSpaceOnUse">
<stop offset="0.539916" stop-color="#E1B570"/>
<stop offset="1" stop-color="#F1E2C9"/>
</linearGradient>
<linearGradient id="paint5_linear_89_2284" x1="59.4454" y1="35.5629" x2="82.1355" y2="34.4902" gradientUnits="userSpaceOnUse">
<stop offset="0.539916" stop-color="#E1B570"/>
<stop offset="1" stop-color="#F1E2C9"/>
</linearGradient>
<linearGradient id="paint6_linear_89_2284" x1="77.77" y1="35.5045" x2="106.338" y2="33.7974" gradientUnits="userSpaceOnUse">
<stop offset="0.539916" stop-color="#E1B570"/>
<stop offset="1" stop-color="#F1E2C9"/>
</linearGradient>
<linearGradient id="paint7_linear_89_2284" x1="99.1702" y1="35.1741" x2="115.413" y2="34.6147" gradientUnits="userSpaceOnUse">
<stop offset="0.539916" stop-color="#E1B570"/>
<stop offset="1" stop-color="#F1E2C9"/>
</linearGradient>
<linearGradient id="paint8_linear_89_2284" x1="38.1868" y1="34.9602" x2="44.7783" y2="34.8666" gradientUnits="userSpaceOnUse">
<stop offset="0.539916" stop-color="#E1B570"/>
<stop offset="1" stop-color="#F1E2C9"/>
</linearGradient>
<linearGradient id="paint9_linear_89_2284" x1="-9.25514" y1="42.514" x2="10.9955" y2="41.8131" gradientUnits="userSpaceOnUse">
<stop offset="0.539916" stop-color="#E1B570"/>
<stop offset="1" stop-color="#F1E2C9"/>
</linearGradient>
</defs>
</svg>
