<svg width="144" height="30" viewBox="0 0 144 30" fill="none" xmlns="http://www.w3.org/2000/svg">
<path d="M44.5919 10.6602H47.4866V25.0152H44.5919V18.866H38.4222V25.0152H35.5215V10.6602H38.4222V16.6451H44.5907L44.5919 10.6602Z" fill="url(#paint0_linear_89_2188)"/>
<path d="M51.4544 23.568C50.8983 23.0116 50.4634 22.3462 50.1772 21.6135C49.8909 20.8809 49.7595 20.0969 49.7912 19.311C49.7546 18.5231 49.8853 17.7364 50.1746 17.0026C50.464 16.2689 50.9055 15.6048 51.47 15.054C52.6191 14.0214 54.1095 13.4502 55.6544 13.4502C57.1993 13.4502 58.6897 14.0214 59.8389 15.054C60.4037 15.6008 60.8463 16.261 61.1375 16.9913C61.4287 17.7215 61.562 18.5051 61.5285 19.2906C61.5618 20.0824 61.4281 20.8724 61.136 21.6092C60.8438 22.3459 60.3998 23.0129 59.8329 23.5668C58.7019 24.6436 57.1898 25.2275 55.6286 25.1904C54.8598 25.2126 54.0942 25.0805 53.3772 24.8018C52.6603 24.5231 52.0065 24.1036 51.4544 23.568V23.568ZM55.6322 22.7429C56.0223 22.7471 56.4089 22.6701 56.7675 22.5167C57.1261 22.3633 57.4488 22.1369 57.7152 21.852C58.0219 21.5087 58.2574 21.108 58.4081 20.6731C58.5588 20.2381 58.6216 19.7776 58.593 19.3182C58.6231 18.862 58.5622 18.4045 58.4138 17.9721C58.2653 17.5398 58.0323 17.1413 57.7284 16.7999C57.4607 16.5155 57.1367 16.29 56.777 16.1379C56.4174 15.9857 56.0299 15.9102 55.6394 15.9162C55.2516 15.9092 54.8668 15.9844 54.5101 16.1367C54.1534 16.289 53.8329 16.515 53.5697 16.7999C52.9724 17.5016 52.6714 18.4081 52.7303 19.3277C52.6714 20.2474 52.9724 21.1539 53.5697 21.8556C53.833 22.1375 54.1527 22.3608 54.5081 22.5108C54.8635 22.6608 55.2466 22.7342 55.6322 22.7261V22.7429Z" fill="url(#paint1_linear_89_2188)"/>
<path d="M66.7318 13.6198V15.3286C67.0863 14.7162 67.6058 14.2158 68.2311 13.8846C68.8564 13.5534 69.5623 13.4047 70.2681 13.4556C71.0789 13.4422 71.878 13.6494 72.5801 14.0551C73.2625 14.4556 73.8099 15.0506 74.1522 15.7639C74.5407 15.0546 75.1157 14.465 75.8151 14.0587C76.5144 13.6525 77.3115 13.4452 78.1202 13.4592C78.727 13.4386 79.3314 13.5444 79.8952 13.7698C80.4589 13.9953 80.9697 14.3354 81.395 14.7686C81.8294 15.2523 82.1632 15.8175 82.3769 16.4314C82.5906 17.0454 82.6799 17.6957 82.6398 18.3445V25.0178H79.7618V18.721C79.8177 17.9789 79.5829 17.244 79.1071 16.6717C78.8648 16.4306 78.5745 16.2431 78.2552 16.1212C77.9359 15.9993 77.5945 15.9458 77.2532 15.9642C76.9111 15.947 76.5691 16.001 76.249 16.1228C75.9289 16.2446 75.6375 16.4315 75.3933 16.6717C74.9033 17.2377 74.6564 17.9741 74.7062 18.721V25.0142H71.8282V18.721C71.8841 17.9789 71.6493 17.244 71.1735 16.6717C70.9309 16.4309 70.6407 16.2436 70.3214 16.1217C70.0021 15.9999 69.6609 15.9462 69.3196 15.9642C68.9775 15.947 68.6355 16.001 68.3154 16.1228C67.9953 16.2446 67.7039 16.4315 67.4597 16.6717C66.9813 17.2426 66.7462 17.9785 66.8049 18.721V25.0142H63.8311V13.6222L66.7318 13.6198Z" fill="url(#paint2_linear_89_2188)"/>
<path d="M90.4406 25.1783C89.6901 25.2075 88.9417 25.0793 88.2437 24.8019C87.5456 24.5246 86.9134 24.1042 86.3875 23.5678C85.8588 22.9956 85.4488 22.3242 85.1812 21.5924C84.9136 20.8607 84.7938 20.0832 84.8286 19.3048C84.7922 18.5272 84.9126 17.7502 85.1827 17.0201C85.4528 16.29 85.867 15.6217 86.4007 15.055C86.9341 14.5233 87.5715 14.1075 88.2731 13.8337C88.9747 13.5599 89.7253 13.4339 90.4778 13.4638C91.2301 13.4363 91.9803 13.5594 92.6844 13.8259C93.3884 14.0924 94.0321 14.4968 94.5777 15.0155C95.1185 15.557 95.5405 16.2054 95.8167 16.9191C96.093 17.6329 96.2175 18.3964 96.1822 19.1609C96.1855 19.5316 96.157 19.9019 96.0971 20.2678H87.7929C87.8312 20.9487 88.1234 21.5906 88.6119 22.0665C89.1142 22.5158 89.7722 22.7507 90.4454 22.7212C90.8936 22.7442 91.3392 22.6409 91.7315 22.4232C92.1239 22.2055 92.4474 21.8821 92.6651 21.4897H95.7829C95.4547 22.5513 94.7816 23.473 93.8702 24.1086C92.8719 24.8249 91.6691 25.2 90.4406 25.1783V25.1783ZM92.3401 16.5804C91.8243 16.1364 91.1604 15.9027 90.4802 15.9256C89.8115 15.8996 89.1588 16.1343 88.6599 16.5804C88.1608 17.0607 87.8517 17.7049 87.7893 18.3947H93.1723C93.1672 18.0511 93.0905 17.7123 92.9472 17.3999C92.8039 17.0875 92.5972 16.8084 92.3401 16.5804Z" fill="url(#paint3_linear_89_2188)"/>
<path d="M98.4541 25.0137V9.81445H101.355V25.0137H98.4541Z" fill="url(#paint4_linear_89_2188)"/>
<path d="M105.166 23.521C104.125 22.3663 103.576 20.8512 103.634 19.2976C103.57 17.7502 104.118 16.2399 105.159 15.0933C105.648 14.5588 106.246 14.1358 106.912 13.8534C107.579 13.5709 108.299 13.4355 109.023 13.4565C109.741 13.4317 110.452 13.601 111.081 13.9468C111.71 14.2925 112.235 14.8017 112.599 15.4207V13.6519H115.477V25.0439H112.599V23.0989C112.243 23.7381 111.721 24.2687 111.087 24.6343C110.454 24.9998 109.733 25.1866 109.001 25.1746C108.28 25.1901 107.564 25.05 106.902 24.7641C106.24 24.4781 105.647 24.0529 105.164 23.5174L105.166 23.521ZM111.715 21.7726C112.026 21.4474 112.267 21.0615 112.423 20.6389C112.579 20.2164 112.645 19.7663 112.619 19.3167C112.645 18.8672 112.579 18.4171 112.423 17.9946C112.267 17.572 112.026 17.1861 111.715 16.8609C111.44 16.5789 111.112 16.3547 110.749 16.2016C110.387 16.0486 109.997 15.9697 109.603 15.9697C109.21 15.9697 108.82 16.0486 108.457 16.2016C108.095 16.3547 107.766 16.5789 107.492 16.8609C107.182 17.1858 106.943 17.5709 106.789 17.9921C106.635 18.4133 106.568 18.8617 106.595 19.3096C106.571 19.7611 106.64 20.2126 106.795 20.6371C106.951 21.0615 107.191 21.4502 107.5 21.7798C107.773 22.0642 108.1 22.2905 108.462 22.4452C108.825 22.5998 109.215 22.6795 109.609 22.6795C110.003 22.6795 110.393 22.5998 110.755 22.4452C111.117 22.2905 111.445 22.0642 111.717 21.7798L111.715 21.7726Z" fill="url(#paint5_linear_89_2188)"/>
<path d="M121.461 13.621V15.3298C121.816 14.7169 122.337 14.2162 122.963 13.885C123.59 13.5538 124.297 13.4054 125.003 13.4567C125.596 13.4398 126.185 13.5476 126.734 13.7732C127.282 13.9988 127.777 14.3371 128.186 14.7662C128.62 15.2479 128.955 15.8105 129.172 16.4218C129.389 17.0331 129.483 17.6811 129.45 18.3289V25.0153H126.572V18.7222C126.628 17.98 126.393 17.2451 125.917 16.6728C125.676 16.4323 125.387 16.2451 125.069 16.1232C124.751 16.0013 124.411 15.9476 124.07 15.9653C123.728 15.9478 123.386 16.0016 123.066 16.1234C122.746 16.2452 122.454 16.4323 122.21 16.6728C121.718 17.2377 121.468 17.9742 121.516 18.7222V25.0153H118.625V13.6234L121.461 13.621Z" fill="url(#paint6_linear_89_2188)"/>
<path d="M133.129 23.5208C132.088 22.3661 131.538 20.851 131.597 19.2974C131.533 17.75 132.081 16.2397 133.122 15.0931C133.61 14.5579 134.208 14.1345 134.875 13.852C135.542 13.5694 136.262 13.4344 136.986 13.4563C137.703 13.4321 138.414 13.6018 139.043 13.9474C139.673 14.2931 140.197 14.8019 140.562 15.4205V9.81445H143.44V25.0137H140.577V23.1023C140.222 23.7414 139.699 24.2721 139.066 24.6377C138.432 25.0032 137.711 25.19 136.98 25.178C136.255 25.1964 135.535 25.0578 134.869 24.7718C134.204 24.4857 133.608 24.0589 133.122 23.5208H133.129ZM139.678 21.7724C139.989 21.4472 140.23 21.0613 140.386 20.6387C140.542 20.2162 140.608 19.7661 140.582 19.3165C140.608 18.867 140.542 18.4169 140.386 17.9944C140.23 17.5718 139.989 17.1859 139.678 16.8607C139.403 16.5786 139.075 16.3545 138.712 16.2014C138.35 16.0484 137.96 15.9695 137.566 15.9695C137.173 15.9695 136.783 16.0484 136.42 16.2014C136.057 16.3545 135.729 16.5786 135.454 16.8607C135.145 17.1856 134.906 17.5707 134.752 17.9919C134.597 18.4131 134.531 18.8615 134.557 19.3093C134.534 19.7606 134.602 20.2118 134.758 20.6361C134.913 21.0603 135.153 21.4489 135.462 21.7784C135.734 22.0628 136.062 22.2891 136.424 22.4438C136.786 22.5984 137.176 22.6781 137.57 22.6781C137.964 22.6781 138.354 22.5984 138.717 22.4438C139.079 22.2891 139.406 22.0628 139.679 21.7784L139.678 21.7724Z" fill="url(#paint7_linear_89_2188)"/>
<path d="M8.71875 6.88933C8.93946 6.65702 9.22061 6.49091 9.53058 6.40967C9.22061 6.49091 8.93946 6.65702 8.71875 6.88933V6.88933Z" fill="url(#paint8_linear_89_2188)"/>
<path d="M8.71425 6.8877L3.58067 12.3822C3.35773 12.6061 3.17984 12.8707 3.05664 13.1617C3.17195 12.8728 3.3408 12.6084 3.55429 12.3822L8.71425 6.8877Z" fill="url(#paint9_linear_89_2188)"/>
<path d="M21.6696 26.1357C21.6504 26.1894 21.6283 26.2419 21.6035 26.2932C21.6283 26.2419 21.6504 26.1894 21.6696 26.1357V26.1357Z" fill="url(#paint10_linear_89_2188)"/>
<path d="M21.7496 25.7108C21.747 25.8561 21.7203 26 21.6705 26.1365C21.6513 26.19 21.6293 26.2424 21.6045 26.2936C21.4996 26.5098 21.3358 26.692 21.1319 26.8193C20.9281 26.9466 20.6924 27.0137 20.4521 27.0131H4.53936C4.21451 27.013 3.89725 26.9148 3.6292 26.7313C3.45484 26.616 3.30556 26.4668 3.19031 26.2924C3.00899 26.0259 2.9132 25.7105 2.9157 25.3882V14.079C2.90735 13.767 2.95612 13.4561 3.0596 13.1617C3.17491 12.8728 3.34376 12.6084 3.55725 12.3822L8.69083 6.88411C8.96993 6.58357 9.34545 6.39023 9.75222 6.33766C10.159 6.28509 10.5713 6.3766 10.9177 6.59631L11.7691 7.12034L13.491 5.27964L10.9824 3.75792C10.4957 3.45634 9.91927 3.33331 9.35183 3.40987C8.78439 3.48644 8.2612 3.75783 7.87181 4.17762L1.09419 11.4073C0.673024 11.8664 0.439386 12.4667 0.439453 13.0897V26.9927C0.442939 27.6488 0.705999 28.2767 1.17113 28.7394C1.63627 29.2021 2.26565 29.4618 2.9217 29.4618H21.7484C22.4067 29.4618 23.0381 29.2002 23.5036 28.7347C23.9691 28.2692 24.2307 27.6379 24.2307 26.9795V23.6075H21.7496V25.7108Z" fill="url(#paint11_linear_89_2188)"/>
<path d="M21.1777 26.7827C21.3587 26.6572 21.5051 26.4881 21.6034 26.291C21.5051 26.4881 21.3587 26.6572 21.1777 26.7827Z" fill="url(#paint12_linear_89_2188)"/>
<path d="M3.18848 26.2861C3.30372 26.4605 3.45301 26.6098 3.62737 26.725C3.45301 26.6098 3.30372 26.4605 3.18848 26.2861V26.2861Z" fill="url(#paint13_linear_89_2188)"/>
<path d="M10.9185 6.6003C10.7177 6.47748 10.4938 6.39727 10.2607 6.36468C10.0276 6.33208 9.79026 6.3478 9.56348 6.41084C9.79026 6.3478 10.0276 6.33208 10.2607 6.36468C10.4938 6.39727 10.7177 6.47748 10.9185 6.6003V6.6003Z" fill="url(#paint14_linear_89_2188)"/>
<path d="M2.9112 14.0795C2.90284 13.7675 2.95161 13.4566 3.05509 13.1621C2.94262 13.4549 2.8849 13.7658 2.88481 14.0795V25.3815C2.88231 25.7038 2.9781 26.0192 3.15942 26.2856C2.9781 26.0192 2.88231 25.7038 2.88481 25.3815L2.9112 14.0795Z" fill="url(#paint15_linear_89_2188)"/>
<path d="M11.7352 7.12413L10.8838 6.6001L11.7352 7.12413Z" fill="url(#paint16_linear_89_2188)"/>
<path d="M21.7491 25.709C21.7465 25.8544 21.7197 25.9982 21.6699 26.1347C21.7197 25.9982 21.7465 25.8544 21.7491 25.709V23.6069V25.709Z" fill="url(#paint17_linear_89_2188)"/>
<path d="M28.1594 26.0833H9.33871C8.68037 26.0833 8.049 25.8217 7.58349 25.3562C7.11798 24.8907 6.85646 24.2593 6.85646 23.601V9.70283C6.85437 9.07552 7.08806 8.47033 7.5112 8.00722L14.2756 0.805108C14.6636 0.381748 15.1864 0.106018 15.7549 0.0248959C16.3234 -0.0562259 16.9025 0.0622797 17.3934 0.360222L29.4557 7.79497C29.8152 8.01893 30.1119 8.3305 30.3181 8.70048C30.5243 9.07046 30.6331 9.48673 30.6345 9.91028V23.601C30.6345 24.2581 30.3739 24.8884 29.91 25.3537C29.446 25.819 28.8165 26.0814 28.1594 26.0833V26.0833ZM10.9564 23.613H26.8691C27.0419 23.613 27.213 23.5788 27.3725 23.5124C27.532 23.446 27.6768 23.3487 27.7985 23.2261C27.9202 23.1035 28.0165 22.958 28.0817 22.798C28.1469 22.638 28.1799 22.4667 28.1786 22.2939V11.2893C28.18 10.8619 28.071 10.4414 27.8621 10.0685C27.6533 9.69563 27.3518 9.38297 26.9866 9.16081L17.3011 3.20102C16.9608 2.99379 16.5595 2.90999 16.1647 2.96371C15.7699 3.01743 15.4056 3.20539 15.133 3.49601L9.99944 8.98334C9.57353 9.44472 9.3394 10.051 9.3447 10.6789V21.9822C9.34279 22.412 9.51136 22.825 9.81347 23.1307C10.1156 23.4364 10.5266 23.6098 10.9564 23.613V23.613Z" fill="url(#paint18_linear_89_2188)"/>
<path d="M7.53809 8.00302L9.15574 3.41866C9.78701 3.28923 10.4439 3.40134 10.9964 3.73284L11.3274 3.9355L7.53809 8.00302Z" fill="url(#paint19_linear_89_2188)"/>
<path d="M21.6973 26.083H24.2251V27.0255C24.2061 27.6294 23.9742 28.2071 23.5703 28.6564L21.6973 26.083Z" fill="url(#paint20_linear_89_2188)"/>
<defs>
<linearGradient id="paint0_linear_89_2188" x1="24.9494" y1="-2.95129" x2="48.0547" y2="-1.82905" gradientUnits="userSpaceOnUse">
<stop offset="0.539916" stop-color="#E1B570"/>
<stop offset="1" stop-color="#F1E2C9"/>
</linearGradient>
<linearGradient id="paint1_linear_89_2188" x1="39.4047" y1="2.31588" x2="62.0678" y2="3.63716" gradientUnits="userSpaceOnUse">
<stop offset="0.539916" stop-color="#E1B570"/>
<stop offset="1" stop-color="#F1E2C9"/>
</linearGradient>
<linearGradient id="paint2_linear_89_2188" x1="47.204" y1="2.47325" x2="83.3041" y2="5.89412" gradientUnits="userSpaceOnUse">
<stop offset="0.539916" stop-color="#E1B570"/>
<stop offset="1" stop-color="#F1E2C9"/>
</linearGradient>
<linearGradient id="paint3_linear_89_2188" x1="74.7798" y1="2.34385" x2="96.7094" y2="3.58281" gradientUnits="userSpaceOnUse">
<stop offset="0.539916" stop-color="#E1B570"/>
<stop offset="1" stop-color="#F1E2C9"/>
</linearGradient>
<linearGradient id="paint4_linear_89_2188" x1="95.8911" y1="-4.59746" x2="101.505" y2="-4.53503" gradientUnits="userSpaceOnUse">
<stop offset="0.539916" stop-color="#E1B570"/>
<stop offset="1" stop-color="#F1E2C9"/>
</linearGradient>
<linearGradient id="paint5_linear_89_2188" x1="93.1605" y1="2.33964" x2="116.014" y2="3.68569" gradientUnits="userSpaceOnUse">
<stop offset="0.539916" stop-color="#E1B570"/>
<stop offset="1" stop-color="#F1E2C9"/>
</linearGradient>
<linearGradient id="paint6_linear_89_2188" x1="109.055" y1="2.47749" x2="129.958" y2="3.61794" gradientUnits="userSpaceOnUse">
<stop offset="0.539916" stop-color="#E1B570"/>
<stop offset="1" stop-color="#F1E2C9"/>
</linearGradient>
<linearGradient id="paint7_linear_89_2188" x1="121.123" y1="-4.75478" x2="144.01" y2="-3.72643" gradientUnits="userSpaceOnUse">
<stop offset="0.539916" stop-color="#E1B570"/>
<stop offset="1" stop-color="#F1E2C9"/>
</linearGradient>
<linearGradient id="paint8_linear_89_2188" x1="8.00144" y1="5.95485" x2="9.55768" y2="6.10834" gradientUnits="userSpaceOnUse">
<stop offset="0.539916" stop-color="#E1B570"/>
<stop offset="1" stop-color="#F1E2C9"/>
</linearGradient>
<linearGradient id="paint9_linear_89_2188" x1="-1.94224" y1="0.938728" x2="8.97847" y2="1.51258" gradientUnits="userSpaceOnUse">
<stop offset="0.539916" stop-color="#E1B570"/>
<stop offset="1" stop-color="#F1E2C9"/>
</linearGradient>
<linearGradient id="paint10_linear_89_2188" x1="21.5451" y1="25.9864" x2="21.673" y2="25.9895" gradientUnits="userSpaceOnUse">
<stop offset="0.539916" stop-color="#E1B570"/>
<stop offset="1" stop-color="#F1E2C9"/>
</linearGradient>
<linearGradient id="paint11_linear_89_2188" x1="-20.5817" y1="-21.3357" x2="25.3387" y2="-18.8941" gradientUnits="userSpaceOnUse">
<stop offset="0.539916" stop-color="#E1B570"/>
<stop offset="1" stop-color="#F1E2C9"/>
</linearGradient>
<linearGradient id="paint12_linear_89_2188" x1="20.8016" y1="25.8248" x2="21.6235" y2="25.8663" gradientUnits="userSpaceOnUse">
<stop offset="0.539916" stop-color="#E1B570"/>
<stop offset="1" stop-color="#F1E2C9"/>
</linearGradient>
<linearGradient id="paint13_linear_89_2188" x1="2.80069" y1="25.87" x2="3.64733" y2="25.9193" gradientUnits="userSpaceOnUse">
<stop offset="0.539916" stop-color="#E1B570"/>
<stop offset="1" stop-color="#F1E2C9"/>
</linearGradient>
<linearGradient id="paint14_linear_89_2188" x1="8.3662" y1="6.10905" x2="10.7548" y2="6.85701" gradientUnits="userSpaceOnUse">
<stop offset="0.539916" stop-color="#E1B570"/>
<stop offset="1" stop-color="#F1E2C9"/>
</linearGradient>
<linearGradient id="paint15_linear_89_2188" x1="2.64209" y1="0.718398" x2="3.17371" y2="0.719047" gradientUnits="userSpaceOnUse">
<stop offset="0.539916" stop-color="#E1B570"/>
<stop offset="1" stop-color="#F1E2C9"/>
</linearGradient>
<linearGradient id="paint16_linear_89_2188" x1="10.1315" y1="6.10321" x2="11.7648" y2="6.25785" gradientUnits="userSpaceOnUse">
<stop offset="0.539916" stop-color="#E1B570"/>
<stop offset="1" stop-color="#F1E2C9"/>
</linearGradient>
<linearGradient id="paint17_linear_89_2188" x1="21.6" y1="21.2101" x2="21.7532" y2="21.2103" gradientUnits="userSpaceOnUse">
<stop offset="0.539916" stop-color="#E1B570"/>
<stop offset="1" stop-color="#F1E2C9"/>
</linearGradient>
<linearGradient id="paint18_linear_89_2188" x1="-14.1531" y1="-24.7321" x2="31.7422" y2="-22.2941" gradientUnits="userSpaceOnUse">
<stop offset="0.539916" stop-color="#E1B570"/>
<stop offset="1" stop-color="#F1E2C9"/>
</linearGradient>
<linearGradient id="paint19_linear_89_2188" x1="4.18996" y1="-1.03041" x2="11.508" y2="-0.681912" gradientUnits="userSpaceOnUse">
<stop offset="0.539916" stop-color="#E1B570"/>
<stop offset="1" stop-color="#F1E2C9"/>
</linearGradient>
<linearGradient id="paint20_linear_89_2188" x1="19.4638" y1="23.6429" x2="24.3406" y2="23.9221" gradientUnits="userSpaceOnUse">
<stop offset="0.539916" stop-color="#E1B570"/>
<stop offset="1" stop-color="#F1E2C9"/>
</linearGradient>
</defs>
</svg>
