<svg width="130" height="31" viewBox="0 0 130 31" fill="none" xmlns="http://www.w3.org/2000/svg">
<path d="M125.074 19.3034C126.196 18.2159 127.895 18.2159 128.983 19.3034C130.104 20.3909 130.104 22.0902 128.983 23.1778C127.895 24.2653 126.196 24.2653 125.074 23.1778C123.987 22.0902 123.987 20.3909 125.074 19.3034Z" fill="url(#paint0_linear_89_2306)"/>
<path d="M107.375 21.7125C109.245 23.4801 111.488 24.232 114.106 24.232C116.757 24.232 119 23.3476 120.87 21.5806C122.825 19.7333 123.623 16.9897 123.623 13.4814V0.0966797H118.558V7.84444C117.193 6.57184 115.213 6.27481 113.887 6.27481C111.269 6.27481 109.245 7.09602 107.375 8.82963C105.506 10.5972 104.588 12.7387 104.588 15.288C104.588 17.8375 105.506 19.9789 107.375 21.7125ZM110.944 12.0929C111.794 11.2431 112.848 10.8012 114.106 10.8012C115.363 10.8012 116.417 11.2431 117.267 12.0929C118.117 12.9427 118.558 14.0305 118.558 15.288C118.558 16.5457 118.117 17.5995 117.267 18.4494C116.417 19.3332 115.363 19.775 114.106 19.775C112.848 19.775 111.794 19.3332 110.944 18.4494C110.095 17.5995 109.653 16.5457 109.653 15.288C109.653 14.0305 110.095 12.9767 110.944 12.0929Z" fill="url(#paint1_linear_89_2306)"/>
<path d="M125.042 19.3034C126.164 18.2159 127.863 18.2159 128.951 19.3034C130.072 20.3909 130.072 22.0902 128.951 23.1778C127.863 24.2653 126.164 24.2653 125.042 23.1778C123.955 22.0902 123.955 20.3909 125.042 19.3034Z" fill="url(#paint2_linear_89_2306)"/>
<path d="M21.2042 0H26.268V17.3329C26.268 18.8621 26.8457 19.542 28.2391 19.542C28.7148 19.542 29.1226 19.508 29.4624 19.4059V23.8922C28.8847 24.0619 28.0691 24.1301 27.0495 24.1301C23.1412 24.1301 21.2041 22.1248 21.2041 18.1147V0H21.2042Z" fill="url(#paint3_linear_89_2306)"/>
<path d="M33.0322 8.83628C34.6634 7.10301 36.7026 6.25342 39.1155 6.25342C41.6983 6.25342 43.7034 7.30698 44.2132 8.80232V6.55925H49.2769V17.6726C49.2769 19.032 49.6168 19.5758 50.5344 19.5758C50.7722 19.5758 51.0781 19.5418 51.384 19.5078V23.722C50.8402 23.892 50.0925 23.9939 49.107 23.9939C47.9856 23.9939 47.0339 23.7899 46.3201 23.3822C45.5386 22.8724 45.0288 22.2607 44.7909 21.5469C43.6694 23.2122 41.8001 24.0279 39.1155 24.0279C36.7025 24.0279 34.6634 23.1783 33.0322 21.479C31.4349 19.7458 30.6191 17.6386 30.6191 15.1236C30.6193 12.6427 31.4349 10.5357 33.0322 8.83628ZM43.1937 18.1825C44.0772 17.3329 44.519 16.3133 44.519 15.1237C44.519 13.9343 44.0772 12.9146 43.1937 12.0989C42.344 11.2494 41.2906 10.8417 40.033 10.8417C38.8095 10.8417 37.7899 11.2494 36.9404 12.0989C36.0907 12.9146 35.6829 13.9342 35.6829 15.1237C35.6829 16.3133 36.0907 17.3329 36.9404 18.1825C37.7899 18.9982 38.8095 19.4059 40.033 19.4059C41.2906 19.4059 42.344 18.9982 43.1937 18.1825Z" fill="url(#paint4_linear_89_2306)"/>
<path d="M53.627 23.6883V6.55941H58.6907V8.70049C59.4043 7.20504 61.3076 6.18555 63.6185 6.18555C67.7307 6.18555 70.1097 8.83632 70.1097 13.2886V17.6048C70.1097 18.9302 70.3815 19.406 71.2311 19.406H71.571L71.7749 19.3721V23.6543C71.367 23.8241 70.6193 23.8923 69.5658 23.8923C66.541 23.8923 65.0458 22.261 65.0458 18.9983V13.9004C65.0458 11.8953 63.9922 10.6717 61.987 10.6717C60.0839 10.6717 58.6905 12.065 58.6905 14.0704V23.6883H53.627Z" fill="url(#paint5_linear_89_2306)"/>
<path d="M74.6981 11.1473H72.4551V6.55919H74.6981V0H79.6259V6.55919H83.4322V11.1473H79.6259V17.2647C79.6259 18.896 80.2716 19.5419 81.8009 19.5419C82.0728 19.5419 82.5145 19.5079 83.0923 19.4058V23.892C82.4125 24.0618 81.5969 24.13 80.6114 24.13C76.6691 24.13 74.6981 22.0908 74.6981 18.0124V11.1473Z" fill="url(#paint6_linear_89_2306)"/>
<path d="M84.8936 15.0894C84.8936 12.4045 85.7771 10.2295 87.5104 8.59818C89.2437 6.93294 91.4866 6.11719 94.1715 6.11719C96.7884 6.11719 98.8956 6.96678 100.527 8.63225C102.158 10.2975 102.974 12.3366 102.974 14.8176C102.974 15.3955 102.94 15.9393 102.906 16.4488H89.9574C90.0593 18.4881 91.8266 19.8136 94.5113 19.8136C96.1086 19.8136 97.502 19.2699 98.6916 18.1484L101.648 20.9692C99.6432 23.0423 97.1622 24.096 94.2735 24.096C91.4527 24.096 89.2098 23.2801 87.4766 21.683C85.7432 20.0518 84.8937 17.9106 84.8937 15.2257V15.0894H84.8936ZM97.876 13.1523C97.876 11.555 96.2108 10.2976 94.1715 10.2976C91.9624 10.2976 90.1612 11.5549 90.0253 13.1523H97.876Z" fill="url(#paint7_linear_89_2306)"/>
<path d="M16.2477 8.62542C14.3781 6.85786 12.1347 6.10596 9.51744 6.10596C6.86615 6.10596 4.62325 6.99032 2.75327 8.75731C0.798123 10.6046 0 13.3482 0 16.8566V30.2414H5.06467V22.4936C6.43006 23.7662 8.41036 24.0632 9.73647 24.0632C12.3538 24.0632 14.3783 23.242 16.2478 21.5084C18.1173 19.7409 19.0351 17.5993 19.0351 15.0501C19.0349 12.5006 18.1172 10.359 16.2477 8.62542ZM12.6785 18.2452C11.8287 19.095 10.7751 19.5369 9.51733 19.5369C8.25971 19.5369 7.20593 19.095 6.35612 18.2452C5.50632 17.3953 5.06443 16.3076 5.06443 15.0501C5.06443 13.7923 5.50632 12.7385 6.35612 11.8887C7.20593 11.0049 8.25971 10.563 9.51733 10.563C10.7751 10.563 11.8287 11.0049 12.6785 11.8887C13.5283 12.7385 13.9702 13.7923 13.9702 15.0501C13.9702 16.3076 13.5283 17.3614 12.6785 18.2452Z" fill="url(#paint8_linear_89_2306)"/>
<defs>
<linearGradient id="paint0_linear_89_2306" x1="119.342" y1="13.2674" x2="130.076" y2="13.8997" gradientUnits="userSpaceOnUse">
<stop offset="0.539916" stop-color="#E1B570"/>
<stop offset="1" stop-color="#F1E2C9"/>
</linearGradient>
<linearGradient id="paint1_linear_89_2306" x1="87.7691" y1="-22.7884" x2="124.536" y2="-21.0986" gradientUnits="userSpaceOnUse">
<stop offset="0.539916" stop-color="#E1B570"/>
<stop offset="1" stop-color="#F1E2C9"/>
</linearGradient>
<linearGradient id="paint2_linear_89_2306" x1="119.309" y1="13.2674" x2="130.044" y2="13.8997" gradientUnits="userSpaceOnUse">
<stop offset="0.539916" stop-color="#E1B570"/>
<stop offset="1" stop-color="#F1E2C9"/>
</linearGradient>
<linearGradient id="paint3_linear_89_2306" x1="13.9073" y1="-22.8801" x2="29.8858" y2="-22.5614" gradientUnits="userSpaceOnUse">
<stop offset="0.539916" stop-color="#E1B570"/>
<stop offset="1" stop-color="#F1E2C9"/>
</linearGradient>
<linearGradient id="paint4_linear_89_2306" x1="12.272" y1="-10.6003" x2="52.279" y2="-7.87684" gradientUnits="userSpaceOnUse">
<stop offset="0.539916" stop-color="#E1B570"/>
<stop offset="1" stop-color="#F1E2C9"/>
</linearGradient>
<linearGradient id="paint5_linear_89_2306" x1="37.592" y1="-10.6039" x2="72.5943" y2="-8.51345" gradientUnits="userSpaceOnUse">
<stop offset="0.539916" stop-color="#E1B570"/>
<stop offset="1" stop-color="#F1E2C9"/>
</linearGradient>
<linearGradient id="paint6_linear_89_2306" x1="62.756" y1="-22.88" x2="83.9885" y2="-22.3171" gradientUnits="userSpaceOnUse">
<stop offset="0.539916" stop-color="#E1B570"/>
<stop offset="1" stop-color="#F1E2C9"/>
</linearGradient>
<linearGradient id="paint7_linear_89_2306" x1="68.9186" y1="-10.9303" x2="103.795" y2="-8.88656" gradientUnits="userSpaceOnUse">
<stop offset="0.539916" stop-color="#E1B570"/>
<stop offset="1" stop-color="#F1E2C9"/>
</linearGradient>
<linearGradient id="paint8_linear_89_2306" x1="-16.8188" y1="-16.7792" x2="19.9479" y2="-15.0895" gradientUnits="userSpaceOnUse">
<stop offset="0.539916" stop-color="#E1B570"/>
<stop offset="1" stop-color="#F1E2C9"/>
</linearGradient>
</defs>
</svg>
