<svg width="156" height="20" viewBox="0 0 156 20" fill="none" xmlns="http://www.w3.org/2000/svg">
<mask id="mask0_301_4" style="mask-type:luminance" maskUnits="userSpaceOnUse" x="0" y="0" width="156" height="20">
<path d="M155.463 0H0V20H155.463V0Z" fill="white"/>
</mask>
<g mask="url(#mask0_301_4)">
<path d="M46.5678 1.68821C45.7896 2.21546 44.6692 3.24968 43.9011 4.14702C40.7452 7.8327 41.0925 7.91888 37.493 12.2763C33.6552 16.9227 30.8517 18.7605 28.0202 18.7605C25.1888 18.7605 22.3878 16.9227 18.5475 12.2763C14.948 7.91888 15.2953 7.8327 12.1394 4.14702C11.3713 3.25222 10.2509 2.218 9.47274 1.68821C7.92141 0.63625 3.51078 0.045627 0 0C0 0.91508 1.32573 2.76046 1.8758 2.91762C2.45374 3.08238 3.08238 3.19645 3.79974 3.36882C6.54245 3.90875 9.01141 5.20913 10.9784 7.04182C12.2078 8.13942 13.2699 9.5234 15.8403 12.2662C19.531 16.2028 22.9581 19.8606 28.0177 19.8606C33.0773 19.8606 36.5069 16.2028 40.1951 12.2662C42.7655 9.5234 43.8276 8.13688 45.057 7.04182C47.024 5.20913 49.493 3.90875 52.2357 3.36882C52.9531 3.19645 53.5817 3.08238 54.1596 2.91762C54.7097 2.76046 56.0354 0.91508 56.0354 0C52.5247 0.045627 48.114 0.63625 46.5652 1.68821H46.5678Z" fill="url(#paint0_linear_301_4)"/>
<path d="M79.7034 0.0380859H76.365H76.3371V12.0786L63.4398 0.436058L63.0088 0.0380859V0.0482249V0.045691V4.90247V19.9772H64.9531H66.3751V7.95444L79.7034 19.9772V0.0380859Z" fill="url(#paint1_linear_301_4)"/>
<path d="M129.643 0.0380859L124.406 8.33466L119.172 0.0380859H115.433L122.723 11.5894V19.9772H124.406H126.092V11.5894L133.382 0.0380859H129.643Z" fill="url(#paint2_linear_301_4)"/>
<path d="M145.117 20.0001C139.312 20.0001 134.696 15.483 134.696 10.033C134.696 4.58308 139.312 0.0380859 145.117 0.0380859C150.922 0.0380859 155.462 4.35241 155.462 10.1065C155.462 15.5311 150.717 19.9975 145.117 19.9975M145.117 2.96331C141.282 2.96331 138.129 5.99246 138.129 9.9291C138.129 13.8657 141.206 17.0951 144.942 17.0951C148.93 17.0951 152.032 13.9925 152.032 10.0812C152.032 6.1699 148.879 2.96584 145.117 2.96584" fill="url(#paint3_linear_301_4)"/>
<path d="M91.5998 0.0380859H88.2285V19.9772H91.5998V0.0380859Z" fill="url(#paint4_linear_301_4)"/>
<path d="M107.622 12.1243C110.704 11.5717 112.836 8.96331 112.836 6.22313C112.838 1.00894 108.07 0.0608999 104.382 0.0608999C102.975 0.0532949 101.569 0.0456909 100.162 0.0380859C100.162 1.07231 100.162 2.10653 100.162 3.14075H105.092C107.964 3.14075 109.305 4.27383 109.305 6.40564C109.305 8.1699 107.83 9.6984 104.854 9.6984H100.162C100.162 13.1306 100.164 16.5653 100.164 19.9975H103.536V12.6236H104.063L110.831 19.9975H115.492L107.617 12.1217L107.622 12.1243Z" fill="url(#paint5_linear_301_4)"/>
</g>
<defs>
<linearGradient id="paint0_linear_301_4" x1="-49.5112" y1="-18.8318" x2="56.0964" y2="-1.46873" gradientUnits="userSpaceOnUse">
<stop offset="0.539916" stop-color="#E1B570"/>
<stop offset="1" stop-color="#F1E2C9"/>
</linearGradient>
<linearGradient id="paint1_linear_301_4" x1="48.258" y1="-18.8681" x2="80.4953" y2="-17.2953" gradientUnits="userSpaceOnUse">
<stop offset="0.539916" stop-color="#E1B570"/>
<stop offset="1" stop-color="#F1E2C9"/>
</linearGradient>
<linearGradient id="paint2_linear_301_4" x1="99.5734" y1="-18.8681" x2="134.22" y2="-17.0507" gradientUnits="userSpaceOnUse">
<stop offset="0.539916" stop-color="#E1B570"/>
<stop offset="1" stop-color="#F1E2C9"/>
</linearGradient>
<linearGradient id="paint3_linear_301_4" x1="116.348" y1="-18.8899" x2="156.396" y2="-16.4622" gradientUnits="userSpaceOnUse">
<stop offset="0.539916" stop-color="#E1B570"/>
<stop offset="1" stop-color="#F1E2C9"/>
</linearGradient>
<linearGradient id="paint4_linear_301_4" x1="85.2497" y1="-18.8681" x2="91.7746" y2="-18.8039" gradientUnits="userSpaceOnUse">
<stop offset="0.539916" stop-color="#E1B570"/>
<stop offset="1" stop-color="#F1E2C9"/>
</linearGradient>
<linearGradient id="paint5_linear_301_4" x1="86.617" y1="-18.8874" x2="116.23" y2="-17.562" gradientUnits="userSpaceOnUse">
<stop offset="0.539916" stop-color="#E1B570"/>
<stop offset="1" stop-color="#F1E2C9"/>
</linearGradient>
</defs>
</svg>
