<svg width="501" height="78" viewBox="0 0 501 78" fill="none" xmlns="http://www.w3.org/2000/svg">
<g clip-path="url(#clip0_201_320)">
<path d="M32.44 18.42C31.0701 16.8589 29.4047 15.5845 27.54 14.67C25.5989 13.7296 23.4668 13.2505 21.31 13.27H0V64.39H6.48V46H21.74C23.872 46.0293 25.9814 45.5601 27.9 44.63C29.7119 43.7526 31.3276 42.5178 32.65 41C33.981 39.447 35.0179 37.6646 35.71 35.74C36.4275 33.7795 36.7931 31.7077 36.79 29.62C36.7904 27.5846 36.4 25.5681 35.64 23.68C34.88 21.7576 33.7978 19.9787 32.44 18.42ZM29.59 33.72C29.1883 34.9538 28.5796 36.1103 27.79 37.14C27.0408 38.1028 26.0881 38.8882 25 39.44C23.87 40.0024 22.6221 40.2869 21.36 40.27H6.48V19H21C22.2343 18.9909 23.4547 19.261 24.57 19.79C25.6953 20.3152 26.6997 21.0677 27.52 22C29.3179 24.1075 30.3007 26.7898 30.29 29.56C30.2858 30.9756 30.0493 32.3809 29.59 33.72Z" fill="#00C853"/>
<path d="M66.7002 13C63.2695 13.0371 59.9661 14.3039 57.3902 16.57C54.4445 19.0392 52.0583 22.1072 50.3902 25.57V13.33H44.1602V64.39H50.8202V32.64C52.051 28.7197 54.5304 25.3097 57.8802 22.93C61.3394 20.5408 65.4362 19.2449 69.6402 19.21V13.13C69.2212 13.0516 68.7964 13.0081 68.3702 13H66.7002Z" fill="#00C853"/>
<path d="M117.46 20.29C115.212 17.8521 112.49 15.8989 109.46 14.55C106.224 13.1635 102.741 12.4486 99.2202 12.4486C95.6998 12.4486 92.2161 13.1635 88.9802 14.55C82.844 17.2794 78.0223 22.3057 75.5502 28.55C74.2698 31.7764 73.6214 35.2189 73.6402 38.69C73.6174 42.2186 74.2726 45.7187 75.5702 49C76.7978 52.139 78.6098 55.0166 80.9102 57.48C83.2631 60.0037 86.1165 62.0089 89.2882 63.3674C92.4599 64.726 95.8801 65.408 99.3302 65.37C101.714 65.3712 104.088 65.0585 106.39 64.44C108.592 63.8501 110.702 62.9583 112.66 61.79C114.507 60.6993 116.191 59.3526 117.66 57.79C119.08 56.2886 120.212 54.5397 121 52.63L115.22 51.06C114.617 52.4547 113.77 53.7312 112.72 54.83C111.634 55.9766 110.38 56.9511 109 57.72C107.581 58.5296 106.066 59.1578 104.49 59.59C102.862 60.0406 101.18 60.2693 99.4902 60.27C97.0842 60.2821 94.7014 59.7987 92.4902 58.85C90.3202 57.9081 88.3563 56.549 86.7102 54.85C83.1665 51.1598 81.0413 46.3356 80.7102 41.23H124.32C124.41 40.8767 124.46 40.5145 124.47 40.15V38.58C124.491 35.1588 123.86 31.7649 122.61 28.58C121.42 25.5226 119.674 22.712 117.46 20.29ZM80.5202 36.16C80.6889 33.594 81.3013 31.0767 82.3302 28.72C83.2703 26.5195 84.6288 24.5226 86.3302 22.84C88.012 21.1919 89.9991 19.8875 92.1802 19C96.7056 17.1702 101.765 17.1702 106.29 19C108.463 19.8868 110.443 21.1876 112.12 22.83C115.693 26.3793 117.829 31.1225 118.12 36.15L80.5202 36.16Z" fill="#00C853"/>
<path d="M164.14 40.7701C162.463 39.5825 160.62 38.6491 158.67 38.0001C156.32 37.1983 153.926 36.5306 151.5 36.0001C149.2 35.4701 147.2 35.0001 145.5 34.4901C144.032 34.0933 142.616 33.5261 141.28 32.8001C140.263 32.2496 139.409 31.4429 138.8 30.4601C138.233 29.3974 137.957 28.2038 138 27.0001C137.949 25.8341 138.173 24.6724 138.654 23.6091C139.135 22.5459 139.86 21.6109 140.77 20.8801C142.62 19.3901 145.53 18.6501 149.52 18.6501C151.01 18.6413 152.495 18.7989 153.95 19.1201C155.292 19.4019 156.605 19.8104 157.87 20.3401C158.996 20.7975 160.081 21.353 161.11 22.0001C161.967 22.5358 162.741 23.1926 163.41 23.9501L166.41 18.6901C163.048 16.0543 159.115 14.242 154.927 13.3981C150.738 12.5542 146.411 12.7021 142.29 13.8301C140.173 14.4079 138.191 15.4004 136.46 16.7501C134.84 18.0204 133.533 19.6454 132.64 21.5001C131.722 23.5303 131.277 25.7427 131.34 27.9701C131.289 29.7492 131.63 31.5178 132.34 33.1501C133.022 34.6022 134.052 35.863 135.34 36.8201C136.842 37.931 138.505 38.8076 140.27 39.4201C142.51 40.2167 144.794 40.8845 147.11 41.4201C149.457 42.0001 151.557 42.5634 153.41 43.1101C155.023 43.5705 156.58 44.2112 158.05 45.0201C159.188 45.6376 160.164 46.5147 160.9 47.5801C161.59 48.6622 161.939 49.9271 161.9 51.2101C161.963 52.3622 161.719 53.5103 161.192 54.5367C160.664 55.563 159.873 56.4305 158.9 57.0501C156.9 58.3401 154.07 58.9801 150.4 58.9901C148.5 58.9976 146.605 58.793 144.75 58.3801C143.042 57.9912 141.369 57.4593 139.75 56.7901C138.289 56.1965 136.889 55.4631 135.57 54.6001C134.481 53.8991 133.474 53.0772 132.57 52.1501L129.48 57.6201C132.308 59.9808 135.531 61.8225 139 63.0601C142.605 64.2912 146.391 64.9097 150.2 64.8901C152.671 64.9096 155.136 64.6309 157.54 64.0601C159.644 63.5795 161.637 62.7003 163.41 61.4701C165.053 60.3096 166.399 58.7782 167.34 57.0001C168.338 55.028 168.833 52.8397 168.78 50.6301C168.848 48.6169 168.44 46.6161 167.59 44.7901C166.783 43.1904 165.599 41.8108 164.14 40.7701Z" fill="#00C853"/>
<path d="M208.27 40.77C206.593 39.5824 204.75 38.649 202.8 38C200.454 37.1949 198.064 36.5271 195.64 36C193.33 35.47 191.33 35 189.64 34.49C188.176 34.0931 186.763 33.5259 185.43 32.8C184.431 32.2522 183.594 31.4523 183 30.48C182.433 29.4174 182.157 28.2237 182.2 27.02C182.151 25.8514 182.38 24.6878 182.866 23.6243C183.353 22.5607 184.084 21.6272 185 20.9C186.84 19.41 189.76 18.67 193.74 18.67C195.23 18.6612 196.716 18.8188 198.17 19.14C200.715 19.6713 203.144 20.6571 205.34 22.05C206.195 22.5884 206.969 23.2449 207.64 24L210.64 18.74C205.924 14.8592 199.976 12.7915 193.87 12.91C191.385 12.8969 188.911 13.2336 186.52 13.91C184.403 14.4878 182.421 15.4803 180.69 16.83C179.076 18.1035 177.773 19.7279 176.88 21.58C175.929 23.5849 175.45 25.7811 175.48 28C175.429 29.7791 175.77 31.5477 176.48 33.18C177.162 34.6321 178.193 35.893 179.48 36.85C180.986 37.961 182.652 38.8376 184.42 39.45C186.659 40.2512 188.943 40.919 191.26 41.45C193.613 42.03 195.713 42.5933 197.56 43.14C199.174 43.6004 200.73 44.2411 202.2 45.05C203.33 45.6778 204.29 46.5699 205 47.65C205.69 48.7321 206.039 49.997 206 51.28C206.063 52.4321 205.819 53.5803 205.292 54.6066C204.764 55.6329 203.973 56.5004 203 57.12C201 58.41 198.15 59.06 194.51 59.06C192.607 59.067 190.708 58.8624 188.85 58.45C187.142 58.0611 185.469 57.5292 183.85 56.86C182.392 56.2685 180.995 55.5349 179.68 54.67C178.589 53.9716 177.582 53.1494 176.68 52.22L173.58 57.69C176.447 60.0309 179.703 61.8486 183.2 63.06C186.801 64.292 190.584 64.9106 194.39 64.89C196.864 64.909 199.332 64.6303 201.74 64.06C203.841 63.5794 205.83 62.7001 207.6 61.47C209.231 60.3101 210.561 58.7776 211.48 57C212.478 55.0279 212.973 52.8396 212.92 50.63C212.978 48.6176 212.571 46.619 211.73 44.79C210.919 43.1898 209.732 41.8104 208.27 40.77Z" fill="#00C853"/>
<path d="M244 60.31C241.618 60.3231 239.26 59.8466 237.07 58.91C234.939 57.9861 233.007 56.6583 231.38 55C227.84 51.3636 225.713 46.5841 225.38 41.52H253.8L255.21 36.52H225.21C225.367 33.9545 225.973 31.4364 227 29.08C227.951 26.9032 229.309 24.9279 231 23.26C232.657 21.634 234.618 20.3497 236.77 19.48C241.259 17.6599 246.281 17.6599 250.77 19.48C252.923 20.3497 254.883 21.634 256.54 23.26C257.191 23.9071 257.796 24.5988 258.35 25.33L260.06 19C257.029 16.3627 253.408 14.4945 249.502 13.5538C245.596 12.6131 241.521 12.6275 237.622 13.5959C233.723 14.5643 230.115 16.4581 227.103 19.1169C224.091 21.7757 221.765 25.1212 220.32 28.87C219.056 32.0517 218.414 35.4465 218.43 38.87C218.403 42.3563 219.045 45.8153 220.32 49.06C221.54 52.1623 223.331 55.0082 225.6 57.45C227.932 59.9465 230.758 61.9301 233.898 63.2747C237.038 64.6193 240.424 65.2955 243.84 65.26C244.967 65.2568 246.092 65.1833 247.21 65.04L248.73 59.6C247.191 60.0406 245.601 60.2793 244 60.31Z" fill="#00C853"/>
<path d="M260.16 38.94C260.171 35.8099 260.719 32.7048 261.78 29.76C262.832 26.7692 264.429 23.9991 266.49 21.59C268.608 19.1479 271.192 17.1524 274.09 15.72C277.283 14.1638 280.799 13.3859 284.35 13.45C288.458 13.3286 292.51 14.4208 296 16.59C299.088 18.5264 301.56 21.301 303.13 24.59L300.13 26.32C299.35 24.6711 298.291 23.1691 297 21.88C295.814 20.7308 294.466 19.7606 293 19C291.605 18.2679 290.118 17.7232 288.58 17.38C287.089 17.0536 285.567 16.886 284.04 16.88C281.04 16.8266 278.072 17.5135 275.4 18.88C272.968 20.1408 270.818 21.8827 269.08 24C267.349 26.1282 266.02 28.5547 265.16 31.16C264.29 33.7379 263.841 36.4392 263.83 39.16C263.828 44.9777 265.923 50.6013 269.73 55C271.543 57.0737 273.744 58.7723 276.21 60C278.716 61.2494 281.481 61.89 284.28 61.87C285.867 61.8626 287.448 61.668 288.99 61.29C290.624 60.9025 292.198 60.2971 293.67 59.49C295.219 58.6586 296.638 57.604 297.88 56.36C299.206 55.0531 300.301 53.5317 301.12 51.86L304.22 53.37C303.372 55.2716 302.19 57.0057 300.73 58.49C299.275 59.9669 297.614 61.2265 295.8 62.23C293.974 63.2369 292.024 64.0001 290 64.5C288.037 64.9891 286.023 65.2409 284 65.25C280.656 65.2899 277.354 64.4997 274.39 62.95C271.52 61.4497 268.964 59.4129 266.86 56.95C264.74 54.4512 263.072 51.6018 261.93 48.53C260.769 45.4656 260.17 42.2171 260.16 38.94Z" fill="#00C853"/>
<path d="M313.51 64.86V13.86H317.18V64.86H313.51Z" fill="#00C853"/>
<path d="M366.57 17.05H347.85V64.86H344.18V17.05H325.46V13.74H366.57V17.05Z" fill="#00C853"/>
<path d="M398.76 17C394.298 17.1009 389.993 18.6683 386.51 21.46C382.96 24.3758 380.419 28.337 379.25 32.78V64.78H375.92V13.78H379.16V26.84C380.788 23.4033 383.183 20.3859 386.16 18.02C388.863 15.8366 392.122 14.4512 395.57 14.02C396.22 14.02 396.81 14.02 397.33 14.02C397.79 13.9949 398.25 13.9949 398.71 14.02L398.76 17Z" fill="#00C853"/>
<path d="M426.61 65.22C423.239 65.271 419.905 64.5096 416.89 63C414.019 61.5603 411.452 59.5809 409.33 57.17C407.192 54.7414 405.53 51.9326 404.43 48.89C403.287 45.8251 402.702 42.5809 402.7 39.31C402.688 35.9596 403.312 32.6374 404.54 29.52C405.698 26.4831 407.391 23.6786 409.54 21.24C411.663 18.8465 414.244 16.9017 417.13 15.52C420.095 14.0901 423.348 13.3613 426.64 13.39C430.016 13.3501 433.351 14.129 436.36 15.66C439.231 17.1294 441.786 19.1475 443.88 21.6C445.979 24.0644 447.624 26.8813 448.74 29.92C450.467 34.5382 450.901 39.5405 449.993 44.3869C449.085 49.2334 446.871 53.7399 443.59 57.42C441.459 59.7976 438.88 61.7313 436 63.11C433.073 64.5239 429.86 65.2458 426.61 65.22ZM406.37 39.3C406.37 42.1844 406.87 45.047 407.85 47.76C408.772 50.4097 410.18 52.8648 412 55C413.784 57.0714 415.958 58.7705 418.4 60C420.941 61.2591 423.744 61.8998 426.58 61.87C429.467 61.9132 432.32 61.247 434.89 59.93C437.332 58.6503 439.497 56.9 441.26 54.78C443.049 52.6301 444.441 50.1784 445.37 47.54C447.312 42.1488 447.287 36.2448 445.3 30.87C444.33 28.2396 442.901 25.8019 441.08 23.67C439.296 21.5986 437.121 19.8995 434.68 18.67C432.112 17.4275 429.294 16.7878 426.442 16.8C423.589 16.8121 420.777 17.4757 418.22 18.74C415.768 20.0046 413.6 21.7571 411.85 23.89C408.303 28.2561 406.359 33.705 406.34 39.33L406.37 39.3Z" fill="#00C853"/>
<path d="M500.26 64.86H496.93V36.44C496.93 29.4533 495.95 24.3433 493.99 21.11C492.03 17.8766 488.893 16.2566 484.58 16.25C482.218 16.2535 479.877 16.6873 477.67 17.53C475.412 18.3798 473.298 19.5703 471.4 21.06C469.46 22.5716 467.746 24.3529 466.31 26.35C464.85 28.3537 463.769 30.6074 463.12 33V64.86H459.79V13.86H462.93V26.64C463.983 24.6092 465.331 22.7457 466.93 21.11C468.519 19.459 470.318 18.0234 472.28 16.84C474.231 15.6701 476.32 14.7496 478.5 14.1C480.677 13.4439 482.937 13.107 485.21 13.1C490.543 13.1 494.4 15.01 496.78 18.83C499.16 22.65 500.333 28.3733 500.3 36L500.26 64.86Z" fill="#00C853"/>
<path d="M453.31 9.74999C453.31 9.74999 430.1 4.35999 427.31 30.75C427.29 30.77 450.74 34 453.31 9.74999Z" fill="#FBEA00"/>
<path d="M440.41 0C440.41 0 417.41 6.24 427.41 30.83C427.44 30.83 449.61 22.57 440.41 0Z" fill="#00C853"/>
</g>
<defs>
<clipPath id="clip0_201_320">
<rect width="500.3" height="77.64" fill="white"/>
</clipPath>
</defs>
</svg>
