<svg width="88" height="12" viewBox="0 0 88 12" fill="none" xmlns="http://www.w3.org/2000/svg">
<g clip-path="url(#clip0_208_347)">
<mask id="mask0_208_347" style="mask-type:luminance" maskUnits="userSpaceOnUse" x="0" y="0" width="88" height="12">
<path d="M88 0H0V11.8752H88V0Z" fill="white"/>
</mask>
<g mask="url(#mask0_208_347)">
<path d="M26.3597 1.00239C25.9193 1.31546 25.285 1.92954 24.8503 2.46233C23.0639 4.65076 23.2606 4.70192 21.223 7.28919C19.0506 10.048 17.4637 11.1392 15.8609 11.1392C14.2582 11.1392 12.6727 10.048 10.4989 7.28919C8.46138 4.70192 8.65795 4.65076 6.87155 2.46233C6.43678 1.93104 5.80257 1.31696 5.36208 1.00239C4.48393 0.377781 1.98728 0.0270918 0 0C0 0.543342 0.750431 1.63905 1.0618 1.73237C1.38895 1.8302 1.74479 1.89793 2.15086 2.00028C3.70337 2.32087 5.10092 3.09298 6.21438 4.18117C6.91029 4.83286 7.5115 5.65465 8.96645 7.28317C11.0556 9.62058 12.9955 11.7924 15.8595 11.7924C18.7235 11.7924 20.6649 9.62058 22.7526 7.28317C24.2075 5.65465 24.8087 4.83136 25.5046 4.18117C26.618 3.09298 28.0157 2.32087 29.5682 2.00028C29.9743 1.89793 30.3301 1.8302 30.6572 1.73237C30.9685 1.63905 31.7189 0.543342 31.7189 0C29.7317 0.0270918 27.2351 0.377781 26.3584 1.00239H26.3597Z" fill="#071429"/>
<path d="M45.1163 0.0224609H43.2267H43.2108V7.17169L35.9101 0.258761L35.6664 0.0224609V0.0284812V0.0269761V2.91074V11.8616H36.7668H37.5718V4.72288L45.1163 11.8616V0.0224609Z" fill="#071429"/>
<path d="M73.3845 0.0224609L70.42 4.94864L67.457 0.0224609H65.3406L69.4674 6.88119V11.8616H70.42H71.3744V6.88119L75.5009 0.0224609H73.3845Z" fill="#071429"/>
<path d="M82.1442 11.8751C78.8585 11.8751 76.2456 9.19302 76.2456 5.95706C76.2456 2.72109 78.8585 0.0224609 82.1442 0.0224609C85.4302 0.0224609 88 2.58413 88 6.00072C88 9.22163 85.314 11.8736 82.1442 11.8736M82.1442 1.75934C79.9733 1.75934 78.1884 3.55793 78.1884 5.89535C78.1884 8.23276 79.9304 10.1503 82.0452 10.1503C84.3024 10.1503 86.0587 8.30802 86.0587 5.98567C86.0587 3.6633 84.2736 1.76085 82.1442 1.76085" fill="#071429"/>
<path d="M51.8501 0.0224609H49.9418V11.8616H51.8501V0.0224609Z" fill="#071429"/>
<path d="M60.92 7.19878C62.6646 6.87067 63.8713 5.32191 63.8713 3.69489C63.8728 0.598915 61.1739 0.0360068 59.0861 0.0360068C58.2899 0.0314916 57.4935 0.0269761 56.6971 0.0224609C56.6971 0.636542 56.6971 1.25062 56.6971 1.8647H59.4878C61.1136 1.8647 61.8726 2.53747 61.8726 3.80326C61.8726 4.85082 61.0375 5.75839 59.3529 5.75839H56.6971C56.6971 7.79629 56.6984 9.83571 56.6984 11.8736H58.6069V7.49527H58.9052L62.7363 11.8736H65.3752L60.9169 7.19726L60.92 7.19878Z" fill="#071429"/>
</g>
</g>
<defs>
<clipPath id="clip0_208_347">
<rect width="88" height="12" fill="white"/>
</clipPath>
</defs>
</svg>
