<svg width="40" height="11" viewBox="0 0 40 11" fill="none" xmlns="http://www.w3.org/2000/svg">
<path d="M6.90967 0.00183105V4.71703H6.92613L9.16292 0.00183105H6.90967Z" fill="#3333F2"/>
<path d="M2.5411 10.5386C0.896375 10.4137 1.56865 9.20094 1.85647 8.79672L3.62249 6.32971V0.912369L4.35233 0.0164195V0.00183105H0V0.0164195L0.729842 0.912369V9.97819L0 10.8824V10.897H5.64758L7.67058 7.95499H4.38112L2.5411 10.5386Z" fill="#3333F2"/>
<path d="M12.1891 1.84399L13.879 6.72585H10.6677L12.1891 1.84399ZM11.5496 0.00208074V0.0187509L11.9239 1.08764L11.1261 3.64422L9.52459 8.70318L7.95801 10.8827V10.8972H11.4283V10.8827L10.0118 8.83029L10.5608 7.06547H13.9797L15.0303 10.0243L14.6192 10.8806V10.8952H18.5253V10.864L14.6192 0L11.5496 0.00208074Z" fill="#3333F2"/>
<path d="M25.7475 5.74422C25.6838 8.32792 24.7936 10.5365 23.1099 10.5365H23.079V0.437312H23.0934C24.9067 0.437312 25.8113 3.33352 25.7475 5.74422ZM24.6189 0.00183105H19.4175V0.0164195L20.1802 0.912369V9.97819L19.4175 10.8804V10.897H24.6189C27.3368 10.897 28.8746 8.51544 28.9691 5.72969C29.0638 3.08348 27.4807 0.00183105 24.6189 0.00183105Z" fill="#3333F2"/>
<path d="M35.9639 0.00183105V0.0185012L37.6394 2.32088V5.81303L33.5873 0.00183105H29.9051L29.9195 0.0185012L30.9557 1.60829V8.7009L29.3706 10.8804V10.897H33.0404V10.8804L31.4574 8.70502V2.37714L37.3023 10.897H38.1391V9.17801V2.3188L39.8146 0.0185012V0.00183105H35.9639Z" fill="#3333F2"/>
</svg>
