<svg width="220" height="42" viewBox="0 0 220 42" fill="none" xmlns="http://www.w3.org/2000/svg">
<g clip-path="url(#clip0_208_322)">
<path d="M47.1 7.374V1.5H1.5V7.374H20.764V14.044H2.346V19.918H20.764V39.978H27.882V19.917H46.3V14.044H27.882V7.374H47.1Z" stroke="#041E99" stroke-width="3" stroke-miterlimit="10"/>
<path d="M58.843 1.052H62.526V7.324H68.151V1.052H71.834V17.329H68.151V10.559H62.526V17.329H58.843V1.052Z" fill="#041E99"/>
<path d="M75.618 1.052H85.818V4.138H79.297V7.423H84.822V10.509H79.297V14.242H86.067V17.328H75.618V1.052Z" fill="#041E99"/>
<path d="M96.921 13.4951H91.943L90.943 17.3781H87.215L92.342 1.10107H96.722L101.849 17.3781H97.966L96.921 13.4951ZM96.174 10.6081L95.774 9.11507C95.326 7.47207 94.874 5.58107 94.43 3.88807H94.33C93.93 5.63007 93.484 7.52207 93.036 9.11507L92.636 10.6081H96.174Z" fill="#041E99"/>
<path d="M103.493 1.052H108.072C113.05 1.052 116.235 3.541 116.235 9.116C116.235 14.691 113.049 17.329 108.271 17.329H103.443V1.052H103.493ZM107.923 14.392C110.661 14.392 112.552 13.048 112.552 9.165C112.552 5.282 110.66 4.088 107.923 4.088H107.223V14.442H107.923V14.392Z" fill="#041E99"/>
<path d="M119.073 1.052H122.756V7.324H128.381V1.052H132.064V17.329H128.381V10.559H122.756V17.329H119.073V1.052Z" fill="#041E99"/>
<path d="M135.748 1.052H139.431V10.161C139.431 13.347 140.431 14.442 142.268 14.442C144.105 14.442 145.155 13.342 145.155 10.161V1.052H148.689V9.813C148.689 15.288 146.449 17.628 142.268 17.628C138.087 17.628 135.797 15.239 135.797 9.813V1.052H135.748Z" fill="#041E99"/>
<path d="M152.373 1.052H156.156L160.387 9.116L162.03 12.7H162.13C161.858 10.7359 161.691 8.75881 161.63 6.777V1.052H165.114V17.329H161.333L157.102 9.215L155.509 5.681H155.409C155.679 7.62887 155.845 9.58958 155.909 11.555V17.329H152.373V1.052Z" fill="#041E99"/>
<path d="M172.135 4.188H167.655V1.052H180.298V4.138H175.818V17.329H172.135V4.188Z" fill="#041E99"/>
<path d="M182.787 1.052H186.47V17.329H182.787V1.052Z" fill="#041E99"/>
<path d="M190.303 1.052H194.086L198.317 9.116L199.96 12.7H200.06C199.788 10.7359 199.621 8.75881 199.56 6.777V1.052H203.044V17.329H199.263L195.032 9.215L193.439 5.681H193.339C193.609 7.62888 193.775 9.58959 193.839 11.555V17.329H190.303V1.052Z" fill="#041E99"/>
<path d="M214.097 0.753052C215.043 0.753029 215.98 0.942355 216.852 1.30988C217.724 1.67741 218.513 2.2157 219.174 2.89305L217.133 5.18305C216.748 4.78095 216.284 4.46287 215.77 4.24878C215.256 4.0347 214.703 3.92925 214.146 3.93905C211.657 3.93905 209.865 5.93005 209.865 9.16605C209.865 12.5011 211.408 14.4421 214.444 14.4421C215.061 14.4507 215.667 14.2767 216.186 13.9421V11.1531H213.498V8.17005H219.471V15.6371C217.936 16.9222 215.998 17.627 213.996 17.6281C209.616 17.6281 206.131 14.7411 206.131 9.26605C206.083 3.93905 209.716 0.753052 214.097 0.753052Z" fill="#041E99"/>
<path d="M58.796 24.925H69.096V28.011H62.525V31.794H68.15V34.88H62.525V41.202H58.846V24.925H58.796Z" fill="#041E99"/>
<path d="M78.557 37.3691H73.579L72.579 41.2521H68.801L73.928 24.9751H78.308L83.435 41.2521H79.552L78.557 37.3691ZM77.81 34.4821L77.41 32.9891C76.962 31.3461 76.51 29.4551 76.066 27.7621H75.966C75.566 29.5041 75.12 31.3961 74.672 32.9891L74.272 34.4821H77.81Z" fill="#041E99"/>
<path d="M91.897 24.6261C92.8043 24.6401 93.6994 24.8368 94.5289 25.2045C95.3584 25.5722 96.1053 26.1033 96.725 26.7661L94.684 29.0561C94.3327 28.6778 93.9097 28.3731 93.4397 28.1596C92.9697 27.946 92.462 27.8279 91.946 27.8121C89.656 27.8121 87.914 29.8031 87.914 33.0391C87.914 36.3741 89.507 38.3151 91.846 38.3151C92.4343 38.3124 93.015 38.1819 93.5478 37.9326C94.0807 37.6832 94.553 37.3211 94.932 36.8711L96.973 39.1111C96.3455 39.8732 95.5541 40.4839 94.6577 40.8976C93.7613 41.3112 92.7831 41.5172 91.796 41.5001C87.565 41.5001 84.13 38.6131 84.13 33.1381C84.132 27.8121 87.666 24.6261 91.897 24.6261Z" fill="#041E99"/>
<path d="M102.251 28.061H97.771V24.925H110.414V28.011H105.934V41.202H102.251V28.061Z" fill="#041E99"/>
<path d="M111.459 32.9881C111.459 27.6621 114.495 24.6261 118.826 24.6261C123.206 24.6261 126.193 27.7121 126.193 32.9881C126.193 38.3141 123.206 41.5001 118.826 41.5001C114.495 41.5001 111.459 38.3151 111.459 32.9881ZM122.459 32.9881C122.459 29.7531 121.065 27.8111 118.825 27.8111C116.635 27.8111 115.191 29.7521 115.191 32.9881C115.191 36.2731 116.635 38.3141 118.825 38.3141C121.066 38.3641 122.459 36.2741 122.459 32.9881Z" fill="#041E99"/>
<path d="M138.089 41.202L134.953 35.325H132.962V41.199H129.279V24.925H135.153C138.588 24.925 141.425 26.12 141.425 30.002C141.482 30.984 141.236 31.9599 140.72 32.797C140.203 33.6341 139.441 34.2919 138.538 34.681L142.222 41.202H138.089ZM132.962 32.441H134.853C136.794 32.441 137.84 31.595 137.84 30.002C137.84 28.409 136.795 27.862 134.853 27.862H132.962V32.441Z" fill="#041E99"/>
<path d="M147 35.425L142.122 24.925H146.054L147.547 28.658C147.995 29.902 148.393 30.998 148.891 32.242H148.991C149.439 30.998 149.937 29.853 150.385 28.658L151.828 24.925H155.661L150.733 35.425V41.199H147.049V35.425H147Z" fill="#041E99"/>
</g>
<defs>
<clipPath id="clip0_208_322">
<rect width="219.472" height="41.501" fill="white"/>
</clipPath>
</defs>
</svg>
